<?xml version="1.0" encoding="utf-8"?>
<!-- Generator: Adobe Illustrator 16.0.3, SVG Export Plug-In . SVG Version: 6.00 Build 0)  -->
<!DOCTYPE svg PUBLIC "-//W3C//DTD SVG 1.1//EN" "http://www.w3.org/Graphics/SVG/1.1/DTD/svg11.dtd">
<svg version="1.1" id="Layer_1" xmlns="http://www.w3.org/2000/svg" xmlns:xlink="http://www.w3.org/1999/xlink" x="0px" y="0px"
	 width="300px" height="300px" viewBox="0 0 300 300" enable-background="new 0 0 300 300" xml:space="preserve">
<ellipse fill="#1E1129" cx="149.174" cy="150.318" rx="147.836" ry="148.682"/>
<g>
	<defs>
		<ellipse id="SVGID_1_" cx="145.063" cy="150.318" rx="153.73" ry="148.682"/>
	</defs>
	<clipPath id="SVGID_2_">
		<use xlink:href="#SVGID_1_"  overflow="visible"/>
	</clipPath>
	<path clip-path="url(#SVGID_2_)" fill="#72113C" d="M334.205,249.166c0,2.711-2.824,4.909-6.309,4.909H52.45
		c-3.484,0-6.308-2.198-6.308-4.909V54.499c0-2.709,2.824-4.907,6.308-4.907h281.755c3.482,0,0,2.198,0,4.907V249.166z"/>
	<path clip-path="url(#SVGID_2_)" fill="#381A43" d="M144.242,216.448c-42.034,0-76.112-32.956-76.112-73.611
		c0-40.657,34.078-73.615,76.112-73.615"/>
	<path clip-path="url(#SVGID_2_)" fill="#1E1129" d="M144.242,69.222c42.04,0,76.116,32.958,76.116,73.615
		c0,40.655-34.076,73.611-76.116,73.611"/>
	<path clip-path="url(#SVGID_2_)" fill="#E4C021" d="M145.933,164.102c-12.143,0-21.986-9.521-21.986-21.265
		c0-11.746,9.844-21.267,21.986-21.267"/>
	<path clip-path="url(#SVGID_2_)" fill="#B19531" d="M145.933,121.57c12.146,0,21.991,9.521,21.991,21.267
		c0,11.743-9.846,21.265-21.991,21.265"/>
	<ellipse clip-path="url(#SVGID_2_)" fill="#F4F5F5" cx="144.242" cy="141.711" rx="7.928" ry="7.668"/>
	<polygon clip-path="url(#SVGID_2_)" fill="#F4F5F5" points="74.896,87.215 71.514,131.384 112.107,167.374 112.107,175.554 
		59.674,137.929 68.129,77.4 	"/>
	<ellipse clip-path="url(#SVGID_2_)" fill="#EC1463" cx="74.896" cy="74.129" rx="13.53" ry="13.086"/>
	<ellipse clip-path="url(#SVGID_2_)" fill="#F4F5F5" cx="112.105" cy="167.374" rx="13.531" ry="13.087"/>
	<g clip-path="url(#SVGID_2_)">
		<defs>
			<path id="SVGID_3_" d="M312.1,292.878c0,3.38-2.899,6.119-6.476,6.119H22.983c-3.577,0-6.474-2.739-6.474-6.119V50.173
				c0-3.379,2.897-6.119,6.474-6.119h282.641c3.576,0,6.476,2.74,6.476,6.119V292.878z"/>
		</defs>
		<clipPath id="SVGID_4_">
			<use xlink:href="#SVGID_3_"  overflow="visible"/>
		</clipPath>
		<path clip-path="url(#SVGID_4_)" fill="#F4F5F5" d="M227.826,335.405c-8.037-20.578-10.396-38.362-14.619-58.97
			c-0.155-0.035,0.177,0.408,0.145,0.271c-33.042-8.902-68.865-30.559-60.383-70.928c15.127,0.864,16.667,16.1,24.81,25.815
			c-0.332-21.01-8.082-60.772,0.364-79.687c13.786-30.874,16.656,28.954,20.539,38.445c-1.794-19.865,17.257-13.833,17.064,2.626
			c1.288-5.104,6.35-8.504,9.991-13.437c3.009,3.838,9.765,7.122,12.082,11.335c13.606-32.644,16.336,60.653,17.173,62.058
			l48.059,86.594L227.826,335.405z"/>
	</g>
</g>
<path fill="#F4F5F5" d="M215.445,190.314c0,0,0.536-11.568,9.721-11.568s11.838,12.236,11.838,12.236l-14.263,4.677L215.445,190.314
	z"/>
</svg>
