<?xml version="1.0" encoding="utf-8"?>
<!-- Generator: Adobe Illustrator 16.0.3, SVG Export Plug-In . SVG Version: 6.00 Build 0)  -->
<!DOCTYPE svg PUBLIC "-//W3C//DTD SVG 1.1//EN" "http://www.w3.org/Graphics/SVG/1.1/DTD/svg11.dtd">
<svg version="1.1" id="Layer_1" xmlns="http://www.w3.org/2000/svg" xmlns:xlink="http://www.w3.org/1999/xlink" x="0px" y="0px"
	 width="300px" height="300px" viewBox="0 0 300 300" enable-background="new 0 0 300 300" xml:space="preserve">
<ellipse fill="#EC1463" cx="151.037" cy="151.43" rx="148.016" ry="148.336"/>
<g>
	<defs>
		<ellipse id="SVGID_1_" cx="150.845" cy="150.786" rx="148.028" ry="148.336"/>
	</defs>
	<clipPath id="SVGID_2_">
		<use xlink:href="#SVGID_1_"  overflow="visible"/>
	</clipPath>
	<g clip-path="url(#SVGID_2_)">
		<polygon fill="#BA9C30" points="147.338,154.186 73.098,116.778 119.57,68.303 		"/>
		<polygon fill="#E4C021" points="188.305,136.237 139.542,97.22 143.372,78.336 132.219,55.367 122.271,62.889 100.798,79.125 
			107.016,91.54 122.074,78.538 127.644,92.937 141.408,150.685 164.402,170.958 185.037,154.279 		"/>
		<g>
			<path fill="#1B1026" d="M122.506,44.212c0,0,17.604-18.828,33.496,4.148c15.894,22.977-5.041,34.499-5.041,34.499
				s-10.279-1.179-19.087-12.42C123.067,59.198,122.506,44.212,122.506,44.212z"/>
			<path fill="#1B1026" d="M118.517,43.292c0,0-0.435,18.026,8.736,30.541c9.169,12.513,22.111,14.306,22.111,14.306
				s-14.286,13.054-29.268-6.741C105.113,61.6,118.517,43.292,118.517,43.292z"/>
			<path fill="#1B1026" d="M108.536,66.342c0,0,3.652,15.701,15.423,21.626l-60.372,44.327l-10.918-11.753L108.536,66.342z"/>
		</g>
		<path fill="#E4C021" d="M75.926,68.607l28.895,21.841c0,0,1.238,5.712-3.861,8.147c-5.099,2.433-33.296-19.455-33.296-19.455
			S69.611,68.484,75.926,68.607z"/>
		<path fill="#E4C021" d="M67.291,81.944l24.634,18.618c0,0,1.055,4.87-3.291,6.944c-4.347,2.074-28.384-16.582-28.384-16.582
			S61.912,81.841,67.291,81.944z"/>
		<path fill="#E4C021" d="M62.541,98.469l19.731,14.914c0,0,0.844,3.899-2.638,5.562c-3.481,1.662-22.733-13.283-22.733-13.283
			S58.23,98.386,62.541,98.469z"/>
		<path fill="#E4C021" d="M113.802,71.141c0,0-24.142-21.645-25.413-11.459c-1.27,10.187,5.718,21.646,5.718,21.646L113.802,71.141z
			"/>
		<polygon fill="#E4C021" points="188.305,136.237 246.582,180.643 226.253,225.21 147.338,154.186 		"/>
	</g>
	<path clip-path="url(#SVGID_2_)" fill="#060808" d="M263.101,94.833c0,0,2.823-5.874-2.15-8.366
		c-4.971-2.49-15.745,6.922-15.745,6.922l-1.842,0.457l2.369-6.342c0,0,3.064-3.251-2.736-6.85
		c-5.801-3.598-16.81,5.797-16.81,5.797s1.678-10.848-3.603-12.336c-5.279-1.487-20.474,22.042-20.474,22.042l46.409,3.599
		L263.101,94.833z"/>
	<path clip-path="url(#SVGID_2_)" fill="#060808" d="M124.418,252.472c7.92-30.691,27.97-88.954,58.902-104.062
		c10.43-5.097,82.949,2.366,59.883-24.938c7.008-8.126,16.321-17.19,19.897-28.639c-3.889-1.383-5.109-4.526-7.889-6.251
		c-3.482,2.476-8.194,3.048-11.849,5.264c0.238-2.159,2.146-3.926,2.369-6.342c-9.163-0.4-9.638-5.681-19.546-1.053
		c-0.102-4.268-3.312-9.012-3.603-12.336c-20.444-0.578-32.586,10.72-45.513,25.005L45.024,219.026L124.418,252.472z"/>
	<g id="XMLID_4_" clip-path="url(#SVGID_2_)">
		<g>
			<path fill="#72113C" d="M66.509,221.83c-2.793,2.817-5.152,6.048-6.982,9.57c-3.633,6.98-5.21,15.126-4.04,23.52
				c2.986,21.461,22.771,36.436,44.187,33.443c21.422-2.992,36.365-22.818,33.379-44.278c-2.985-21.467-22.77-36.441-44.192-33.45
				c-4.752,0.66-9.182,2.155-13.174,4.318C72.273,216.792,69.188,219.122,66.509,221.83z M208.402,240.987
				c16.884,56.244-11.199,70.484-30.32,95.853c-19.122,25.376-80.107,45.864-111.594,8.983
				c-31.489-36.867-36.201-76.653-36.201-76.653s-1.515-28.684-45.991-46.402c0,0-22.286,5.59-19.141-36.947
				c1.525-20.635,3.193-27.694,4.508-29.485l-54.895-48.495l-9.695,1.352l-9.904-7.642l-4.865,8.276
				c-1.708,2.914-5.455,3.892-8.368,2.173c-2.907-1.718-3.876-5.477-2.168-8.391l5.639-9.594l-12.612-9.74l-5.01,8.526
				c-1.714,2.914-5.46,3.891-8.374,2.172c-2.908-1.718-3.877-5.471-2.162-8.391l5.783-9.844l-5.941-4.583
				c0,0-6.915-2.342,2.238-13.524l11.354-13.14c0,0,5.975-6.584,12.563-3.149l2.801-4.777c1.721-2.913,5.466-3.884,8.373-2.166
				c2.908,1.711,3.884,5.466,2.168,8.385l-4.076,6.936l11.775,11.162l4.29-7.289c1.708-2.915,5.454-3.886,8.367-2.167
				c2.914,1.712,3.877,5.465,2.162,8.384l-5.704,9.71l7.932,7.519c0,0,6.91,2.329,4.337,13.424l60.515,50.15
				c0,0,45.754-20.425,57.141-9.638c11.387,10.793,11.985,3.277,14.468,21.095c2.477,17.811,34.867,25.671,34.867,25.671
				S191.513,184.742,208.402,240.987z M138.762,287.115c14.997-17.09,25.861-32.092,24.261-33.504
				c-1.596-1.404-15.045,11.314-30.043,28.411s-25.861,32.093-24.267,33.503C110.308,316.931,123.764,304.212,138.762,287.115z"/>
			<path fill="#2F1132" d="M163.022,253.611c1.601,1.412-9.264,16.414-24.261,33.504c-14.998,17.097-28.454,29.815-30.049,28.41
				c-1.595-1.41,9.269-16.406,24.267-33.503S161.427,252.207,163.022,253.611z"/>
			<path fill="#EC1463" d="M59.527,231.4c1.83-3.522,4.189-6.753,6.982-9.57c2.679-2.708,5.764-5.038,9.178-6.877
				c3.992-2.163,8.422-3.658,13.174-4.318c21.422-2.991,41.207,11.983,44.192,33.45c2.986,21.46-11.958,41.286-33.379,44.278
				c-21.416,2.992-41.201-11.982-44.187-33.443C54.317,246.526,55.894,238.381,59.527,231.4z"/>
		</g>
		<g>
			<polyline fill="none" stroke="#E5E563" stroke-width="2" stroke-miterlimit="10" points="-24.148,162.043 59.527,231.4 
				81.191,249.353 			"/>
			<polyline fill="none" stroke="#E5E563" stroke-width="2" stroke-miterlimit="10" points="-17.083,153.625 66.509,221.83 
				85.008,236.92 			"/>
			<polyline fill="none" stroke="#E5E563" stroke-width="2" stroke-miterlimit="10" points="-10.825,145.323 75.687,214.953 
				98.123,233.012 			"/>
		</g>
	</g>
	<ellipse clip-path="url(#SVGID_2_)" fill="#2F1132" cx="100.113" cy="253.315" rx="24.78" ry="24.831"/>
	<polygon clip-path="url(#SVGID_2_)" fill="#2F1132" points="204.626,214.641 238.961,165.36 315.503,226.57 279.29,276.234 	"/>
</g>
</svg>
