<?xml version="1.0" encoding="utf-8"?>
<!-- Generator: Adobe Illustrator 16.0.3, SVG Export Plug-In . SVG Version: 6.00 Build 0)  -->
<!DOCTYPE svg PUBLIC "-//W3C//DTD SVG 1.1//EN" "http://www.w3.org/Graphics/SVG/1.1/DTD/svg11.dtd">
<svg version="1.1" id="Layer_1" xmlns="http://www.w3.org/2000/svg" xmlns:xlink="http://www.w3.org/1999/xlink" x="0px" y="0px"
	 width="300px" height="300px" viewBox="0 0 300 300" enable-background="new 0 0 300 300" xml:space="preserve">
<ellipse fill="#483C6B" cx="99.242" cy="167.431" rx="32.922" ry="44.179"/>
<ellipse fill="#E4C021" cx="151.762" cy="150.33" rx="148.238" ry="148.14"/>
<g>
	<defs>
		<ellipse id="SVGID_1_" cx="151.272" cy="149.516" rx="148.237" ry="149.516"/>
	</defs>
	<clipPath id="SVGID_2_">
		<use xlink:href="#SVGID_1_"  overflow="visible"/>
	</clipPath>
	<ellipse clip-path="url(#SVGID_2_)" fill="#483C6B" cx="112.227" cy="131.638" rx="20.691" ry="31.33"/>
	<g clip-path="url(#SVGID_2_)">
		<g id="XMLID_1_">
			<g>
				<path fill="#381A43" d="M235.837,104.868c9.83,3.829,17.063,16.722,17.063,32.043c0,18.335-10.365,33.206-23.148,33.206
					c-1.754,0-3.467-0.28-5.107-0.814c12.289-0.794,22.083-15.348,22.083-33.169c0-11.632-4.172-21.869-10.483-27.799
					C236.099,106.995,235.96,105.828,235.837,104.868z"/>
				<polygon fill="#1E1129" points="232.761,239.064 243.563,288.089 183.384,330.114 79.223,282.641 89.254,235.951 
					136.131,219.146 150.534,258.577 180.369,222.259 				"/>
				<path fill="#483C6B" d="M236.243,108.333c6.312,5.93,10.483,16.167,10.483,27.799c0,17.821-9.794,32.375-22.083,33.169
					c-1.733-0.561-3.396-1.401-4.959-2.48C239.201,158.085,237.75,122.959,236.243,108.333z"/>
				<path fill="#2F1132" d="M236.243,108.333c1.507,14.626,2.958,49.751-16.559,58.488c-0.134-0.099-0.268-0.191-0.401-0.295
					c4.517-2.05,8.925-5.931,8.925-13.272c0-15.046,4.63-34.762-12.859-34.762c0,0-7.202,3.113-7.202,7.264v-0.789
					c3.226-11.99,11.152-20.619,20.54-21.226C231.423,104.624,233.97,106.201,236.243,108.333z"/>
				<path fill="#381A43" d="M235.837,104.868c0.123,0.96,0.262,2.127,0.406,3.466c-2.273-2.132-4.82-3.709-7.557-4.592
					c0.355-0.026,0.71-0.036,1.064-0.036C231.855,103.706,233.897,104.11,235.837,104.868z"/>
				<path fill="#483C6B" d="M171.882,18.098c79.988,0,63.528,83.792,63.528,83.792s0.185,1.084,0.427,2.978
					c-1.939-0.757-3.981-1.162-6.086-1.162c-0.354,0-0.709,0.01-1.064,0.036c-1.641-0.534-3.354-0.814-5.107-0.814
					c0,0,4.552-73.202-42.511-73.202c-46.892,0-73.101-3.86-73.291,50.747c-1.039,2.231-1.481,3.777-1.481,3.777
					S91.893,18.098,171.882,18.098z"/>
				<path fill="#483C6B" d="M215.349,118.492c17.489,0,12.859,19.716,12.859,34.762c0,7.342-4.408,11.223-8.925,13.272
					c-7.525-5.479-12.68-16.686-12.68-29.616c0-4.208,0.545-8.239,1.543-11.943v0.789
					C208.146,121.605,215.349,118.492,215.349,118.492z"/>
				<path fill="#381A43" d="M223.579,102.927c1.754,0,3.467,0.28,5.107,0.814c-9.388,0.607-17.314,9.235-20.54,21.226v-13.588
					C212.246,106.123,217.647,102.927,223.579,102.927z"/>
				<path fill="#2F1132" d="M181.068,29.725c47.063,0,42.511,73.202,42.511,73.202c-5.932,0-11.333,3.196-15.433,8.452V93.588
					c0,0,1.543-25.423-25.205-25.423c-26.749,0-33.95,15.565-33.95,15.565s-1.029-19.197-19.033-19.197
					c-12.958,0-19.521,10.216-22.181,15.938C107.968,25.865,134.176,29.725,181.068,29.725z"/>
				<path fill="#381A43" d="M219.283,166.526c-1.013,0.461-2.031,0.83-3.004,1.125c-9.208-4.384-15.849-16.841-15.849-31.519
					c0-9.837,2.983-18.673,7.716-24.754v13.588c-0.998,3.705-1.543,7.736-1.543,11.943
					C206.604,149.84,211.758,161.047,219.283,166.526z"/>
				<path fill="#1E1129" d="M195.354,118.306c0,0,3.221,16.789-15.036,16.789c-18.256,0-15.57-16.789-15.57-16.789
					S180.317,135.095,195.354,118.306z"/>
				<path fill="#381A43" d="M166.773,99.768c0,0,9.599-10.076,24.66-1.915c0,0-11.604,9.625-18.909,6.921
					C165.215,102.076,166.773,99.768,166.773,99.768z"/>
				<path fill="#F4F5F5" d="M170.596,206.175l2.757-23.145l0.237-0.021c0.159,1.79,0.37,2.626,0.534,2.729
					c0.376,0.238,0.505-3.356-0.761-8.099c-0.005-0.509-0.011-1.043-0.011-1.608c0-30.15-37.808-29.574-37.808-29.574
					c20.062-1.557,13.447-62.727,13.447-62.727s7.201-15.565,33.95-15.565c26.748,0,25.205,25.423,25.205,25.423v17.791
					c-4.732,6.081-7.716,14.917-7.716,24.754c0,14.678,6.641,27.135,15.849,31.519c-3.591,1.085-6.59,1.168-6.59,1.168v17.121
					C209.689,210.326,170.596,206.175,170.596,206.175z M180.317,135.095c18.257,0,15.036-16.789,15.036-16.789
					c-15.036,16.789-30.606,0-30.606,0S162.062,135.095,180.317,135.095z M191.434,97.853c-15.062-8.161-24.66,1.915-24.66,1.915
					s-1.559,2.309,5.751,5.007C179.829,107.478,191.434,97.853,191.434,97.853z"/>
				<path fill="#C7CBCB" d="M107.777,80.472c2.66-5.723,9.223-15.938,22.181-15.938c18.004,0,19.033,19.197,19.033,19.197
					s6.615,61.17-13.447,62.727c0,0,37.808-0.576,37.808,29.574c0,0.565,0.006,1.1,0.011,1.608
					c-2.31-8.634-9.249-21.065-27.788-21.065c-33.132,0-24.892,35.499-22.788,42.98c-15.946-12.12-16.492-34.367-16.492-34.367
					V84.249C106.296,84.249,106.738,82.703,107.777,80.472z M143.518,102.709c0,0,2.546-1.1-2.181-7.342
					c-4.732-6.236-19.645-4.399-19.645-4.399C130.061,106.009,143.518,102.709,143.518,102.709z M123.734,135.095
					c18.256,0,15.036-16.789,15.036-16.789c-15.036,16.789-30.607,0-30.607,0S105.478,135.095,123.734,135.095z"/>
				<path fill="#381A43" d="M173.363,177.64c0.025,2.329,0.113,4.094,0.227,5.369l-0.237,0.021l-2.757,23.145
					c0-50.793-25.792-41.039-25.792-41.039c-20.735,0-21.656,28.728-21.625,34.71c-0.134-0.094-0.263-0.192-0.391-0.291
					c-2.104-7.481-10.345-42.98,22.788-42.98C164.114,156.574,171.054,169.006,173.363,177.64z"/>
				<path fill="#F4F5F5" d="M164.865,176.031c-16.975,21.007-28.549,0-28.549,0s-1.543,15.56,13.117,15.56
					C164.094,191.591,164.865,176.031,164.865,176.031z M144.804,165.136c0,0,25.792-9.754,25.792,41.039v16.084h9.773
					l-29.835,36.318l-14.403-39.431h11.832v-11.934c-10.833,0-18.848-2.988-24.784-7.367
					C123.147,193.863,124.068,165.136,144.804,165.136z"/>
				<path fill="#1E1129" d="M164.865,176.031c0,0-0.771,15.56-15.432,15.56c-14.661,0-13.117-15.56-13.117-15.56
					S147.89,197.038,164.865,176.031z"/>
				<path fill="#381A43" d="M141.337,95.368c4.727,6.242,2.181,7.342,2.181,7.342s-13.457,3.3-21.826-11.741
					C121.692,90.968,136.604,89.131,141.337,95.368z"/>
				<path fill="#1E1129" d="M138.77,118.306c0,0,3.22,16.789-15.036,16.789c-18.256,0-15.571-16.789-15.571-16.789
					S123.734,135.095,138.77,118.306z"/>
			</g>
			<g>
			</g>
		</g>
		<ellipse fill="#6D6496" cx="222.55" cy="127.702" rx="7.202" ry="9.209"/>
	</g>
</g>
<g>
	
		<ellipse transform="matrix(-0.9487 0.3162 -0.3162 -0.9487 132.1559 303.6649)" fill="#72113C" cx="41.437" cy="162.556" rx="10.973" ry="8.979"/>
	<path fill="#72113C" d="M61.57,154.389c1.57,4.704,7.502,6.964,13.253,5.047c5.748-1.915,9.136-7.282,7.566-11.985
		c-1.569-4.703-7.501-6.963-13.251-5.047C63.388,144.318,60,149.686,61.57,154.389z"/>
	<polyline fill="#72113C" points="41.438,153.426 41.438,114.196 80.934,99.749 80.934,144.74 70.171,153.358 70.171,115.159 
		52.231,121.897 52.231,162.556 	"/>
</g>
</svg>
