<?xml version="1.0" encoding="utf-8"?>
<!-- Generator: Adobe Illustrator 16.0.3, SVG Export Plug-In . SVG Version: 6.00 Build 0)  -->
<!DOCTYPE svg PUBLIC "-//W3C//DTD SVG 1.1//EN" "http://www.w3.org/Graphics/SVG/1.1/DTD/svg11.dtd">
<svg version="1.1" id="Layer_1" xmlns="http://www.w3.org/2000/svg" xmlns:xlink="http://www.w3.org/1999/xlink" x="0px" y="0px"
	 width="300px" height="300px" viewBox="0 0 300 300" enable-background="new 0 0 300 300" xml:space="preserve">
<circle fill="#E4C021" cx="151.198" cy="151.423" r="148.578"/>
<g>
	<defs>
		<circle id="SVGID_1_" cx="152.044" cy="150.283" r="148.578"/>
	</defs>
	<clipPath id="SVGID_2_">
		<use xlink:href="#SVGID_1_"  overflow="visible"/>
	</clipPath>
	<path clip-path="url(#SVGID_2_)" fill="#2F1132" d="M128.212,92.74c21.451,19.757,35.468-30.835,80.085-30.835
		c44.618,0,54.913,20.556,54.913,20.556l10.297,16.445c0,0-107.541-16.445-107.541,40.084c0,56.53,50.339,61.667,50.339,61.667
		s36.61,23.639-12.585,30.834c-49.193,7.195-81.229-22.611-99.533-22.611c-18.304,0-21.737,24.667-69.787,24.667
		c-48.051,0-49.196-64.75-49.196-64.75L9.23,68.072C9.23,68.072,91.464,58.89,128.212,92.74z"/>
	<rect x="9.364" y="130.768" clip-path="url(#SVGID_2_)" fill="#2F1132" width="275.449" height="38.029"/>
	<rect x="9.364" y="130.768" clip-path="url(#SVGID_2_)" fill="#F2F2F3" width="280.588" height="8.222"/>
	<rect x="9.364" y="147.212" clip-path="url(#SVGID_2_)" fill="#F2F2F3" width="280.588" height="8.223"/>
	<rect x="9.364" y="163.658" clip-path="url(#SVGID_2_)" fill="#F2F2F3" width="280.588" height="8.222"/>
	<path clip-path="url(#SVGID_2_)" fill="#610C36" d="M141.95,174.963c0,2.271-1.84,4.11-4.112,4.11l0,0
		c-2.271,0-4.112-1.84-4.112-4.11v-52.418c0-2.271,1.841-4.11,4.112-4.11l0,0c2.271,0,4.112,1.84,4.112,4.11V174.963z"/>
	<path clip-path="url(#SVGID_2_)" fill="#610C36" d="M83.365,174.963c0,2.271-1.84,4.11-4.11,4.11l0,0
		c-2.271,0-4.112-1.84-4.112-4.11v-52.418c0-2.271,1.841-4.11,4.112-4.11l0,0c2.27,0,4.11,1.84,4.11,4.11V174.963z"/>
	<path clip-path="url(#SVGID_2_)" fill="#610C36" d="M27.864,174.963c0,2.271-1.841,4.11-4.111,4.11l0,0
		c-2.27,0-4.111-1.84-4.111-4.11v-52.418c0-2.271,1.841-4.11,4.111-4.11l0,0c2.271,0,4.111,1.84,4.111,4.11V174.963z"/>
	<path clip-path="url(#SVGID_2_)" fill="#72113C" d="M84.393,207.538c-1.579,3.954-6.066,5.877-10.019,4.299l-12.406-4.958
		c-3.954-1.58-5.879-6.066-4.299-10.021l0,0c1.58-3.953,6.065-5.876,10.02-4.297l12.406,4.958
		C84.049,199.098,85.973,203.586,84.393,207.538L84.393,207.538z"/>
	<circle clip-path="url(#SVGID_2_)" fill="#EC1463" cx="51.504" cy="217.103" r="6.167"/>
</g>
</svg>
