<?xml version="1.0" encoding="utf-8"?>
<!-- Generator: Adobe Illustrator 16.0.3, SVG Export Plug-In . SVG Version: 6.00 Build 0)  -->
<!DOCTYPE svg PUBLIC "-//W3C//DTD SVG 1.1//EN" "http://www.w3.org/Graphics/SVG/1.1/DTD/svg11.dtd">
<svg version="1.1" id="Layer_1" xmlns="http://www.w3.org/2000/svg" xmlns:xlink="http://www.w3.org/1999/xlink" x="0px" y="0px"
	 width="120px" height="200px" viewBox="0 0 120 200" enable-background="new 0 0 120 200" xml:space="preserve">
<line fill="none" stroke="#C40E58" stroke-width="0.25" stroke-miterlimit="10" x1="72" y1="48.667" x2="115" y2="84.333"/>
<path fill="#2F1132" d="M62.069,14.812h-2.496c-0.543,0-0.983,0.441-0.983,0.986c0,0.543,0.44,0.981,0.983,0.981h2.496v1.969h-2.496
	c-0.543,0-0.983,0.438-0.983,0.981c0,0.545,0.44,0.988,0.983,0.988h2.496v2.041c3.094,0,7.056-2.234,7.056-4.995
	s-3.962-4.995-7.056-4.995V14.812z"/>
<path fill="#2F1132" d="M121.565,17.822c0,1.07-0.868,1.938-1.938,1.938H67.689c-1.069,0-1.938-0.868-1.938-1.938l0,0
	c0-1.07,0.868-1.938,1.938-1.938h51.938C120.697,15.884,121.565,16.752,121.565,17.822L121.565,17.822z"/>
<rect x="60.226" y="66.866" fill="#E3C021" width="29.097" height="3.755"/>
<rect x="78.466" y="190.666" fill="#EC1463" width="36.052" height="3.471"/>
<g>
	<g id="XMLID_6_">
		<g>
			<path fill="#610C36" d="M104.807,55.656l-0.52,1.096l-4.466,0.872c0.024-0.122,0.049-0.237,0.071-0.34l0.001-0.001l0.723-1.363
				L104.807,55.656z"/>
			<path fill="#610C36" d="M104.559,59.824l0.133,0.946l-4.392,0.688c-0.02-0.545-0.227-1.019-0.461-1.387L104.559,59.824z"/>
			<path fill="#610C36" d="M99.297,53.63c0,0,2.958-0.402,1.317,2.289c-0.152,0.253-0.348,0.533-0.589,0.843
				c0,0-0.06,0.207-0.132,0.521l-0.001,0.001L99.7,57.648l0.121-0.024c-0.161,0.799-0.307,1.938,0.018,2.446l0.46,1.387h0.001
				c0.023,0.678-0.244,1.468-1.11,2.306l-0.2,22.784l-2.425,0.242l0.005-23.167c0,0-1.599-0.992-1.401-2.692h0.002l0.6-1.498
				l0.002-0.003c0,0,0.156-1.127-0.003-2.219c-0.09-0.623-0.281-1.233-0.663-1.619l-0.001-0.001
				c-1.051-1.061,0.255-2.837,1.307-2.365c0,0-0.539-3.34,1.003-3.832C97.414,49.393,99.49,52.093,99.297,53.63z M98.401,62.379
				c0.289-0.523,0.053-1.158-0.527-1.417c-0.581-0.261-1.284-0.046-1.573,0.476c-0.288,0.523-0.051,1.156,0.528,1.417
				C97.408,63.115,98.113,62.902,98.401,62.379z"/>
			<path fill="#401310" d="M100.3,61.458L100.3,61.458l-0.461-1.387C100.073,60.439,100.28,60.912,100.3,61.458z"/>
			<path fill="#401310" d="M99.7,57.648l0.192-0.364c-0.022,0.103-0.047,0.218-0.071,0.34L99.7,57.648z"/>
			<path fill="#682224" d="M97.874,60.961c0.58,0.26,0.816,0.894,0.527,1.417c-0.288,0.523-0.993,0.736-1.572,0.476
				c-0.579-0.261-0.816-0.894-0.528-1.417C96.59,60.915,97.293,60.701,97.874,60.961z"/>
			<path fill="#1B1026" d="M99.408,99.13c-0.387,0.702-1.149,1.123-1.96,1.165l0.097-4.198c0.275,0.024,0.551,0.093,0.813,0.21
				C99.513,96.825,99.982,98.089,99.408,99.13z"/>
			<path fill="#1B1026" d="M100.074,99.426c-0.52,0.943-1.552,1.502-2.642,1.539l0.016-0.671c0.811-0.042,1.573-0.462,1.96-1.165
				c0.574-1.041,0.104-2.305-1.051-2.823c-0.262-0.118-0.537-0.187-0.813-0.21l0.016-0.671c0.381,0.027,0.763,0.119,1.126,0.282
				C100.21,96.389,100.831,98.056,100.074,99.426z"/>
			<path fill="#483C6B" d="M96.572,100.885c0.284,0.065,0.574,0.091,0.86,0.081c1.09-0.037,2.122-0.596,2.642-1.539
				c0.757-1.371,0.136-3.037-1.388-3.718c-0.363-0.163-0.745-0.255-1.126-0.282c-0.246-0.018-0.492-0.009-0.732,0.027
				c-0.947,0.138-1.809,0.672-2.268,1.506c-0.757,1.37-0.135,3.037,1.387,3.719C96.15,100.769,96.36,100.837,96.572,100.885z
				 M93.74,109.134c0,0-8.138-2.465-6.908-8.851c1.229-6.385,4.568-8.282,7.319-8.82c0,0-0.07-1.951,1.501-2.723l0.912-1.951
				l2.425-0.242l0.531,2.008c0,0,2.825,2.003,2.107,3.305c0,0,7.813,3.942,6.319,9.026c-1.495,5.085-4.438,7.456-7.454,8.173
				c0,0,1.041,1.5-1.828,2.131l-1.503,2.425L93.74,109.134z"/>
			<path fill="#F8F3A9" d="M97.561,95.426l-0.016,0.671c-0.253-0.022-0.506-0.007-0.75,0.044l0.033-0.688
				C97.068,95.417,97.314,95.408,97.561,95.426z"/>
			<path fill="#F8F3A9" d="M97.433,100.965c-0.286,0.011-0.576-0.016-0.86-0.081l0.032-0.686c0.277,0.081,0.563,0.111,0.844,0.096
				L97.433,100.965z"/>
			<path fill="#1B1026" d="M97.448,100.294c-0.28,0.016-0.566-0.015-0.844-0.096v-0.001l0.19-4.057
				c0.244-0.051,0.497-0.067,0.75-0.044L97.448,100.294z"/>
			<path fill="#610C36" d="M95.771,59.429l-0.002,0.003c-0.369,0.546-0.549,1.047-0.602,1.498l-3.458-0.37l-0.143-1.245
				L95.771,59.429z"/>
			<path fill="#401310" d="M95.77,59.433l-0.6,1.498h-0.002C95.221,60.479,95.4,59.979,95.77,59.433z"/>
			<polygon fill="#610C36" points="95.105,55.591 95.769,57.21 91.438,57.489 91.404,56.363 95.104,55.589 			"/>
			<path fill="#1B1026" d="M96.278,100.08c-1.155-0.521-1.626-1.784-1.052-2.824c0.323-0.587,0.91-0.978,1.568-1.114l-0.19,4.057
				v0.001C96.494,100.166,96.385,100.127,96.278,100.08z"/>
			<path fill="#72113C" d="M95.947,100.677c-1.521-0.682-2.144-2.349-1.387-3.719c0.459-0.834,1.32-1.368,2.268-1.506l-0.033,0.688
				c-0.658,0.136-1.245,0.527-1.568,1.114c-0.574,1.04-0.104,2.304,1.052,2.824c0.106,0.047,0.216,0.086,0.326,0.119l-0.032,0.686
				C96.36,100.837,96.15,100.769,95.947,100.677z"/>
		</g>
		<g>
		</g>
	</g>
</g>
<polyline fill="#E3C021" points="55.866,46.131 55.866,87.002 60.226,93.65 60.226,42.549 55.866,46.131 "/>
<circle fill="#483C6B" cx="89.427" cy="69.109" r="3.466"/>
<circle fill="#EC1463" cx="89.427" cy="68.984" r="2.006"/>
<path fill="#1B1026" d="M44.333,55.507v12.345c-0.636-0.172-1.386-0.171-2.143,0.043c-1.738,0.491-2.855,1.922-2.496,3.194
	c0.36,1.273,2.062,1.904,3.8,1.414c1.225-0.348,2.139-1.16,2.447-2.055l0.239,0.308V60.359c4.39,0,4.39,5.776,4.39,5.776
	C55.193,56.431,44.333,55.507,44.333,55.507z"/>
<path fill="#2F1132" d="M116.185,195.162h2.701c0.588,0,1.064-0.475,1.064-1.063c0-0.59-0.477-1.064-1.064-1.064h-2.701v-2.129
	h2.701c0.588,0,1.064-0.477,1.064-1.064s-0.477-1.064-1.064-1.064h-2.701v-2.209c-3.346,0-7.629,2.418-7.629,5.402
	s4.283,5.402,7.629,5.402V195.162z"/>
<g id="XMLID_5_">
	<g>
		<path fill="#EC1463" d="M55.345,165.176v2.447c-0.98,0.072-1.905,0.326-2.728,0.727h-5.971l0.858-1.683v-0.1
			c1.944-1.818,4.608-3.008,7.578-3.196C55.252,163.906,55.345,164.506,55.345,165.176z"/>
		<path fill="#EC1463" d="M55.345,180.148v4.263c-6.192-0.271-11.12-4.877-11.12-10.526c0-2.031,0.636-3.927,1.741-5.535h0.518
			v0.318l0.162-0.318h5.971c-2.186,1.06-3.672,3.14-3.672,5.535C48.945,177.181,51.762,179.886,55.345,180.148z"/>
		<path fill="#1C3445" d="M47.504,158.953c-0.379-0.031-0.725-0.047-1.02-0.054v-17.938v-1.103c0.346,0,0.687-0.023,1.02-0.067
			V158.953z"/>
		<path fill="#72113C" d="M55.083,163.371c-2.97,0.188-5.634,1.378-7.578,3.196v-7.614
			C50.021,159.154,54.029,160.012,55.083,163.371z"/>
		<path fill="#EC1463" d="M46.646,168.35h-0.162v-0.691c0.312-0.385,0.652-0.75,1.02-1.091v0.1L46.646,168.35z"/>
		<path fill="#72113C" d="M47.504,158.953v-19.162c1.196-0.158,2.293-0.588,3.211-1.221v13.67c0,3.32,2.745,4.647,2.745,4.647
			c4.49,2.213,5.353,3.932,5.49,4.702v0.445v1.667c-0.967-0.234-1.983-0.358-3.031-0.358c-0.281,0-0.559,0.01-0.836,0.027
			C54.029,160.012,50.021,159.154,47.504,158.953z"/>
		<polygon fill="#1C3445" points="46.484,168.35 46.646,168.35 46.484,168.668 		"/>
		<path fill="#72113C" d="M46.484,158.899c0.295,0.007,0.641,0.022,1.02,0.054v7.614c-0.368,0.341-0.708,0.706-1.02,1.091V158.899z"
			/>
		<path fill="#EC1463" d="M58.95,184.065v3.416c-1.286-1.481-2.019-3.098-2.019-3.098C57.624,184.331,58.298,184.224,58.95,184.065z
			"/>
		<path fill="#1B1026" d="M8.294,186.537H23.77c-0.461,0.265-1.07,0.426-1.736,0.426H7.635c-0.316,0-0.62-0.035-0.899-0.103
			C7.207,186.653,7.735,186.537,8.294,186.537z"/>
		<path fill="#EC1463" d="M67.252,187.222l0.359-0.259c0,0-0.392,5.178,5.751,5.178s6.143-5.178,6.143-5.178v-41.318
			c0,0-1.759-10.445,11.589-10.445c0,0,3.344,0.025,3.344,3.012c0,2.984-3.442,1.355-3.442,1.355s-8.631-2.918-8.631,5.212v37.675
			v8.368c0,0-0.779,4.282-9.094,4.282c-7.07,0-8.691-4.101-9.017-5.329c0.314-0.074,0.636-0.188,0.963-0.343
			C66.354,188.892,66.973,188.108,67.252,187.222z"/>
		<path fill="#EC1463" d="M58.95,183.363v0.702c-0.652,0.158-1.326,0.266-2.019,0.318L58.95,183.363z"/>
		<path fill="#2F1132" d="M55.345,184.411v6.41H37.938V168.35h1.574v19.846c0,0.341,0.153,0.649,0.402,0.874
			c0.248,0.224,0.591,0.362,0.97,0.362c0.759,0,1.373-0.555,1.373-1.236V168.35h3.709c-1.104,1.608-1.741,3.504-1.741,5.535
			C44.226,179.534,49.153,184.141,55.345,184.411z"/>
		<path fill="#FFFFFF" d="M31.463,189.75v2.146c0,1.772-1.596,3.208-3.564,3.208H8.294c-1.968,0-3.564-1.436-3.564-3.208v-2.146
			c0-1.269,0.818-2.367,2.004-2.89c0,0,0,0,0.001,0c0.279,0.067,0.583,0.103,0.899,0.103h14.398c0.666,0,1.275-0.161,1.736-0.426
			h4.13C29.868,186.537,31.463,187.979,31.463,189.75z"/>
		<path fill="#1B1026" d="M24.528,151.166H8.294c-0.894,0-1.71-0.298-2.336-0.787c0.454-0.244,1.039-0.392,1.677-0.392h14.398
			C23.203,149.987,24.193,150.481,24.528,151.166z"/>
		<path fill="#FFFFFF" d="M31.463,168.391v2.141c0,1.775-1.596,3.213-3.564,3.213h-3.249v-0.425c0-0.934-1.172-1.688-2.617-1.688
			H7.635c-0.935,0-1.757,0.317-2.219,0.794c-0.433-0.531-0.686-1.187-0.686-1.894v-2.141c0-1.463,1.085-2.7,2.57-3.087h0.001
			c0.109,0.01,0.22,0.015,0.333,0.015h14.398c0.375,0,0.73-0.051,1.051-0.143h4.814C29.868,165.176,31.463,166.618,31.463,168.391z"
			/>
		<path fill="#72113C" d="M16.445,115.343c0.033-0.003,0.097-0.008,0.19-0.015c0.019-0.002,0.038-0.003,0.059-0.004
			c0.119-0.009,0.274-0.019,0.464-0.028c0.138-0.007,0.294-0.014,0.466-0.019c0.253-0.008,0.512-0.012,0.775-0.012h1.274
			c5.575,0.126,16.362,1.633,16.362,11.393v42.802v23.249v4.234H3.698v-65.654C3.698,131.289,1.683,116.533,16.445,115.343z
			 M31.463,191.896v-2.146c0-1.771-1.596-3.213-3.564-3.213h-4.13c0.541-0.311,0.881-0.763,0.881-1.268v-0.846h3.249
			c1.968,0,3.564-1.438,3.564-3.213v-2.141c0-1.775-1.596-3.214-3.564-3.214h-4.418c0.705-0.303,1.169-0.821,1.169-1.408v-0.704
			h3.249c1.968,0,3.564-1.438,3.564-3.213v-2.141c0-1.772-1.596-3.215-3.564-3.215h-4.814c0.921-0.262,1.566-0.856,1.566-1.55
			v-0.563h3.249c1.968,0,3.564-1.437,3.564-3.212v-2.143c0-1.775-1.596-3.213-3.564-3.213h-5.866c1.445,0,2.617-0.753,2.617-1.691
			v-1.126c0-0.179-0.042-0.352-0.123-0.513h3.371c1.968,0,3.564-1.438,3.564-3.212v-2.142c0-1.773-1.596-3.214-3.564-3.214H8.294
			c-1.968,0-3.564,1.44-3.564,3.214v2.142c0,0.969,0.476,1.837,1.228,2.425c-0.574,0.31-0.94,0.776-0.94,1.3v1.126
			c0,0.938,1.172,1.691,2.617,1.691h0.659c-1.968,0-3.564,1.438-3.564,3.213v2.143c0,0.676,0.23,1.302,0.626,1.817
			c-0.216,0.245-0.338,0.529-0.338,0.833v1.124c0,0.86,0.995,1.572,2.283,1.678c-1.485,0.387-2.57,1.624-2.57,3.087v2.141
			c0,0.707,0.253,1.362,0.686,1.894v0.001c-0.253,0.257-0.398,0.565-0.398,0.894v1.129c0,0.785,0.831,1.447,1.957,1.637
			c-1.314,0.473-2.244,1.631-2.244,2.985v2.141c0,0.744,0.28,1.428,0.752,1.973v0.001c-0.293,0.271-0.465,0.601-0.465,0.958v1.127
			c0,0.73,0.715,1.353,1.717,1.591c-1.187,0.522-2.004,1.621-2.004,2.89v2.146c0,1.772,1.596,3.208,3.564,3.208h19.605
			C29.868,195.104,31.463,193.668,31.463,191.896z M23.395,127.287c0-3.472-3.122-6.285-6.974-6.285
			c-3.852,0-6.974,2.813-6.974,6.285c0,3.471,3.122,6.287,6.974,6.287C20.273,133.574,23.395,130.758,23.395,127.287z"/>
		<path fill="#EC1463" d="M64.178,189.432l3.074-2.21c-0.279,0.887-0.897,1.67-2.035,2.21c-0.327,0.155-0.648,0.269-0.963,0.343
			h-0.001C64.195,189.558,64.178,189.432,64.178,189.432z"/>
		<path fill="#1C3445" d="M58.95,168.226v3c-0.768-0.711-1.842-1.153-3.031-1.153c-0.194,0-0.386,0.013-0.574,0.036v-1.759v-0.727
			c0.189-0.015,0.381-0.021,0.574-0.021c1.085,0,2.114,0.225,3.031,0.622V168.226z"/>
		<path fill="#1C3445" d="M8.294,165.176h14.791c-0.321,0.092-0.677,0.143-1.051,0.143H7.635c-0.113,0-0.224-0.005-0.333-0.015
			C7.617,165.22,7.95,165.176,8.294,165.176z"/>
		<path fill="#EC1463" d="M46.484,167.658v0.691h-0.518C46.128,168.112,46.3,167.882,46.484,167.658z"/>
		<path fill="#EC1463" d="M58.95,163.702v4.521c-0.917-0.397-1.946-0.622-3.031-0.622c-0.193,0-0.385,0.007-0.574,0.021v-2.447
			c0-0.67-0.093-1.27-0.263-1.805c0.277-0.018,0.556-0.027,0.836-0.027C56.967,163.344,57.983,163.468,58.95,163.702z"/>
		<path fill="#72113C" d="M58.95,187.482v5.227H36.036V169.46c0-6.86,0-9.063,3.476-10.68c0.248-0.116,0.485-0.25,0.71-0.394
			c2.93-1.901,3.952-6.146,3.952-6.146v-12.382l0.778-0.153c0.493,0.1,1.007,0.153,1.533,0.153v1.103v17.938
			c-0.665-0.016-1.083,0.013-1.083,0.013c-6.826,0-7.464,6.727-7.464,6.727v2.711v22.472h17.408v-6.41
			c0.19,0.008,0.382,0.013,0.574,0.013c0.341,0,0.678-0.014,1.012-0.04C56.931,184.384,57.664,186,58.95,187.482L58.95,187.482z"/>
		<path fill="#1C3445" d="M55.345,167.623v0.727h-2.728C53.44,167.949,54.365,167.695,55.345,167.623z"/>
		<path fill="#72113C" d="M46.484,158.899v8.759c-0.184,0.224-0.356,0.454-0.518,0.691h-3.709v-1.936
			c0-0.343-0.153-0.651-0.402-0.875c-0.248-0.226-0.591-0.363-0.971-0.363c-0.758,0-1.372,0.555-1.372,1.238v1.936h-1.574v-2.711
			c0,0,0.638-6.727,7.464-6.727C45.401,158.912,45.82,158.884,46.484,158.899z"/>
		<path fill="#1B1026" d="M24.651,151.679v1.126c0,0.938-1.172,1.691-2.617,1.691H8.294H7.635c-1.445,0-2.617-0.753-2.617-1.691
			v-1.126c0-0.523,0.366-0.99,0.94-1.3c0.626,0.489,1.442,0.787,2.336,0.787h16.234C24.608,151.327,24.651,151.5,24.651,151.679z"/>
		<path fill="#EC1463" d="M64.253,189.774c-2.196,0.523-4.022-0.817-5.303-2.292v-0.001v-3.416c2.592-0.625,4.829-2.032,6.38-3.925
			c0,0,2.856,4.116,1.922,7.081l-3.074,2.21C64.178,189.432,64.195,189.558,64.253,189.774z"/>
		<path fill="#EC1463" d="M65.33,180.141c-1.551,1.893-3.788,3.3-6.38,3.925v-0.702L65.33,180.141z"/>
		<path fill="#FFFFFF" d="M58.95,176.541v-5.313c0.741,0.686,1.196,1.623,1.196,2.657C60.146,174.918,59.691,175.855,58.95,176.541z
			"/>
		<path fill="#1C3445" d="M62.893,173.885c0,2.491-1.61,4.646-3.942,5.661v-3.003v-0.002c0.741-0.686,1.196-1.623,1.196-2.656
			c0-1.034-0.456-1.972-1.196-2.657v-0.002v-3C61.282,169.24,62.893,171.393,62.893,173.885z"/>
		<path fill="#EC1463" d="M58.95,179.546c2.332-1.016,3.942-3.17,3.942-5.661c0-2.492-1.61-4.645-3.942-5.659v-0.002v-4.521
			c4.988,1.203,8.661,5.307,8.661,10.183c0,2.343-0.847,4.507-2.281,6.256l-6.38,3.223v-3.815V179.546z"/>
		<path fill="#EC1463" d="M55.345,180.148c0.189,0.015,0.381,0.021,0.574,0.021c1.085,0,2.114-0.225,3.031-0.622v3.815l-2.019,1.021
			c-0.334,0.026-0.671,0.04-1.012,0.04c-0.191,0-0.383-0.005-0.574-0.013V180.148z"/>
		<path fill="#1C3445" d="M55.919,180.17c-0.193,0-0.385-0.007-0.574-0.021v-2.487c0.188,0.024,0.379,0.036,0.574,0.036
			c1.189,0,2.263-0.442,3.031-1.154v3.003v0.002C58.033,179.945,57.004,180.17,55.919,180.17z"/>
		<path fill="#FFFFFF" d="M55.919,177.697c-0.194,0-0.386-0.012-0.574-0.036v-7.553c0.188-0.023,0.379-0.036,0.574-0.036
			c1.189,0,2.263,0.442,3.031,1.153v0.002v5.313v0.002C58.182,177.255,57.108,177.697,55.919,177.697z"/>
		<path fill="#1C3445" d="M55.345,180.148c-3.583-0.263-6.4-2.968-6.4-6.264c0-2.396,1.486-4.476,3.672-5.535h2.728v1.759
			c-2.064,0.252-3.655,1.846-3.655,3.776c0,1.93,1.59,3.525,3.655,3.776V180.148z"/>
		<path fill="#FFFFFF" d="M55.345,177.661c-2.064-0.251-3.655-1.847-3.655-3.776c0-1.931,1.59-3.524,3.655-3.776V177.661z"/>
		<path fill="#FFFFFF" d="M46.484,129.761c2.337,0,4.231,1.708,4.231,3.813c0,2.104-1.894,3.81-4.231,3.81
			c-2.335,0-4.228-1.706-4.228-3.81C42.257,131.469,44.149,129.761,46.484,129.761z"/>
		<path fill="#483C6B" d="M36.036,126.658c0-9.76-10.787-11.267-16.362-11.393h22.698c0,0,16.579,4.072,16.579,16.023v30.301
			c-0.137-0.771-1-2.489-5.49-4.702c0,0-2.745-1.327-2.745-4.647v-13.67c1.669-1.149,2.745-2.96,2.745-4.996
			c0-3.472-3.123-6.287-6.976-6.287c-3.849,0-6.973,2.815-6.973,6.287c0,2.994,2.327,5.501,5.439,6.131l-0.778,0.153v12.382
			c0,0-1.021,4.245-3.952,6.146c-0.225,0.144-0.462,0.277-0.71,0.394c-3.476,1.616-3.476,3.819-3.476,10.68V126.658z"/>
		<path fill="#1C3445" d="M46.484,139.858v-0.292h1.02v0.225C47.171,139.835,46.831,139.858,46.484,139.858z"/>
		<path fill="#1C3445" d="M44.951,139.705l5.764-1.137v0.002c-0.917,0.633-2.015,1.063-3.211,1.221v-0.225h-1.02v0.292
			C45.958,139.858,45.444,139.805,44.951,139.705z"/>
		<path fill="#FFFFFF" d="M39.512,166.414c0-0.684,0.614-1.238,1.372-1.238c0.379,0,0.723,0.138,0.971,0.363
			c0.249,0.224,0.402,0.532,0.402,0.875v1.936h-2.745V166.414z"/>
		<path fill="#1C3445" d="M50.715,138.568l-5.764,1.137c-3.112-0.63-5.439-3.137-5.439-6.131c0-3.472,3.124-6.287,6.973-6.287
			c3.853,0,6.976,2.815,6.976,6.287c0,2.036-1.076,3.847-2.745,4.996V138.568z M50.715,133.574c0-2.105-1.894-3.813-4.231-3.813
			c-2.335,0-4.228,1.708-4.228,3.813c0,2.104,1.893,3.81,4.228,3.81C48.822,137.384,50.715,135.678,50.715,133.574z"/>
		<path fill="#FFFFFF" d="M42.257,188.195c0,0.682-0.614,1.236-1.373,1.236c-0.378,0-0.722-0.139-0.97-0.362
			c-0.249-0.225-0.402-0.533-0.402-0.874V168.35h2.745V188.195z"/>
		<rect x="36.036" y="192.709" fill="#483C6B" width="22.915" height="4.234"/>
		<path fill="#FFFFFF" d="M4.73,145.813c0-1.773,1.596-3.214,3.564-3.214h19.605c1.968,0,3.564,1.44,3.564,3.214v2.142
			c0,1.774-1.596,3.212-3.564,3.212h-3.371c-0.335-0.685-1.325-1.179-2.495-1.179H7.635c-0.638,0-1.223,0.147-1.677,0.392
			c-0.752-0.588-1.228-1.456-1.228-2.425V145.813z"/>
		<path fill="#FFFFFF" d="M16.421,131.097c2.335,0,4.228-1.704,4.228-3.81c0-2.104-1.893-3.811-4.228-3.811
			c-2.336,0-4.23,1.707-4.23,3.811C12.191,129.393,14.085,131.097,16.421,131.097z M16.421,133.574
			c-3.852,0-6.974-2.816-6.974-6.287c0-3.472,3.122-6.285,6.974-6.285c3.852,0,6.974,2.813,6.974,6.285
			C23.395,130.758,20.273,133.574,16.421,133.574z"/>
		<ellipse fill="#1C3445" cx="16.42" cy="127.287" rx="4.229" ry="3.81"/>
		<path fill="#1C3445" d="M7.635,176.14c-0.228,0-0.449-0.019-0.659-0.055c0.407-0.148,0.852-0.229,1.318-0.229h15.187
			c-0.414,0.179-0.912,0.283-1.448,0.283H7.635z"/>
		<path fill="#1B1026" d="M6.736,186.86c-0.001,0-0.001,0-0.001,0c-1.001-0.238-1.717-0.86-1.717-1.591v-1.127
			c0-0.357,0.172-0.688,0.465-0.958c0.651,0.754,1.669,1.239,2.812,1.239h16.356v0.846c0,0.505-0.341,0.957-0.881,1.268H8.294
			C7.735,186.537,7.207,186.653,6.736,186.86z"/>
		<path fill="#1B1026" d="M5.483,183.184c0.473-0.441,1.26-0.73,2.152-0.73h14.398c1.445,0,2.617,0.759,2.617,1.689v0.281H8.294
			C7.152,184.424,6.134,183.938,5.483,183.184L5.483,183.184z"/>
		<path fill="#FFFFFF" d="M31.463,181.211c0,1.775-1.596,3.213-3.564,3.213h-3.249v-0.281c0-0.931-1.172-1.689-2.617-1.689H7.635
			c-0.893,0-1.68,0.289-2.152,0.73c-0.473-0.545-0.752-1.229-0.752-1.973v-2.141c0-1.354,0.93-2.513,2.244-2.985h0.001
			c0.21,0.036,0.431,0.055,0.659,0.055h14.398c0.536,0,1.034-0.104,1.448-0.283h4.418c1.968,0,3.564,1.438,3.564,3.214V181.211z"/>
		<path fill="#FFFFFF" d="M24.651,162.502c0-0.938-1.172-1.695-2.617-1.695H7.635c-0.978,0-1.83,0.347-2.279,0.862
			c-0.396-0.516-0.626-1.142-0.626-1.817v-2.143c0-1.775,1.596-3.213,3.564-3.213h13.739h5.866c1.968,0,3.564,1.438,3.564,3.213
			v2.143c0,1.775-1.596,3.212-3.564,3.212h-3.249V162.502z"/>
		<path fill="#1B1026" d="M22.034,171.631c1.445,0,2.617,0.755,2.617,1.688v0.425H8.294c-1.183,0-2.231-0.519-2.878-1.318v-0.001
			c0.462-0.477,1.284-0.794,2.219-0.794H22.034z"/>
		<path fill="#1B1026" d="M5.356,161.669c0.449-0.516,1.301-0.862,2.279-0.862h14.398c1.445,0,2.617,0.758,2.617,1.695v0.562H8.294
			C7.075,163.063,5.999,162.512,5.356,161.669z"/>
		<path fill="#1B1026" d="M24.651,174.448c0,0.587-0.465,1.105-1.169,1.408H8.294c-0.466,0-0.911,0.08-1.318,0.229H6.975
			c-1.125-0.189-1.957-0.852-1.957-1.637v-1.129c0-0.328,0.145-0.637,0.398-0.894c0.647,0.8,1.695,1.318,2.878,1.318h16.356V174.448
			z"/>
		<path fill="#1B1026" d="M24.651,163.626c0,0.693-0.645,1.288-1.566,1.55H8.294c-0.345,0-0.678,0.044-0.992,0.128H7.301
			c-1.288-0.105-2.283-0.817-2.283-1.678v-1.124c0-0.304,0.123-0.588,0.338-0.833c0.642,0.843,1.718,1.395,2.938,1.395h16.356
			V163.626z"/>
	</g>
	<g>
	</g>
</g>
<g>
	<g>
		
			<ellipse transform="matrix(-0.9486 0.3164 -0.3164 -0.9486 35.8643 51.5224)" fill="#72113C" cx="13.75" cy="28.672" rx="2.391" ry="1.957"/>
		
			<ellipse transform="matrix(-0.9487 0.3163 -0.3163 -0.9487 48.027 44.4757)" fill="#72113C" cx="20.404" cy="26.135" rx="2.391" ry="1.957"/>
		<polyline fill="#72113C" points="13.75,26.682 13.75,18.13 22.354,14.98 22.354,24.789 20.009,26.667 20.009,18.339 
			16.101,19.808 16.101,28.672 		"/>
	</g>
</g>
<g>
	
		<ellipse transform="matrix(-0.9486 0.3164 -0.3164 -0.9486 169.5763 159.3108)" fill="#F44A90" cx="71.856" cy="93.421" rx="3.216" ry="2.633"/>
	
		<ellipse transform="matrix(-0.9487 0.3163 -0.3163 -0.9487 185.9362 149.8378)" fill="#F44A90" cx="80.809" cy="90.008" rx="3.216" ry="2.633"/>
	<polyline fill="#F44A90" points="71.856,90.743 71.856,79.238 83.432,75 83.432,88.196 80.277,90.722 80.277,79.519 75.019,81.495 
		75.019,93.42 	"/>
</g>
<g id="XMLID_8_">
	<g>
		<ellipse fill="#483C6B" cx="90.325" cy="34.308" rx="4.679" ry="4.215"/>
		<path fill="#EC1463" d="M101.62,34.309c0,5.621-5.056,10.178-11.295,10.178c-6.234,0-11.292-4.558-11.292-10.178
			c0-5.622,5.058-10.179,11.292-10.179C96.564,24.129,101.62,28.687,101.62,34.309z M95.004,34.309c0-2.327-2.095-4.215-4.679-4.215
			c-2.583,0-4.674,1.889-4.674,4.215s2.091,4.214,4.674,4.214C92.909,38.522,95.004,36.635,95.004,34.309z"/>
		<path fill="#1C3445" d="M77.912,41.518c-0.125-0.173-0.245-0.349-0.359-0.529C77.682,41.157,77.802,41.333,77.912,41.518z"/>
		<path fill="#E3C021" d="M77.917,41.524c-0.002-0.002-0.004-0.004-0.005-0.006c-0.11-0.185-0.23-0.361-0.359-0.529
			c-0.003-0.003-0.006-0.007-0.007-0.011c-1.264-1.96-1.987-4.239-1.987-6.67c0-1.473,0.266-2.89,0.757-4.214L77.917,41.524z"/>
		<path fill="#E3C021" d="M77.917,41.524l-1.602-11.43c0-0.001,0-0.001,0-0.001C78.271,24.809,83.807,21,90.325,21
			c8.157,0,14.771,5.957,14.771,13.309c0,7.351-6.613,13.309-14.771,13.309c-5.202,0-9.777-2.426-12.408-6.092V41.524z
			 M101.62,34.309c0-5.622-5.056-10.179-11.295-10.179c-6.234,0-11.292,4.558-11.292,10.179c0,5.621,5.058,10.178,11.292,10.178
			C96.564,44.487,101.62,39.929,101.62,34.309z"/>
		<path fill="#E3C021" d="M77.546,40.979c-3.755-4.871-15.053-2.663-15.99-2.469l-0.065,0.013l-4.527-4.955
			c9.813-1.209,19.352-3.475,19.352-3.475s0,0,0,0.001c-0.491,1.324-0.757,2.741-0.757,4.214
			C75.559,36.739,76.282,39.018,77.546,40.979z"/>
		<path fill="#E3C021" d="M11.511,34.309h13.536V34.4h1.321v-0.092h5.882V34.4h1.32v-0.092h5.883V34.4h1.321v-0.092h5.814
			c0.022,0,0.045,0,0.068,0V34.4h1.32v-0.11c2.835-0.069,5.925-0.344,8.989-0.722l4.527,4.955l0.065-0.013
			c0.337-0.045,1.885,0.069,1.885,5.978c0,6.631-8.575,8.472-8.575,8.472s-15.587,0-23.77,0c-8.184,0-15.588-1.055-16.554-5.341
			c-0.967-4.287,1.199-9.095,1.199-9.095h-4.23V34.309z M55.874,47.779v-9.455c0-0.883-0.715-1.6-1.599-1.6H20.614
			c-0.882,0-1.598,0.716-1.598,1.6v9.455c0,0.882,0.716,1.597,1.598,1.597h33.661C55.159,49.376,55.874,48.661,55.874,47.779z"/>
		<path fill="#57396B" d="M48.856,26.862c0.729,0,1.32,0.533,1.32,1.189c0,0.658-0.591,1.192-1.32,1.192h-0.882h-1.32h-0.661
			c-0.73,0-1.321-0.534-1.321-1.192c0-0.328,0.148-0.626,0.386-0.84c0.24-0.216,0.57-0.349,0.935-0.349H48.856z"/>
		<path fill="#57396B" d="M47.975,34.29v0.11h-1.32v-0.092C47.087,34.309,47.528,34.302,47.975,34.29z"/>
		<path fill="#E3C021" d="M46.655,34.309v-5.065h1.32v5.046C47.528,34.302,47.087,34.309,46.655,34.309z"/>
		<path fill="#57396B" d="M41.653,26.862c0.729,0,1.32,0.533,1.32,1.189c0,0.658-0.592,1.192-1.32,1.192h-0.88h-1.321h-0.661
			c-0.73,0-1.32-0.534-1.32-1.192c0-0.328,0.147-0.626,0.386-0.84c0.238-0.216,0.568-0.349,0.934-0.349H41.653z"/>
		<rect x="39.452" y="34.309" fill="#57396B" width="1.321" height="0.092"/>
		<rect x="39.452" y="29.244" fill="#E3C021" width="1.321" height="5.065"/>
		<path fill="#57396B" d="M34.451,26.862c0.729,0,1.32,0.533,1.32,1.189c0,0.658-0.591,1.192-1.32,1.192h-0.881h-1.32h-0.661
			c-0.73,0-1.321-0.534-1.321-1.192c0-0.328,0.148-0.626,0.386-0.84c0.24-0.216,0.57-0.349,0.935-0.349H34.451z"/>
		<rect x="32.25" y="34.309" fill="#57396B" width="1.32" height="0.092"/>
		<rect x="32.25" y="29.244" fill="#E3C021" width="1.32" height="5.065"/>
		<path fill="#57396B" d="M27.248,26.862c0.729,0,1.32,0.533,1.32,1.189c0,0.658-0.591,1.192-1.32,1.192h-0.88h-1.321h-0.661
			c-0.729,0-1.32-0.534-1.32-1.192c0-0.328,0.148-0.626,0.386-0.84c0.239-0.216,0.569-0.349,0.934-0.349H27.248z"/>
		<rect x="25.046" y="34.309" fill="#57396B" width="1.321" height="0.092"/>
		<rect x="25.046" y="29.244" fill="#E3C021" width="1.321" height="5.065"/>
		<polygon fill="#EC1463" points="11.511,34.309 11.511,38.522 7.282,41.527 7.282,31.534 		"/>
	</g>
	<g>
	</g>
</g>
<g id="XMLID_4_">
	<g>
		<path fill="#2F1132" d="M113.969,164.693c0.198,0.377,11.092,21.297-16.464,21.297c-0.219,0-0.436-0.001-0.649-0.005l1.375-0.4
			C122.268,185.585,114.122,165.074,113.969,164.693z"/>
		<path fill="#72113C" d="M110.665,151.289c0,0-3.942,3.756-3.942,6.65c0,2.901,7.243,6.748,7.243,6.748s0,0.001,0.002,0.004
			c0.044,0.306,2.892,20.041-15.37,20.041c-2.657,0-4.901-0.419-6.798-1.135c0.534,0.066,1.079,0.101,1.633,0.101
			c6.527,0,11.818-4.77,11.818-10.652c0-1.114-0.189-2.188-0.543-3.197c1.353-0.564,2.289-1.798,2.289-3.228
			c0-1.967-1.77-3.561-3.952-3.561c-1.172,0-2.225,0.459-2.946,1.19c-0.027-0.019-0.056-0.036-0.085-0.054
			c-0.802-0.486-1.674-0.886-2.602-1.184c-0.828-0.268-1.697-0.453-2.601-0.548c-0.451-0.048-0.912-0.071-1.379-0.071
			c-5.514,0-10.146,3.404-11.451,8.008c-0.518-2.846-0.448-5.125-0.424-5.632c1.819-1.053,6.543-4.011,6.543-6.352
			c0-2.901-3.941-6.655-3.941-6.655l6.539-6.789c0,0,0-2.973,0-7.406c0-4.432,5.491-4.473,5.491-4.473v-6.647h2.444v6.174
			c0,0,5.49,0.035,5.49,4.47c0,4.434,0,7.409,0,7.409L110.665,151.289z"/>
		<path fill="#2F1132" d="M104.708,169.849c-0.802-2.302-2.446-4.266-4.609-5.598c0.722-0.731,1.774-1.19,2.946-1.19
			c2.183,0,3.952,1.594,3.952,3.561C106.997,168.051,106.061,169.284,104.708,169.849z"/>
		<path fill="#610C36" d="M105.878,118.682c1.197,0,2.168,0.778,2.168,1.741s-0.971,1.744-2.168,1.744h-3.087v-3.485H105.878z"/>
		<path fill="#610C36" d="M102.791,118.173v-3.483h3.087c1.197,0,2.168,0.779,2.168,1.741c0,0.961-0.971,1.742-2.168,1.742H102.791z
			"/>
		<path fill="#72113C" d="M100.014,165.116v-0.776v-0.001c0.028-0.031,0.056-0.061,0.085-0.088c2.163,1.332,3.808,3.296,4.609,5.598
			c-0.13,0.056-0.265,0.105-0.403,0.146C103.927,167.772,102.261,165.932,100.014,165.116z"/>
		<path fill="#FFFFFF" d="M99.606,173.016c0-1.705-0.853-3.231-2.194-4.251v-1.624c0.646,0,1.259,0.131,1.807,0.365
			c0.149,0.521,0.423,0.995,0.795,1.395v0.001c0.392,0.424,0.891,0.764,1.46,0.984v0.001c0.109,0.339,0.168,0.695,0.168,1.066
			c0,1.442-0.89,2.696-2.2,3.344C99.549,173.886,99.606,173.457,99.606,173.016z"/>
		<path fill="#FFFFFF" d="M100.014,168.9v-0.952c0.691,0.484,1.209,1.16,1.46,1.938C100.904,169.665,100.405,169.325,100.014,168.9
			L100.014,168.9z"/>
		<path fill="#E4C021" d="M100.014,165.116c2.247,0.815,3.913,2.656,4.291,4.878c0,0.001,0,0.001,0,0.001
			c-0.396,0.12-0.819,0.186-1.26,0.186c-0.558,0-1.09-0.104-1.571-0.294v-0.001c-0.251-0.777-0.769-1.453-1.46-1.938V165.116z"/>
		<path fill="#1C3445" d="M100.014,164.34v0.776c-0.151-0.056-0.307-0.106-0.465-0.151
			C99.678,164.741,99.835,164.532,100.014,164.34z"/>
		<path fill="#1C3445" d="M100.099,164.251c-0.029,0.027-0.057,0.057-0.085,0.088v-0.142
			C100.043,164.215,100.071,164.232,100.099,164.251z"/>
		<path fill="#E4C021" d="M99.219,167.506c-0.08-0.282-0.123-0.579-0.123-0.885c0-0.598,0.164-1.161,0.453-1.656
			c0.158,0.045,0.313,0.096,0.465,0.151v2.832C99.769,167.774,99.502,167.626,99.219,167.506z"/>
		<path fill="#E4C021" d="M99.441,174.297c1.311-0.647,2.2-1.901,2.2-3.344c0-0.371-0.059-0.728-0.168-1.066
			c0.481,0.189,1.014,0.294,1.571,0.294c0.44,0,0.864-0.065,1.26-0.186c0.052,0.313,0.08,0.633,0.08,0.958
			c0,3.461-3.098,6.265-6.931,6.284C98.428,176.483,99.138,175.462,99.441,174.297L99.441,174.297z"/>
		<path fill="#FFFFFF" d="M100.014,168.9c-0.372-0.399-0.646-0.874-0.795-1.395c0.283,0.12,0.55,0.269,0.795,0.442V168.9z"/>
		<path fill="#2F1132" d="M98.634,126.051h1.015c-0.25,0.244-0.609,0.397-1.009,0.397h-0.006V126.051z"/>
		<polygon fill="#2F1132" points="96.718,126.051 98.634,125.678 98.634,126.051 		"/>
		<path fill="#E4C021" d="M97.412,177.237c-3.853,0-6.975-2.812-6.975-6.284c0-1.164,0.352-2.255,0.965-3.19l0.001-0.001
			c0.635-0.201,1.318-0.31,2.029-0.31c0.475,0,0.936,0.048,1.379,0.141v0.355c-0.991,0.696-1.628,1.783-1.628,3.005
			c0,2.104,1.893,3.81,4.229,3.81c0.735,0,1.427-0.169,2.029-0.465c-0.304,1.164-1.014,2.186-1.987,2.939
			C97.44,177.237,97.426,177.237,97.412,177.237z"/>
		<path fill="#FFFFFF" d="M97.412,167.141v1.624c-0.634-0.483-1.377-0.853-2.19-1.073C95.861,167.342,96.61,167.141,97.412,167.141z
			"/>
		<path fill="#E4C021" d="M99.549,164.965c-0.289,0.495-0.453,1.059-0.453,1.656c0,0.306,0.043,0.603,0.123,0.885
			c-0.548-0.234-1.16-0.365-1.807-0.365v-2.477C98.158,164.664,98.876,164.769,99.549,164.965z"/>
		<path fill="#72113C" d="M97.412,164.664v-1.65c0.928,0.298,1.8,0.697,2.602,1.184v0.142v0.001
			c-0.179,0.192-0.336,0.401-0.465,0.625C98.876,164.769,98.158,164.664,97.412,164.664z"/>
		<path fill="#FFFFFF" d="M95.222,167.691c0.813,0.221,1.557,0.59,2.19,1.073c1.342,1.02,2.194,2.546,2.194,4.251
			c0,0.441-0.058,0.87-0.165,1.281v0.001c-0.603,0.296-1.294,0.465-2.029,0.465c-2.336,0-4.229-1.706-4.229-3.81
			c0-1.222,0.637-2.309,1.628-3.005C94.942,167.854,95.078,167.77,95.222,167.691C95.222,167.691,95.222,167.691,95.222,167.691z"/>
		<path fill="#2F1132" d="M99.648,126.051h-1.015v-0.373l-1.916,0.373h-0.005h-1.538c-0.227-0.222-0.363-0.516-0.363-0.838
			c0-0.341,0.153-0.65,0.402-0.874c0.247-0.224,0.59-0.362,0.97-0.362h2.456c0.758,0,1.374,0.553,1.374,1.236
			C100.014,125.535,99.875,125.829,99.648,126.051z"/>
		<polygon fill="#2F1132" points="96.189,126.448 96.189,126.153 96.713,126.051 96.718,126.051 98.634,126.051 98.634,126.448 		
			"/>
		<path fill="#2F1132" d="M96.189,126.153v0.295h-0.006c-0.4,0-0.758-0.153-1.009-0.397h1.538L96.189,126.153z"/>
		<path fill="#E4C021" d="M94.812,167.948v-0.355c0.139,0.027,0.274,0.06,0.409,0.099C95.078,167.77,94.942,167.854,94.812,167.948z
			"/>
		<path fill="#E4C021" d="M94.812,167.593v-2.477c0.803-0.291,1.682-0.452,2.601-0.452v2.477c-0.802,0-1.551,0.201-2.19,0.551
			c0,0,0,0-0.001,0C95.086,167.652,94.95,167.62,94.812,167.593z"/>
		<path fill="#E4C021" d="M91.403,167.762c0.776-1.188,1.974-2.126,3.408-2.646v2.477c-0.443-0.093-0.904-0.141-1.379-0.141
			C92.722,167.452,92.038,167.561,91.403,167.762z"/>
		<path fill="#72113C" d="M94.812,162.466c0.903,0.095,1.772,0.28,2.601,0.548v1.65c-0.919,0-1.798,0.161-2.601,0.452V162.466z"/>
		<path fill="#2F1132" d="M95.149,126.051c-1.723,0-3.117-0.873-3.117-1.951v-1.933h10.759v1.933c0,1.078-1.395,1.951-3.115,1.951
			h-0.027c0.227-0.222,0.365-0.516,0.365-0.838c0-0.684-0.616-1.236-1.374-1.236h-2.456c-0.38,0-0.723,0.139-0.97,0.362
			c-0.249,0.224-0.402,0.533-0.402,0.874c0,0.322,0.137,0.616,0.363,0.838H95.149z"/>
		<rect x="92.032" y="118.682" fill="#FFFFFF" width="10.759" height="3.485"/>
		<rect x="92.032" y="118.173" fill="#2F1132" width="10.759" height="0.509"/>
		<rect x="92.032" y="114.689" fill="#FFFFFF" width="10.759" height="3.483"/>
		<path fill="#2F1132" d="M92.032,112.241c0-1.077,1.395-1.948,3.117-1.948h4.526c1.721,0,3.115,0.871,3.115,1.948v2.448H92.032
			V112.241z"/>
		<path fill="#610C36" d="M89.75,122.167c-1.198,0-2.169-0.781-2.169-1.744c0-0.481,0.242-0.916,0.635-1.231
			c0.394-0.315,0.936-0.51,1.534-0.51h2.282v3.485H89.75z"/>
		<path fill="#72113C" d="M91.402,167.763c-2.411,0.755-4.142,2.823-4.142,5.253c0,3.074,2.764,5.564,6.172,5.564
			c1.536,0,2.941-0.506,4.021-1.343c3.833-0.02,6.931-2.823,6.931-6.284c0-0.325-0.028-0.646-0.08-0.958c0,0,0,0,0-0.001
			c0.139-0.04,0.273-0.09,0.403-0.146c0.354,1.01,0.543,2.083,0.543,3.197c0,5.883-5.291,10.652-11.818,10.652
			c-0.554,0-1.099-0.034-1.633-0.101c-0.001,0-0.002,0-0.004-0.002c-6.6-2.49-8.977-8.585-9.814-13.191v-0.002
			c1.306-4.604,5.938-8.008,11.451-8.008c0.467,0,0.928,0.023,1.379,0.071v2.65C93.377,165.636,92.18,166.573,91.402,167.763
			L91.402,167.763z"/>
		<path fill="#2F1132" d="M91.796,183.596c-5.752-0.718-10.181-5.167-10.181-10.55c0-0.912,0.127-1.798,0.366-2.642
			C82.819,175.011,85.196,181.105,91.796,183.596z"/>
		<path fill="#72113C" d="M87.261,173.016c0-2.43,1.73-4.498,4.142-5.253c-0.613,0.936-0.965,2.026-0.965,3.19
			c0,3.473,3.122,6.284,6.975,6.284c0.014,0,0.028,0,0.042,0c-1.08,0.837-2.485,1.343-4.021,1.343
			C90.024,178.58,87.261,176.09,87.261,173.016z"/>
		<path fill="#610C36" d="M89.75,118.173c-1.198,0-2.169-0.781-2.169-1.742c0-0.481,0.242-0.917,0.635-1.231
			c0.394-0.315,0.936-0.51,1.534-0.51h2.282v3.483H89.75z"/>
		<path fill="#2F1132" d="M81.563,164.665c-0.001,0.009-0.003,0.044-0.006,0.105c-0.02,0.012-0.038,0.022-0.057,0.033
			C81.538,164.718,81.561,164.67,81.563,164.665z"/>
		<path fill="#2F1132" d="M96.855,185.985c-23.939-0.336-16.159-19.354-15.356-21.181c0,0,0-0.001,0.002-0.001
			c0.019-0.011,0.037-0.021,0.057-0.033c-0.024,0.507-0.094,2.786,0.424,5.632v0.002c-0.239,0.844-0.366,1.729-0.366,2.642
			c0,5.383,4.429,9.832,10.181,10.55c0.002,0.002,0.003,0.002,0.004,0.002c1.896,0.716,4.141,1.135,6.798,1.135
			c18.262,0,15.414-19.735,15.37-20.041c0,0,0,0.002,0.001,0.002c0.153,0.381,8.299,20.892-15.738,20.892L96.855,185.985z"/>
		<path fill="#1C3445" d="M81.499,164.805c-0.803,1.827-8.583,20.845,15.356,21.181l-0.264,0.077
			c-24.26,0-15.737-20.898-15.737-20.898S81.1,165.034,81.499,164.805z"/>
	</g>
	<g>
		<polyline fill="none" stroke="#FCF8F7" stroke-linecap="round" stroke-miterlimit="10" points="94.812,142.863 94.812,162.466 
			94.812,165.116 94.812,167.593 94.812,167.948 94.812,173.016 		"/>
		<polyline fill="none" stroke="#FCF8F7" stroke-linecap="round" stroke-miterlimit="10" points="97.412,142.863 97.412,163.014 
			97.412,164.664 97.412,167.141 97.412,168.765 97.412,173.016 		"/>
		
			<line fill="none" stroke="#FCF8F7" stroke-linecap="round" stroke-miterlimit="10" x1="100.014" y1="168.901" x2="100.014" y2="173.016"/>
		<polyline fill="none" stroke="#FCF8F7" stroke-linecap="round" stroke-miterlimit="10" points="100.014,164.34 100.014,165.116 
			100.014,167.948 100.014,168.9 		"/>
		<polyline fill="none" stroke="#FCF8F7" stroke-linecap="round" stroke-miterlimit="10" points="100.014,142.863 100.014,164.197 
			100.014,164.339 		"/>
	</g>
</g>
<g id="XMLID_2_">
	<g>
		<path fill="#991D55" d="M82.693,118.334v16.855c0,1.551-1.395,2.809-3.117,2.809H58.792c-1.721,0-3.117-1.258-3.117-2.809v-16.855
			c0-1.551,1.396-2.811,3.117-2.811h20.785c0.176,0,0.348,0.014,0.515,0.038c-0.234,0.573-0.526,1.083-0.787,1.481
			c-0.212-0.043-0.432-0.063-0.658-0.063c-1.175,0-2.195,0.592-2.712,1.465c0,0,0,0-0.001,0c-1.892-1.25-4.225-1.987-6.749-1.987
			c-6.313,0-11.432,4.613-11.432,10.303c0,5.691,5.12,10.305,11.432,10.305c6.313,0,11.432-4.613,11.432-10.305
			c0-1.56-0.385-3.037-1.073-4.361c1.261-0.345,2.179-1.402,2.179-2.65c0-0.636-0.235-1.22-0.634-1.687
			c0.486-0.305,0.904-0.646,1.26-1.014h0.001C82.569,117.434,82.693,117.87,82.693,118.334z"/>
		<path fill="#E4C021" d="M75.174,105.955c7.367-0.223,11.089,7.054,7.174,11.093h-0.001c-0.44-0.773-1.27-1.338-2.256-1.486
			c0.784-1.908,0.934-4.518-2.854-6.055c-6.494-2.636-18.034,1.624-18.034,1.624l0.001-0.004c3.132-2.74,5.079-6.575,5.079-10.821
			C64.283,100.306,66.613,106.212,75.174,105.955z"/>
		<path fill="#72113C" d="M80.091,115.562c0.986,0.148,1.815,0.713,2.256,1.486c-0.355,0.368-0.773,0.709-1.26,1.014h-0.001
			c-0.435-0.509-1.061-0.877-1.782-1.019C79.564,116.645,79.856,116.135,80.091,115.562z"/>
		<path fill="#72113C" d="M81.087,118.062c0.398,0.467,0.634,1.051,0.634,1.687c0,1.248-0.918,2.306-2.179,2.65
			c-0.818-1.577-2.065-2.936-3.608-3.954c0.517-0.873,1.537-1.465,2.712-1.465c0.227,0,0.446,0.021,0.658,0.063
			c-0.359,0.553-0.658,0.893-0.658,0.893l1.188,0.773C80.292,118.518,80.709,118.302,81.087,118.062L81.087,118.062z"/>
		<path fill="#72113C" d="M79.304,117.043c0.722,0.142,1.348,0.51,1.782,1.019c-0.377,0.24-0.794,0.456-1.252,0.647l-1.188-0.773
			C78.646,117.936,78.944,117.596,79.304,117.043z"/>
		<path fill="#2F1132" d="M79.542,122.398c0.688,1.324,1.073,2.802,1.073,4.361c0,5.691-5.118,10.305-11.432,10.305
			c-6.313,0-11.432-4.613-11.432-10.305c0-5.689,5.12-10.303,11.432-10.303c2.524,0,4.857,0.737,6.749,1.987
			c-0.229,0.389-0.359,0.832-0.359,1.304c0,1.529,1.374,2.771,3.072,2.771C78.957,122.519,79.258,122.477,79.542,122.398z
			 M74.389,126.76c0-2.59-2.33-4.689-5.205-4.689c-2.874,0-5.204,2.1-5.204,4.689c0,2.594,2.33,4.691,5.204,4.691
			C72.059,131.451,74.389,129.354,74.389,126.76z"/>
		<path fill="#72113C" d="M79.542,122.398c-0.284,0.078-0.585,0.12-0.896,0.12c-1.698,0-3.072-1.241-3.072-2.771
			c0-0.472,0.13-0.915,0.359-1.304c0.001,0,0.001,0,0.001,0C77.477,119.463,78.724,120.821,79.542,122.398z"/>
		<path fill="#E4C021" d="M69.184,122.07c2.875,0,5.205,2.1,5.205,4.689c0,2.594-2.33,4.691-5.205,4.691
			c-2.874,0-5.204-2.098-5.204-4.691C63.979,124.17,66.31,122.07,69.184,122.07z"/>
		<path fill="#E4C021" d="M64.254,99.417c0.02,0.294,0.029,0.59,0.029,0.889c0,4.246-1.946,8.081-5.079,10.821L64.254,99.417z"/>
		<path fill="#E4C021" d="M64.254,99.417l-5.049,11.71c-3.014,2.639-7.125,4.263-11.658,4.263c-9.244,0-16.737-6.753-16.737-15.084
			s7.493-15.083,16.737-15.083C56.458,85.222,63.743,91.499,64.254,99.417z M60.344,100.306c0-6.369-5.729-11.537-12.798-11.537
			c-7.069,0-12.8,5.167-12.8,11.537c0,6.371,5.731,11.538,12.8,11.538C54.615,111.844,60.344,106.677,60.344,100.306z"/>
		<ellipse fill="#72113C" cx="51.47" cy="100.306" rx="8.517" ry="7.679"/>
		<path fill="#EC1463" d="M47.546,88.769c7.068,0,12.798,5.167,12.798,11.537c0,6.371-5.729,11.538-12.798,11.538
			c-7.069,0-12.8-5.167-12.8-11.538C34.746,93.937,40.477,88.769,47.546,88.769z M59.987,100.306c0-4.241-3.812-7.678-8.517-7.678
			c-4.704,0-8.519,3.438-8.519,7.678c0,4.242,3.814,7.68,8.519,7.68C56.176,107.985,59.987,104.548,59.987,100.306z"/>
	</g>
	<g>
	</g>
</g>
<rect x="56.327" y="51.96" fill="#1B1026" width="1.297" height="36.157"/>
<rect x="21.563" y="51.723" fill="#1B1026" width="36.157" height="1.297"/>
<g id="XMLID_1_">
	<g>
		<path fill="#991D55" d="M30.89,52.257v15.385h-5.566V52.05c0,0-1.284-2.912,2.998-2.912C28.322,49.138,30.89,49.554,30.89,52.257z
			"/>
		<path fill="#610C36" d="M20.962,58.989c3.72,0,2.89,2.806,2.89,2.806v5.848h-5.808V61.82
			C18.045,61.82,17.243,58.989,20.962,58.989z"/>
		<path fill="#991D55" d="M23.397,90.167c-0.654,0.172-1.366,0.299-2.14,0.372V75.542H10.553c-7.279-2.288-2.141-7.899-2.141-7.899
			h2.141h5.486h2.006h5.808h1.472h5.566V79.7C30.89,79.7,31.219,88.116,23.397,90.167z"/>
		<path fill="#610C36" d="M16.039,61.274v6.368h-5.486V60.78c0,0-0.588-2.416,2.489-2.416S16.039,61.274,16.039,61.274z"/>
		<rect x="10.224" y="104.23" fill="#2F1132" width="13.174" height="11.434"/>
		<path fill="#72113C" d="M23.397,90.167v14.064H10.224V89.699c2.494,0.638,5.625,0.914,9.426,0.914
			c0.564,0,1.099-0.025,1.608-0.075C22.032,90.465,22.744,90.338,23.397,90.167z"/>
		<path fill="#610C36" d="M10.224,89.699c-5.162-1.32-7.597-4.191-7.597-9.376c0-7.693,0.005-27.649,0.005-27.649
			s-0.216-2.599,2.675-2.599c2.892,0,3.105,3.014,3.105,3.014v14.553c0,0-5.138,5.612,2.141,7.899h10.705v14.997
			c-0.509,0.049-1.044,0.075-1.608,0.075C15.849,90.613,12.718,90.337,10.224,89.699z"/>
	</g>
	<g>
	</g>
</g>
<circle fill="#FFFFFF" cx="65" cy="106.333" r="1.834"/>
<polygon fill="#E3C021" points="47.63,4.615 49.779,8.969 54.583,9.667 51.107,13.055 51.927,17.84 47.63,15.581 43.333,17.84 
	44.154,13.055 40.678,9.667 45.482,8.969 "/>
<polygon fill="#483C6B" points="109.333,46.009 110.507,48.388 113.132,48.769 111.232,50.62 111.681,53.234 109.333,52 
	106.985,53.234 107.434,50.62 105.534,48.769 108.159,48.388 "/>
<polygon fill="#E3C021" points="69.768,147.057 70.941,149.435 73.566,149.816 71.667,151.667 72.115,154.281 69.768,153.047 
	67.42,154.281 67.868,151.667 65.969,149.816 68.594,149.435 "/>
</svg>
