<?xml version="1.0" encoding="utf-8"?>
<!-- Generator: Adobe Illustrator 16.0.3, SVG Export Plug-In . SVG Version: 6.00 Build 0)  -->
<!DOCTYPE svg PUBLIC "-//W3C//DTD SVG 1.1//EN" "http://www.w3.org/Graphics/SVG/1.1/DTD/svg11.dtd">
<svg version="1.1" id="Layer_1" xmlns="http://www.w3.org/2000/svg" xmlns:xlink="http://www.w3.org/1999/xlink" x="0px" y="0px"
	 width="120px" height="200px" viewBox="0 0 120 200" enable-background="new 0 0 120 200" xml:space="preserve">
<rect x="57.179" y="73.747" fill="#E3C021" width="26.899" height="3.47"/>
<rect x="74.04" y="193.798" fill="#EC1463" width="33.331" height="3.209"/>
<g>
	<g id="XMLID_7_">
		<g>
			<path fill="#610C36" d="M95.764,47.581c-0.003,0.005-0.006,0.01-0.01,0.016L95.764,47.581L95.764,47.581z"/>
			<path fill="#401310" d="M95.401,53.919l-0.526-1.584C95.144,52.755,95.38,53.295,95.401,53.919z"/>
			<path fill="#610C36" d="M95.401,53.919c-0.021-0.624-0.258-1.164-0.526-1.584l5.401-0.283l0.152,1.082l-5.027,0.788V53.919z"/>
			<path fill="#610C36" d="M94.938,49.138l0.813-1.536l0.003-0.006c0.004-0.005,0.007-0.011,0.01-0.016h0.001l4.794-0.3
				l-0.594,1.254l-5.111,1C94.883,49.392,94.911,49.258,94.938,49.138z"/>
			<path fill="#401310" d="M94.938,49.138c-0.027,0.12-0.056,0.253-0.085,0.397l-0.139,0.027L94.938,49.138z"/>
			<path fill="#1B1026" d="M94.382,97.037c0.656-1.191,0.116-2.637-1.205-3.229c-0.299-0.135-0.614-0.214-0.928-0.241l0.018-0.769
				c0.437,0.031,0.873,0.137,1.289,0.323c1.741,0.781,2.455,2.687,1.589,4.257c-0.595,1.077-1.777,1.718-3.023,1.76l0.018-0.771
				C93.065,98.32,93.938,97.838,94.382,97.037z"/>
			<path fill="#1B1026" d="M93.177,93.807c1.321,0.592,1.861,2.038,1.205,3.229c-0.443,0.802-1.316,1.284-2.243,1.33l0.11-4.801
				C92.563,93.593,92.878,93.672,93.177,93.807z"/>
			<path fill="#F8F3A9" d="M92.249,93.566c-0.29-0.026-0.579-0.009-0.858,0.049l0.037-0.787c0.275-0.04,0.557-0.052,0.839-0.031
				L92.249,93.566z"/>
			<path fill="#483C6B" d="M104.15,99.049c-1.709,5.82-5.077,8.532-8.527,9.352c0,0,1.191,1.714-2.094,2.437l-1.72,2.78
				l-3.916-5.133c0,0-9.312-2.822-7.906-10.129c1.406-7.309,5.229-9.481,8.378-10.096c0,0-0.081-2.232,1.72-3.115l1.043-2.233
				l2.774-0.278l0.607,2.298c0,0,3.232,2.293,2.412,3.783C96.922,88.716,105.863,93.23,104.15,99.049z M95.145,97.377
				c0.866-1.57,0.152-3.476-1.589-4.257c-0.416-0.186-0.853-0.292-1.289-0.323c-0.282-0.021-0.563-0.009-0.839,0.031
				c-1.083,0.158-2.069,0.769-2.596,1.721c-0.866,1.571-0.153,3.479,1.588,4.257c0.233,0.104,0.473,0.184,0.715,0.239
				c0.326,0.074,0.659,0.104,0.986,0.092C93.367,99.095,94.55,98.454,95.145,97.377z"/>
			<path fill="#72113C" d="M91.391,93.615c-0.752,0.157-1.424,0.603-1.795,1.275c-0.658,1.195-0.117,2.639,1.203,3.228
				c0.122,0.055,0.246,0.101,0.373,0.137l-0.037,0.79c-0.242-0.056-0.481-0.135-0.715-0.239c-1.741-0.778-2.454-2.686-1.588-4.257
				c0.526-0.952,1.513-1.563,2.596-1.721L91.391,93.615z"/>
			<path fill="#F8F3A9" d="M92.121,99.137c-0.327,0.012-0.66-0.019-0.986-0.092l0.037-0.79c0.318,0.093,0.646,0.129,0.967,0.111
				L92.121,99.137z"/>
			<path fill="#1B1026" d="M92.139,98.367c-0.32,0.018-0.648-0.019-0.967-0.111l0.219-4.64c0.279-0.058,0.568-0.076,0.858-0.049
				L92.139,98.367z"/>
			<path fill="#682224" d="M91.43,55.52c-0.664-0.3-0.936-1.025-0.602-1.621c0.329-0.599,1.133-0.842,1.797-0.546
				c0.665,0.298,0.933,1.023,0.605,1.624C92.898,55.575,92.095,55.819,91.43,55.52z"/>
			<path fill="#1B1026" d="M91.172,98.255c-0.127-0.036-0.251-0.082-0.373-0.137c-1.32-0.589-1.861-2.033-1.203-3.228
				c0.371-0.672,1.043-1.118,1.795-1.275L91.172,98.255z"/>
			<path fill="#401310" d="M89.527,53.32c0.061-0.518,0.266-1.093,0.689-1.72l-0.687,1.72H89.527z"/>
			<path fill="#610C36" d="M93.23,54.977c0.327-0.601,0.06-1.326-0.605-1.624c-0.664-0.295-1.468-0.053-1.797,0.546
				c-0.334,0.596-0.063,1.321,0.602,1.621C92.095,55.819,92.898,55.575,93.23,54.977z M94.252,44.963c0,0,3.384-0.46,1.513,2.618
				h-0.001h-0.001l-0.009,0.016l-0.003,0.006c-0.174,0.284-0.393,0.598-0.663,0.945c0,0-0.067,0.235-0.149,0.591l-0.224,0.424
				l0.139-0.027c-0.184,0.914-0.352,2.216,0.021,2.799l0.526,1.584v0.002c0.027,0.776-0.279,1.68-1.273,2.64l-0.226,26.074
				l-2.774,0.278l0.002-26.511c0,0-1.826-1.136-1.603-3.081h0.003l0.687-1.72c0,0,0.181-1.291,0-2.542
				c-0.103-0.712-0.322-1.412-0.76-1.853l-0.001,0c-1.203-1.213,0.292-3.246,1.495-2.708c0,0-0.616-3.822,1.147-4.382
				C92.099,40.115,94.472,43.204,94.252,44.963z"/>
			<path fill="#610C36" d="M90.217,51.601c-0.424,0.626-0.629,1.202-0.689,1.72l-3.959-0.424l-0.159-1.425L90.217,51.601z"/>
			<polygon fill="#610C36" points="89.457,47.206 90.215,49.059 85.26,49.381 85.22,48.091 89.456,47.205 			"/>
		</g>
		<g>
		</g>
	</g>
</g>
<polyline fill="#E3C021" points="53.146,43.787 53.146,81.572 57.179,87.718 57.179,40.475 53.146,43.787 "/>
<path fill="#1B1026" d="M42.485,53.253v11.415c-0.586-0.161-1.28-0.159-1.98,0.039c-1.606,0.455-2.64,1.777-2.307,2.954
	c0.333,1.176,1.906,1.761,3.513,1.306c1.131-0.321,1.978-1.072,2.261-1.899l0.224,0.285V57.74c4.058,0,4.058,5.34,4.058,5.34
	C52.526,54.108,42.485,53.253,42.485,53.253z"/>
<path fill="#2F1132" d="M111.826,197.957h2.496c0.543,0,0.983-0.441,0.983-0.986c0-0.543-0.44-0.981-0.983-0.981h-2.496v-1.969
	h2.496c0.543,0,0.983-0.438,0.983-0.981c0-0.545-0.44-0.988-0.983-0.988h-2.496v-2.041c-3.094,0-7.056,2.234-7.056,4.995
	s3.962,4.995,7.056,4.995V197.957z"/>
<path fill="#2F1132" d="M61.736,4.145H59.24c-0.543,0-0.983,0.441-0.983,0.986c0,0.543,0.44,0.981,0.983,0.981h2.496v1.969H59.24
	c-0.543,0-0.983,0.438-0.983,0.981c0,0.545,0.44,0.988,0.983,0.988h2.496v2.041c3.094,0,7.056-2.234,7.056-4.995
	s-3.962-4.995-7.056-4.995V4.145z"/>
<g id="XMLID_17_">
	<g>
		<path fill="#EC1463" d="M88.809,145.303c0,2.758-3.183,1.257-3.183,1.257s-7.979-2.704-7.979,4.813v34.833v7.738
			c0,0-0.721,3.96-8.408,3.96c-6.538,0-8.035-3.797-8.337-4.931c0.29-0.069,0.586-0.172,0.889-0.316
			c1.053-0.499,1.625-1.223,1.883-2.044h0.001l0.331-0.239c0,0-0.363,4.788,5.317,4.788c5.683,0,5.683-4.788,5.683-4.788v-38.201
			c0,0-1.633-9.654,10.713-9.654C85.718,142.519,88.809,142.543,88.809,145.303z"/>
		<path fill="#EC1463" d="M63.673,190.613c-0.258,0.821-0.83,1.545-1.883,2.044c-0.303,0.145-0.6,0.247-0.889,0.316
			c-0.053-0.199-0.069-0.316-0.069-0.316L63.673,190.613z"/>
		<path fill="#EC1463" d="M55.999,187.701L55.999,187.701c2.397-0.579,4.465-1.883,5.898-3.634c0.068,0.1,2.628,3.842,1.776,6.546
			h-0.001l-2.841,2.044c0,0,0.016,0.117,0.069,0.316c-2.03,0.484-3.72-0.754-4.902-2.116V187.701z"/>
		<path fill="#EC1463" d="M55.999,187.047l5.897-2.981c0,0,0,0,0.001,0.001c0,0,0,0,0,0.001c-1.434,1.751-3.501,3.055-5.898,3.633
			V187.047z"/>
		<path fill="#FFFFFF" d="M57.107,178.282c0,0.956-0.422,1.824-1.108,2.459v-4.914C56.685,176.462,57.107,177.328,57.107,178.282z"
			/>
		<path fill="#1C3445" d="M59.646,178.282c0,2.307-1.489,4.298-3.647,5.238v-2.779c0.686-0.635,1.108-1.503,1.108-2.459
			c0-0.954-0.422-1.82-1.108-2.455v-2.779C58.158,173.989,59.646,175.981,59.646,178.282z"/>
		<path fill="#EC1463" d="M59.646,178.282c0-2.301-1.489-4.293-3.647-5.234v-4.179c4.611,1.113,8.006,4.907,8.006,9.413
			c0,2.165-0.781,4.166-2.107,5.784c-0.001-0.001-0.001-0.001-0.001-0.001l-5.897,2.981v-3.526
			C58.158,182.58,59.646,180.589,59.646,178.282z"/>
		<path fill="#EC1463" d="M55.999,190.857c-1.155-1.33-1.829-2.779-1.867-2.862c0.64-0.049,1.264-0.148,1.867-0.294V190.857z"/>
		<path fill="#EC1463" d="M54.132,187.995c-0.001-0.002-0.001-0.003-0.001-0.003l1.868-0.945v0.653v0.001
			C55.396,187.847,54.772,187.946,54.132,187.995z"/>
		<path fill="#EC1463" d="M54.131,187.992c0,0,0,0.001,0.001,0.003c-0.309,0.025-0.622,0.037-0.937,0.037
			c-0.179,0-0.356-0.004-0.532-0.011v-3.944c0.175,0.014,0.353,0.02,0.532,0.02c1.005,0,1.956-0.207,2.804-0.576v3.526
			L54.131,187.992z"/>
		<path fill="#1C3445" d="M52.664,174.794v-1.629v-0.675c0.175-0.014,0.353-0.02,0.532-0.02c1.005,0,1.956,0.207,2.804,0.577v2.779
			c-0.71-0.657-1.703-1.066-2.804-1.066C53.014,174.761,52.837,174.772,52.664,174.794z"/>
		<path fill="#1C3445" d="M55.999,183.521c-0.848,0.369-1.799,0.576-2.804,0.576c-0.179,0-0.357-0.006-0.532-0.02v-2.3
			c0.173,0.021,0.351,0.033,0.532,0.033c1.101,0,2.093-0.41,2.804-1.069V183.521z"/>
		<path fill="#FFFFFF" d="M55.999,180.741c-0.71,0.659-1.703,1.069-2.804,1.069c-0.181,0-0.358-0.012-0.532-0.033v-6.983
			c0.173-0.021,0.351-0.033,0.532-0.033c1.101,0,2.093,0.409,2.804,1.066V180.741z"/>
		<path fill="#EC1463" d="M52.664,172.49v-2.258c0-0.621-0.086-1.175-0.243-1.67c0.255-0.016,0.513-0.024,0.774-0.024
			c0.97,0,1.91,0.114,2.804,0.331v4.179c-0.848-0.37-1.799-0.577-2.804-0.577C53.017,172.471,52.838,172.477,52.664,172.49z"/>
		<path fill="#2F1132" d="M52.664,188.021v5.923h-16.09v-20.779h1.453v18.351c0,0.315,0.143,0.601,0.373,0.808
			c0.229,0.207,0.547,0.334,0.898,0.334c0.699,0,1.27-0.51,1.27-1.142v-18.351h3.428c-1.02,1.487-1.609,3.24-1.609,5.117
			C42.385,183.504,46.94,187.771,52.664,188.021z"/>
		<path fill="#1C3445" d="M52.664,172.49v0.675h-2.524C50.901,172.795,51.756,172.557,52.664,172.49z"/>
		<path fill="#EC1463" d="M50.139,173.165L50.139,173.165h-6.143c1.775-2.591,4.861-4.375,8.425-4.603
			c0.156,0.495,0.243,1.049,0.243,1.67v2.258C51.756,172.557,50.901,172.795,50.139,173.165z"/>
		<path fill="#1C3445" d="M46.75,178.282c0-2.209,1.37-4.133,3.389-5.117h0.001h2.524v1.629c-1.908,0.233-3.378,1.708-3.378,3.488
			c0,1.783,1.47,3.261,3.378,3.495v2.3C49.353,183.833,46.75,181.334,46.75,178.282z"/>
		<path fill="#FFFFFF" d="M49.286,178.282c0-1.78,1.47-3.255,3.378-3.488v6.983C50.756,181.543,49.286,180.065,49.286,178.282z"/>
		<path fill="#EC1463" d="M50.138,173.165c-2.019,0.984-3.389,2.908-3.389,5.117c0,3.052,2.603,5.551,5.914,5.795v3.944
			c-5.724-0.251-10.278-4.518-10.278-9.739c0-1.877,0.59-3.63,1.609-5.117h0.001H50.138z"/>
		<path fill="#72113C" d="M52.421,168.563c-3.563,0.228-6.649,2.012-8.425,4.603h-0.001h-3.428v-1.79c0-0.314-0.143-0.6-0.372-0.808
			c-0.23-0.207-0.548-0.335-0.897-0.335c-0.701,0-1.271,0.513-1.271,1.143v1.79h-1.453v-2.507c0,0,0.589-6.214,6.898-6.214
			C43.472,164.444,50.969,163.945,52.421,168.563z"/>
		<path fill="#1C3445" d="M45.417,156.189h-0.942v-8.342v-1.022c0.32,0,0.635-0.021,0.942-0.062V156.189z"/>
		<path fill="#1C3445" d="M45.417,146.764c-0.307,0.041-0.622,0.062-0.942,0.062v-0.266h0.942V146.764z"/>
		<path fill="#1C3445" d="M43.059,146.684l5.323-1.048c-0.847,0.584-1.86,0.983-2.965,1.128v-0.204h-0.942v0.266
			C43.989,146.825,43.515,146.777,43.059,146.684z"/>
		<path fill="#1C3445" d="M44.475,137.488c-2.16,0-3.908,1.578-3.908,3.525c0,1.946,1.749,3.524,3.908,3.524
			c2.159,0,3.911-1.578,3.911-3.524C48.386,139.066,46.634,137.488,44.475,137.488z M50.922,141.014
			c0,1.884-0.995,3.559-2.537,4.621l-0.004,0.001l-5.323,1.048h-0.002c-2.879-0.582-5.03-2.899-5.03-5.67
			c0-3.209,2.888-5.809,6.449-5.809C48.035,135.205,50.922,137.805,50.922,141.014z"/>
		<ellipse fill="#FFFFFF" cx="44.476" cy="141.014" rx="3.909" ry="3.524"/>
		<path fill="#FFFFFF" d="M40.567,173.165v18.351c0,0.632-0.57,1.142-1.27,1.142c-0.351,0-0.669-0.127-0.898-0.334
			c-0.23-0.207-0.373-0.492-0.373-0.808v-18.351H40.567z"/>
		<path fill="#FFFFFF" d="M40.567,171.375v1.79h-2.541v-1.79c0-0.63,0.57-1.143,1.271-1.143c0.35,0,0.667,0.128,0.897,0.335
			C40.424,170.775,40.567,171.061,40.567,171.375z"/>
		<path fill="#72113C" d="M45.417,156.189v-9.426c1.104-0.145,2.118-0.544,2.965-1.128l0.004-0.001v12.639
			c0,3.066,2.537,4.294,2.537,4.294c4.153,2.049,4.95,3.639,5.077,4.352v0.409v1.541c-0.894-0.217-1.833-0.331-2.804-0.331
			c-0.261,0-0.52,0.009-0.774,0.024c-1.452-4.617-8.949-4.118-8.949-4.118c-6.309,0-6.898,6.214-6.898,6.214v2.507v20.779h16.09
			v-5.923c0.176,0.007,0.353,0.011,0.532,0.011c0.315,0,0.628-0.012,0.937-0.037c0.038,0.083,0.712,1.532,1.867,2.862v4.83H34.814
			v-21.493c0-6.343,0-8.379,3.212-9.874c0.231-0.107,0.448-0.229,0.658-0.365c2.709-1.758,3.653-5.682,3.653-5.682v-11.448
			l0.719-0.142h0.002c0.456,0.094,0.93,0.142,1.416,0.142v1.022v8.342H45.417z"/>
		<rect x="34.814" y="195.688" fill="#483C6B" width="21.185" height="3.919"/>
		<path fill="#FFFFFF" d="M30.585,165.313c0,1.638-1.474,2.969-3.292,2.969h-3.004v-0.526c0-0.858-1.085-1.563-2.422-1.563H8.558
			c-0.904,0-1.693,0.322-2.109,0.796c-0.363-0.476-0.576-1.054-0.576-1.676v-1.984c0-1.641,1.475-2.972,3.292-2.972h12.701h5.427
			c1.819,0,3.292,1.331,3.292,2.972V165.313z"/>
		<path fill="#1B1026" d="M24.289,157.749v1.044c0,0.863-1.085,1.563-2.422,1.563H9.165H8.558c-1.336,0-2.422-0.7-2.422-1.563
			v-1.044c0-0.48,0.338-0.911,0.872-1.197c0.578,0.454,1.333,0.729,2.157,0.729h15.013
			C24.249,157.429,24.289,157.586,24.289,157.749z"/>
		<path fill="#1B1026" d="M9.165,170.232c-0.319,0-0.626,0.04-0.918,0.118c0,0-0.001-0.002-0.001,0
			c-1.189-0.099-2.109-0.756-2.109-1.555v-1.041c0-0.278,0.113-0.54,0.313-0.767c0.594,0.781,1.588,1.293,2.716,1.293h15.124v0.515
			c0,0.644-0.596,1.195-1.449,1.437h-0.001H9.165z"/>
		<path fill="#483C6B" d="M48.386,145.635c1.542-1.063,2.537-2.737,2.537-4.621c0-3.209-2.888-5.809-6.447-5.809
			c-3.561,0-6.449,2.6-6.449,5.809c0,2.771,2.151,5.088,5.03,5.67l-0.719,0.142v11.448c0,0-0.944,3.924-3.653,5.682
			c-0.209,0.137-0.426,0.258-0.658,0.365c-3.212,1.495-3.212,3.531-3.212,9.874V134.62c0-8.932-9.772-10.384-14.968-10.525h20.826
			c0,0,15.328,3.76,15.328,14.811v28.014c-0.127-0.713-0.923-2.303-5.077-4.352c0,0-2.537-1.228-2.537-4.294V145.635z"/>
		<path fill="#1C3445" d="M16.681,138.729c-2.161,0-3.912-1.578-3.912-3.524s1.751-3.525,3.912-3.525c2.157,0,3.91,1.579,3.91,3.525
			S18.838,138.729,16.681,138.729z"/>
		<path fill="#FFFFFF" d="M16.681,131.68c-2.161,0-3.912,1.579-3.912,3.525s1.751,3.524,3.912,3.524c2.157,0,3.91-1.578,3.91-3.524
			S18.838,131.68,16.681,131.68z M16.681,141.014c-3.561,0-6.448-2.604-6.448-5.809c0-3.211,2.887-5.813,6.448-5.813
			c3.56,0,6.446,2.602,6.446,5.813C23.127,138.41,20.241,141.014,16.681,141.014z"/>
		<path fill="#1C3445" d="M8.247,170.351c0.292-0.078,0.6-0.118,0.918-0.118h13.673c-0.298,0.085-0.627,0.132-0.972,0.132H8.558
			C8.452,170.364,8.349,170.359,8.247,170.351z"/>
		<path fill="#72113C" d="M4.918,138.905c0,0-2.024-14.811,13.589-14.811h1.338c5.196,0.142,14.968,1.594,14.968,10.525v39.574
			v21.493v3.919H4.918V138.905z M16.681,129.393c-3.561,0-6.448,2.602-6.448,5.813c0,3.205,2.887,5.809,6.448,5.809
			c3.56,0,6.446-2.604,6.446-5.809C23.127,131.994,20.241,129.393,16.681,129.393z M9.165,160.356c-1.817,0-3.292,1.331-3.292,2.972
			v1.984c0,0.622,0.213,1.2,0.576,1.676c-0.199,0.227-0.313,0.488-0.313,0.767v1.041c0,0.799,0.919,1.456,2.109,1.555
			c-1.37,0.358-2.373,1.499-2.373,2.849v1.984c0,0.653,0.234,1.258,0.633,1.748c-0.234,0.24-0.369,0.526-0.369,0.831v1.046
			c0,0.727,0.774,1.337,1.82,1.508c-1.22,0.435-2.083,1.506-2.083,2.761v1.984c0,0.686,0.259,1.317,0.692,1.819
			c-0.27,0.253-0.428,0.558-0.428,0.888v1.042c0,0.674,0.664,1.25,1.592,1.47c-1.098,0.48-1.855,1.495-1.855,2.673v1.982
			c0,1.638,1.475,2.969,3.292,2.969h18.128c1.819,0,3.292-1.331,3.292-2.969v-1.982c0-1.643-1.474-2.969-3.292-2.969h-3.828
			c0.505-0.286,0.824-0.707,0.824-1.174v-0.778h3.004c1.819,0,3.292-1.333,3.292-2.971v-1.984c0-1.64-1.474-2.967-3.292-2.967
			h-4.096c0.658-0.278,1.091-0.758,1.091-1.302v-0.658h3.004c1.819,0,3.292-1.326,3.292-2.967v-1.984
			c0-1.636-1.474-2.967-3.292-2.967h-4.454c0.853-0.241,1.449-0.793,1.449-1.437v-0.515h3.004c1.819,0,3.292-1.331,3.292-2.969
			v-1.984c0-1.641-1.474-2.972-3.292-2.972h-5.427c1.337,0,2.422-0.7,2.422-1.563v-1.044c0-0.163-0.04-0.32-0.111-0.468h3.115
			c1.819,0,3.292-1.331,3.292-2.969v-1.98c0-1.64-1.474-2.968-3.292-2.968H9.165c-1.817,0-3.292,1.328-3.292,2.968v1.98
			c0,0.894,0.439,1.696,1.135,2.239c-0.533,0.286-0.872,0.717-0.872,1.197v1.044c0,0.863,1.086,1.563,2.422,1.563H9.165z"/>
		<path fill="#1C3445" d="M8.558,180.366c-0.208,0-0.41-0.018-0.602-0.05c0.374-0.134,0.782-0.206,1.209-0.206h14.032
			c-0.381,0.162-0.839,0.256-1.331,0.256H8.558z"/>
		<path fill="#1B1026" d="M7.956,180.316c-1.045-0.171-1.82-0.781-1.82-1.508v-1.046c0-0.305,0.135-0.591,0.369-0.831
			c0.597,0.74,1.566,1.219,2.66,1.219h15.124v0.658c0,0.544-0.434,1.023-1.091,1.302H9.165C8.738,180.11,8.33,180.183,7.956,180.316
			z"/>
		<path fill="#1B1026" d="M21.866,190.374H8.558c-0.292,0-0.571-0.033-0.83-0.094c0.435-0.19,0.922-0.296,1.437-0.296h14.3
			C23.039,190.227,22.479,190.374,21.866,190.374z"/>
		<path fill="#1B1026" d="M6.136,187.769c0-0.33,0.159-0.635,0.428-0.888h0.001c0.601,0.701,1.542,1.151,2.599,1.151h15.124v0.778
			c0,0.467-0.319,0.888-0.824,1.174h-14.3c-0.515,0-1.002,0.105-1.437,0.296c-0.928-0.22-1.592-0.796-1.592-1.47V187.769z"/>
		<path fill="#1B1026" d="M9.165,157.281c-0.825,0-1.58-0.275-2.157-0.729c0.42-0.226,0.96-0.362,1.55-0.362h13.308
			c1.084,0,2.002,0.459,2.312,1.092H9.165z"/>
		<path fill="#1B1026" d="M9.165,188.032c-1.057,0-1.999-0.45-2.599-1.151c0.437-0.408,1.167-0.675,1.992-0.675h13.308
			c1.337,0,2.422,0.698,2.422,1.563v0.264H9.165z"/>
		<path fill="#FFFFFF" d="M5.873,183.077c0-1.255,0.863-2.326,2.083-2.761c0.192,0.032,0.394,0.05,0.602,0.05h13.308
			c0.492,0,0.95-0.094,1.331-0.256h4.096c1.819,0,3.292,1.327,3.292,2.967v1.984c0,1.638-1.474,2.971-3.292,2.971h-3.004v-0.264
			c0-0.864-1.085-1.563-2.422-1.563H8.558c-0.825,0-1.555,0.267-1.992,0.675H6.564c-0.433-0.502-0.692-1.134-0.692-1.819V183.077z"
			/>
		<path fill="#1B1026" d="M9.165,168.281c-1.128,0-2.123-0.512-2.716-1.293c0.416-0.474,1.206-0.796,2.109-0.796h13.308
			c1.337,0,2.422,0.704,2.422,1.563v0.526H9.165z"/>
		<path fill="#1B1026" d="M6.505,176.932c0.43-0.44,1.188-0.732,2.053-0.732h13.308c1.337,0,2.422,0.698,2.422,1.563v0.388H9.165
			C8.072,178.15,7.103,177.672,6.505,176.932z"/>
		<path fill="#FFFFFF" d="M5.873,192.953c0-1.178,0.757-2.192,1.855-2.673c0.259,0.061,0.538,0.094,0.83,0.094h13.308
			c0.612,0,1.172-0.147,1.599-0.39h3.828c1.819,0,3.292,1.326,3.292,2.969v1.982c0,1.638-1.474,2.969-3.292,2.969H9.165
			c-1.817,0-3.292-1.331-3.292-2.969V192.953z"/>
		<path fill="#FFFFFF" d="M8.558,176.199c-0.864,0-1.623,0.292-2.053,0.732c-0.399-0.49-0.633-1.095-0.633-1.748v-1.984
			c0-1.35,1.002-2.49,2.373-2.849c0-0.002,0.001,0,0.001,0c0.102,0.009,0.206,0.014,0.312,0.014h13.308
			c0.345,0,0.674-0.047,0.972-0.132h0.001h4.454c1.819,0,3.292,1.331,3.292,2.967v1.984c0,1.641-1.474,2.967-3.292,2.967h-3.004
			v-0.388c0-0.865-1.085-1.563-2.422-1.563H8.558z"/>
		<path fill="#FFFFFF" d="M7.008,156.552c-0.696-0.543-1.135-1.346-1.135-2.239v-1.98c0-1.64,1.475-2.968,3.292-2.968h18.128
			c1.819,0,3.292,1.328,3.292,2.968v1.98c0,1.638-1.474,2.969-3.292,2.969h-3.115c-0.309-0.633-1.228-1.092-2.312-1.092H8.558
			C7.968,156.189,7.428,156.326,7.008,156.552z"/>
	</g>
	<g>
	</g>
</g>
<g>
	<g>
		
			<ellipse transform="matrix(-0.9487 0.3163 -0.3163 -0.9487 27.9418 26.6509)" fill="#72113C" cx="11.808" cy="15.593" rx="2.482" ry="2.031"/>
		
			<ellipse transform="matrix(-0.9487 0.3162 -0.3162 -0.9487 40.5696 19.3339)" fill="#72113C" cx="18.716" cy="12.959" rx="2.482" ry="2.032"/>
		<polyline fill="#72113C" points="11.809,13.527 11.809,4.646 20.743,1.376 20.743,11.56 18.307,13.51 18.307,4.865 14.249,6.39 
			14.249,15.592 		"/>
	</g>
</g>
<g id="XMLID_10_">
	<g>
		<ellipse fill="#483C6B" cx="85.934" cy="26.545" rx="4.323" ry="3.896"/>
		<path fill="#EC1463" d="M75.488,26.545c0-5.2,4.68-9.412,10.442-9.412c5.769,0,10.441,4.212,10.441,9.412
			c0,5.195-4.673,9.409-10.441,9.409C80.168,35.954,75.488,31.74,75.488,26.545z M85.931,30.441c2.387,0,4.326-1.744,4.326-3.896
			s-1.939-3.897-4.326-3.897c-2.388,0-4.32,1.745-4.32,3.897S83.543,30.441,85.931,30.441z"/>
		<path fill="#E3C021" d="M99.586,26.545c0,6.794-6.113,12.304-13.655,12.304c-4.81,0-9.041-2.244-11.472-5.633
			c0.001,0,0.001,0.001,0.001,0.001l-1.48-10.568c0,0,0,0-0.002,0c1.81-4.889,6.927-8.412,12.953-8.412
			C93.473,14.236,99.586,19.747,99.586,26.545z M85.931,17.133c-5.763,0-10.442,4.212-10.442,9.412c0,5.195,4.68,9.409,10.442,9.409
			c5.769,0,10.441-4.213,10.441-9.409C96.372,21.345,91.699,17.133,85.931,17.133z"/>
		<path fill="#1C3445" d="M74.457,33.211c-0.118-0.164-0.231-0.33-0.34-0.5C74.24,32.871,74.354,33.037,74.457,33.211z"/>
		<path fill="#E3C021" d="M74.11,32.703c-1.164-1.81-1.832-3.915-1.832-6.158c0-1.362,0.245-2.672,0.699-3.896v-0.001
			c0.002,0,0.002,0,0.002,0l1.48,10.568c0,0,0-0.001-0.001-0.001c0-0.001-0.001-0.002-0.002-0.004
			c-0.104-0.175-0.217-0.341-0.34-0.5C74.115,32.709,74.114,32.706,74.11,32.703z"/>
		<path fill="#E3C021" d="M72.978,22.649c-0.454,1.224-0.699,2.534-0.699,3.896c0,2.244,0.668,4.348,1.832,6.158
			c-3.474-4.493-13.914-2.454-14.777-2.276l-0.062,0.014l-4.186-4.579C64.111,24.749,72.886,22.67,72.978,22.649z"/>
		<path fill="#E3C021" d="M31.173,43.786c-7.567,0-14.413-0.975-15.306-4.938c-0.896-3.964,1.108-8.408,1.108-8.408h-3.912v-3.896
			h12.515v0.083h1.22v-0.083h5.438v0.083h1.22v-0.083h5.438v0.083h1.225v-0.083h5.374c0.021,0,0.042,0,0.063,0v0.083h1.221v-0.1
			c2.621-0.064,5.478-0.318,8.31-0.666l4.186,4.579l0.062-0.014c0.31-0.043,1.74,0.065,1.74,5.526c0,6.132-7.926,7.833-7.926,7.833
			S38.737,43.786,31.173,43.786z M54.081,38.996v-8.742c0-0.814-0.66-1.477-1.478-1.477H21.482c-0.816,0-1.48,0.663-1.48,1.477
			v8.742c0,0.818,0.664,1.479,1.48,1.479h31.121C53.42,40.475,54.081,39.814,54.081,38.996z"/>
		<path fill="#57396B" d="M47.591,19.659c0.675,0,1.222,0.492,1.222,1.101c0,0.607-0.547,1.098-1.222,1.098h-0.815h-1.221h-0.609
			c-0.676,0-1.224-0.491-1.224-1.098c0-0.304,0.136-0.58,0.358-0.779c0.222-0.198,0.527-0.322,0.866-0.322H47.591z"/>
		<path fill="#57396B" d="M46.776,26.528v0.1h-1.221v-0.083C45.956,26.545,46.364,26.539,46.776,26.528z"/>
		<path fill="#E3C021" d="M45.556,26.545v-4.687h1.221v4.669C46.364,26.539,45.956,26.545,45.556,26.545z"/>
		<path fill="#57396B" d="M40.932,19.659c0.675,0,1.222,0.492,1.222,1.101c0,0.607-0.547,1.098-1.222,1.098H40.12h-1.225h-0.61
			c-0.673,0-1.218-0.491-1.218-1.098c0-0.304,0.136-0.58,0.356-0.779c0.221-0.198,0.526-0.322,0.862-0.322H40.932z"/>
		<rect x="38.895" y="26.545" fill="#57396B" width="1.225" height="0.083"/>
		<rect x="38.895" y="21.858" fill="#E3C021" width="1.225" height="4.687"/>
		<path fill="#57396B" d="M34.273,19.659c0.672,0,1.222,0.492,1.222,1.101c0,0.607-0.549,1.098-1.222,1.098h-0.816h-1.22h-0.61
			c-0.674,0-1.221-0.491-1.221-1.098c0-0.304,0.137-0.58,0.357-0.779c0.222-0.198,0.527-0.322,0.863-0.322H34.273z"/>
		<rect x="32.236" y="26.545" fill="#57396B" width="1.22" height="0.083"/>
		<rect x="32.236" y="21.858" fill="#E3C021" width="1.22" height="4.687"/>
		<path fill="#57396B" d="M27.615,19.659c0.671,0,1.218,0.492,1.218,1.101c0,0.607-0.547,1.098-1.218,1.098h-0.816h-1.22h-0.611
			c-0.675,0-1.221-0.491-1.221-1.098c0-0.304,0.137-0.58,0.357-0.779c0.222-0.198,0.527-0.322,0.864-0.322H27.615z"/>
		<rect x="25.579" y="26.545" fill="#57396B" width="1.22" height="0.083"/>
		<rect x="25.579" y="21.858" fill="#E3C021" width="1.22" height="4.687"/>
		<polygon fill="#EC1463" points="13.063,26.545 13.063,30.441 9.155,33.216 9.155,23.978 		"/>
	</g>
	<g>
	</g>
</g>
<g id="XMLID_15_">
	<g>
		<path fill="#2F1132" d="M106.865,169.785c0.165,0.312,10.279,19.69-15.218,19.69c-0.202,0-0.401-0.002-0.599-0.005l1.265-0.365
			C114.577,189.105,106.98,170.07,106.865,169.785z"/>
		<path fill="#610C36" d="M96.528,127.251h2.854c1.11,0,2.008,0.717,2.008,1.607c0,0.89-0.897,1.607-2.008,1.607h-2.854V127.251z"/>
		<path fill="#610C36" d="M101.39,125.17c0,0.887-0.897,1.605-2.008,1.605h-2.854v-3.216h2.854
			C100.492,123.56,101.39,124.28,101.39,125.17z"/>
		<path fill="#2F1132" d="M93.653,119.489c1.586,0,2.875,0.811,2.875,1.804v2.267h-9.945v-2.267c0-0.993,1.294-1.804,2.88-1.804
			H93.653z"/>
		<path fill="#2F1132" d="M98.304,174.553c-0.742-2.128-2.264-3.943-4.262-5.176c0-0.001,0-0.001,0-0.001
			c0.669-0.675,1.642-1.099,2.725-1.099c2.016,0,3.651,1.472,3.651,3.29C100.418,172.891,99.552,174.03,98.304,174.553z"/>
		<path fill="#E4C021" d="M93.438,178.665c1.21-0.6,2.029-1.761,2.029-3.092c0-0.342-0.055-0.672-0.154-0.985
			c0.446,0.175,0.938,0.271,1.454,0.271c0.406,0,0.798-0.061,1.164-0.171c0.048,0.289,0.074,0.584,0.074,0.885
			c0,3.195-2.859,5.785-6.398,5.807C92.503,180.684,93.156,179.739,93.438,178.665z"/>
		<path fill="#72113C" d="M85.354,144.709c0-4.097,5.074-4.139,5.074-4.139v-6.143h2.261v5.709c0,0,5.072,0.034,5.072,4.13
			c0,4.099,0,6.852,0,6.852l6.053,6.275c0,0-3.648,3.472-3.648,6.147c0,2.682,6.699,6.24,6.699,6.24s0,0.001,0.001,0.004
			c0.041,0.281,2.675,18.529-14.21,18.529c-2.465,0-4.547-0.39-6.305-1.057c0.5,0.063,1.01,0.096,1.529,0.096
			c6.03,0,10.926-4.409,10.926-9.844c0-1.03-0.176-2.023-0.502-2.957c1.248-0.522,2.114-1.662,2.114-2.985
			c0-1.818-1.636-3.29-3.651-3.29c-1.083,0-2.056,0.424-2.725,1.099c-0.025-0.015-0.052-0.03-0.077-0.047v-0.001
			c-0.743-0.448-1.551-0.819-2.406-1.095c-0.768-0.248-1.572-0.42-2.407-0.506c-0.418-0.045-0.841-0.066-1.271-0.066
			c-5.099,0-9.38,3.146-10.589,7.4c-0.478-2.629-0.414-4.732-0.391-5.201c1.681-0.974,6.047-3.707,6.047-5.874
			c0-2.683-3.645-6.149-3.645-6.149l6.051-6.282C85.354,151.555,85.354,148.808,85.354,144.709z"/>
		<path fill="#E4C021" d="M95.312,174.587c-0.231-0.718-0.709-1.341-1.347-1.788v-2.619c2.075,0.754,3.617,2.454,3.966,4.507
			c0,0.002,0,0.002,0,0.002c-0.366,0.11-0.758,0.171-1.164,0.171C96.25,174.859,95.759,174.763,95.312,174.587
			C95.312,174.588,95.312,174.588,95.312,174.587z"/>
		<path fill="#FFFFFF" d="M93.965,172.799c0.638,0.447,1.115,1.07,1.347,1.788c-0.524-0.204-0.985-0.519-1.347-0.908V172.799z"/>
		<path fill="#72113C" d="M94.042,169.377c1.998,1.232,3.52,3.048,4.262,5.176c-0.121,0.052-0.245,0.097-0.373,0.134
			c-0.349-2.053-1.891-3.753-3.966-4.507v-0.723C93.989,169.431,94.015,169.403,94.042,169.377z"/>
		<path fill="#1C3445" d="M93.965,169.329c0.025,0.017,0.052,0.032,0.077,0.047c0,0,0,0,0,0.001
			c-0.027,0.026-0.053,0.054-0.077,0.08V169.329z"/>
		<path fill="#1C3445" d="M93.532,170.04c0.121-0.21,0.266-0.404,0.433-0.583v0.723C93.823,170.128,93.679,170.082,93.532,170.04z"
			/>
		<path fill="#2F1132" d="M96.528,132.261c0,0.996-1.289,1.801-2.875,1.801h-0.027c0.21-0.205,0.339-0.477,0.339-0.777
			c0-0.631-0.57-1.143-1.271-1.143h-2.27c-0.351,0-0.668,0.128-0.899,0.335c-0.23,0.207-0.373,0.492-0.373,0.808
			c0,0.301,0.128,0.572,0.338,0.777h-0.026c-1.586,0-2.88-0.805-2.88-1.801v-1.795h9.945V132.261z"/>
		<path fill="#FFFFFF" d="M93.229,172.389c0.264,0.111,0.509,0.249,0.735,0.41v0.88C93.621,173.309,93.366,172.87,93.229,172.389z"
			/>
		<path fill="#E4C021" d="M93.229,172.389c-0.075-0.262-0.114-0.538-0.114-0.821c0-0.551,0.149-1.072,0.417-1.527
			c0.146,0.042,0.291,0.088,0.433,0.14v2.619C93.738,172.638,93.493,172.5,93.229,172.389z"/>
		<path fill="#2F1132" d="M93.626,134.062c-0.231,0.225-0.564,0.366-0.933,0.366h-0.005v-0.366H93.626z"/>
		<polygon fill="#2F1132" points="90.905,134.062 92.688,133.717 92.688,134.062 		"/>
		<path fill="#E4C021" d="M93.532,170.04c-0.268,0.455-0.417,0.977-0.417,1.527c0,0.283,0.039,0.56,0.114,0.821
			c-0.506-0.216-1.072-0.337-1.671-0.337v-2.29C92.247,169.762,92.91,169.858,93.532,170.04z"/>
		<path fill="#72113C" d="M93.965,169.457c-0.167,0.179-0.312,0.373-0.433,0.583c-0.622-0.182-1.285-0.278-1.974-0.278v-1.528
			c0.855,0.275,1.663,0.646,2.406,1.095v0.001V169.457z"/>
		<path fill="#FFFFFF" d="M95.467,175.573c0,1.331-0.819,2.492-2.029,3.092c0.099-0.379,0.151-0.775,0.151-1.182
			c0-1.579-0.789-2.99-2.03-3.934v-1.498c0.599,0,1.165,0.121,1.671,0.337c0.137,0.481,0.392,0.92,0.735,1.29
			c0.361,0.39,0.822,0.704,1.347,0.908c0,0.001,0,0.001,0.001,0.001C95.412,174.901,95.467,175.231,95.467,175.573z"/>
		<path fill="#2F1132" d="M92.655,188.314c16.885,0,14.251-18.248,14.21-18.529c0.115,0.285,7.712,19.32-14.552,19.32l-1.265,0.365
			h-0.002c-22.144-0.311-14.939-17.899-14.199-19.58c0.018-0.01,0.034-0.021,0.053-0.03c-0.023,0.469-0.087,2.572,0.391,5.201
			c-0.222,0.782-0.34,1.604-0.34,2.448c0,4.967,4.085,9.077,9.397,9.748c0.001,0,0.001,0,0.002,0
			C88.108,187.925,90.19,188.314,92.655,188.314z"/>
		<polygon fill="#2F1132" points="90.428,134.428 90.428,134.153 90.904,134.062 90.905,134.062 92.688,134.062 92.688,134.428 		
			"/>
		<path fill="#FFFFFF" d="M89.533,172.561c0.591-0.323,1.284-0.509,2.025-0.509v1.498C90.973,173.104,90.285,172.765,89.533,172.561
			z"/>
		<path fill="#E4C021" d="M91.559,172.052c-0.741,0-1.435,0.186-2.025,0.509c-0.126-0.035-0.253-0.065-0.382-0.092v-2.287
			c0.743-0.271,1.556-0.42,2.407-0.42V172.052z"/>
		<path fill="#2F1132" d="M90.424,134.428c-0.369,0-0.701-0.142-0.935-0.366h1.415l-0.477,0.092v0.274H90.424z"/>
		<path fill="#E4C021" d="M89.151,172.469c0.129,0.026,0.256,0.057,0.382,0.092c-0.134,0.072-0.262,0.151-0.382,0.238V172.469z"/>
		<path fill="#72113C" d="M89.151,170.182v-2.454c0.835,0.086,1.64,0.258,2.407,0.506v1.528
			C90.707,169.762,89.895,169.91,89.151,170.182z"/>
		<path fill="#2F1132" d="M89.489,134.062c-0.21-0.205-0.338-0.477-0.338-0.777c0-0.315,0.143-0.601,0.373-0.808
			c0.231-0.207,0.549-0.335,0.899-0.335h2.27c0.701,0,1.271,0.512,1.271,1.143c0,0.301-0.129,0.572-0.339,0.777h-0.938v-0.345
			l-1.783,0.345h-0.001H89.489z"/>
		<path fill="#FFFFFF" d="M91.559,179.1c-2.159,0-3.911-1.581-3.911-3.526c0-1.128,0.589-2.132,1.504-2.772v-0.002
			c0.12-0.087,0.248-0.166,0.382-0.238c0.752,0.204,1.439,0.544,2.025,0.989c1.241,0.943,2.03,2.354,2.03,3.934
			c0,0.406-0.053,0.803-0.151,1.182C92.881,178.942,92.239,179.1,91.559,179.1z"/>
		<path fill="#E4C021" d="M91.559,181.382c-3.56,0-6.449-2.599-6.449-5.809c0-1.075,0.325-2.082,0.891-2.946
			c0.589-0.185,1.222-0.286,1.88-0.286c0.438,0,0.862,0.045,1.271,0.128v0.33v0.002c-0.915,0.641-1.504,1.645-1.504,2.772
			c0,1.945,1.752,3.526,3.911,3.526c0.681,0,1.322-0.157,1.879-0.435c-0.281,1.074-0.935,2.019-1.831,2.715
			C91.591,181.382,91.574,181.382,91.559,181.382z"/>
		<rect x="86.583" y="127.251" fill="#2F1132" width="9.945" height="3.215"/>
		<rect x="86.583" y="126.775" fill="#2F1132" width="9.945" height="0.476"/>
		<rect x="86.583" y="123.56" fill="#2F1132" width="9.945" height="3.216"/>
		<path fill="#610C36" d="M86.583,127.251v3.215h-2.112c-1.104,0-2.006-0.718-2.006-1.607c0-0.445,0.226-0.848,0.589-1.139
			c0.363-0.29,0.865-0.469,1.417-0.469H86.583z"/>
		<path fill="#E4C021" d="M87.88,172.341c-0.658,0-1.291,0.102-1.88,0.286c0.718-1.099,1.826-1.966,3.151-2.445v2.287
			C88.742,172.386,88.317,172.341,87.88,172.341z"/>
		<path fill="#72113C" d="M86,172.627c-0.565,0.864-0.891,1.871-0.891,2.946c0,3.21,2.89,5.809,6.449,5.809
			c0.016,0,0.032,0,0.048-0.002c-1.001,0.777-2.303,1.246-3.727,1.246c-3.151,0-5.709-2.301-5.709-5.143
			C82.171,175.234,83.771,173.326,86,172.627z"/>
		<path fill="#610C36" d="M84.471,126.775c-1.104,0-2.006-0.719-2.006-1.605c0-0.444,0.226-0.848,0.589-1.14
			c0.363-0.29,0.865-0.471,1.417-0.471h2.112v3.216H84.471z"/>
		<path fill="#72113C" d="M91.606,181.38c3.539-0.021,6.398-2.611,6.398-5.807c0-0.301-0.026-0.596-0.074-0.885c0,0,0,0,0-0.002
			c0.128-0.037,0.252-0.082,0.373-0.134c0.326,0.934,0.502,1.927,0.502,2.957c0,5.435-4.896,9.844-10.926,9.844
			c-0.52,0-1.029-0.032-1.529-0.096c-0.001,0-0.001,0-0.002,0c-6.092-2.309-8.286-7.941-9.058-12.196
			c1.209-4.255,5.49-7.4,10.589-7.4c0.431,0,0.854,0.021,1.271,0.066v2.454c-1.325,0.479-2.434,1.347-3.151,2.445
			c-2.229,0.699-3.829,2.607-3.829,4.856c0,2.842,2.558,5.143,5.709,5.143C89.304,182.626,90.605,182.157,91.606,181.38z"/>
		<path fill="#2F1132" d="M86.349,187.258c-5.313-0.671-9.397-4.781-9.397-9.748c0-0.844,0.118-1.666,0.34-2.448
			C78.063,179.316,80.257,184.949,86.349,187.258z"/>
		<path fill="#2F1132" d="M76.848,169.891c0.037-0.085,0.058-0.129,0.058-0.129s-0.002,0.033-0.005,0.099
			C76.882,169.87,76.865,169.881,76.848,169.891z"/>
		<path fill="#1C3445" d="M90.803,189.542c-22.433,0-14.551-19.318-14.551-19.318s0.227-0.121,0.596-0.333
			c-0.74,1.681-7.944,19.27,14.199,19.58L90.803,189.542z"/>
	</g>
	<g>
		<polyline fill="none" stroke="#FCF8F7" stroke-width="4" stroke-linecap="round" stroke-miterlimit="10" points="89.151,149.604 
			89.151,167.728 89.151,170.182 89.151,172.469 		"/>
		<polyline fill="none" stroke="#FCF8F7" stroke-width="4" stroke-linecap="round" stroke-miterlimit="10" points="91.559,149.604 
			91.559,168.233 91.559,169.762 91.559,172.052 91.559,173.55 91.559,177.483 		"/>
		<polyline fill="none" stroke="#FCF8F7" stroke-width="4" stroke-linecap="round" stroke-miterlimit="10" points="93.965,169.329 
			93.965,169.457 93.965,170.18 93.965,172.799 93.965,173.679 		"/>
		
			<line fill="none" stroke="#FCF8F7" stroke-width="4" stroke-linecap="round" stroke-miterlimit="10" x1="93.965" y1="149.604" x2="93.965" y2="169.328"/>
	</g>
</g>
<g id="XMLID_9_">
	<g>
		<path fill="#F4F5F5" d="M75.067,127.517H55.854c-1.592,0-2.881-1.156-2.881-2.595v-15.581c0-1.434,1.289-2.597,2.881-2.597h19.214
			c0.162,0,0.321,0.013,0.477,0.036c-0.216,0.528-0.485,0.997-0.726,1.365c-0.195-0.038-0.398-0.059-0.608-0.059
			c-1.087,0-2.031,0.549-2.509,1.357c-1.749-1.156-3.906-1.839-6.241-1.839c-5.833,0-10.568,4.269-10.568,9.524
			c0,5.265,4.735,9.527,10.568,9.527c5.837,0,10.567-4.263,10.567-9.527c0-1.439-0.354-2.806-0.991-4.029
			c1.166-0.319,2.016-1.297,2.016-2.451c0-0.587-0.219-1.127-0.588-1.56c0.45-0.282,0.84-0.599,1.168-0.939
			c0.206,0.357,0.321,0.761,0.321,1.19v15.581C77.953,126.36,76.66,127.517,75.067,127.517z"/>
		<path fill="#72113C" d="M75.309,109.687l-1.099-0.716c0,0,0.276-0.314,0.608-0.825c0.666,0.131,1.246,0.473,1.646,0.944
			C76.115,109.311,75.73,109.51,75.309,109.687z"/>
		<path fill="#72113C" d="M75.036,113.101c-0.756-1.457-1.909-2.714-3.335-3.656c0.478-0.809,1.422-1.357,2.509-1.357
			c0.21,0,0.413,0.021,0.608,0.059c-0.332,0.511-0.608,0.825-0.608,0.825l1.099,0.716c0.422-0.177,0.807-0.376,1.155-0.597
			c0.369,0.433,0.588,0.973,0.588,1.56C77.052,111.804,76.202,112.781,75.036,113.101z"/>
		<path fill="#72113C" d="M76.464,109.09c-0.399-0.472-0.979-0.813-1.646-0.944c0.24-0.368,0.51-0.837,0.726-1.365
			c0.911,0.135,1.678,0.656,2.088,1.37C77.304,108.491,76.914,108.808,76.464,109.09z"/>
		<path fill="#2F1132" d="M76.027,117.13c0,5.265-4.73,9.527-10.567,9.527c-5.833,0-10.568-4.263-10.568-9.527
			c0-5.256,4.735-9.524,10.568-9.524c2.335,0,4.492,0.683,6.241,1.839c-0.212,0.358-0.333,0.769-0.333,1.205
			c0,1.414,1.271,2.562,2.842,2.562c0.287,0,0.565-0.038,0.826-0.11C75.673,114.324,76.027,115.69,76.027,117.13z M65.46,112.797
			c-2.658,0-4.811,1.942-4.811,4.333c0,2.396,2.152,4.34,4.811,4.34c2.656,0,4.81-1.944,4.81-4.34
			C70.27,114.739,68.116,112.797,65.46,112.797z"/>
		<path fill="#72113C" d="M74.21,113.211c-1.571,0-2.842-1.147-2.842-2.562c0-0.437,0.121-0.847,0.333-1.205
			c1.426,0.942,2.579,2.199,3.335,3.656C74.775,113.173,74.497,113.211,74.21,113.211z"/>
		<ellipse fill="#E4C021" cx="65.459" cy="117.13" rx="4.81" ry="4.333"/>
		<path fill="#E4C021" d="M77.632,108.15c-0.41-0.714-1.177-1.235-2.088-1.37c0.727-1.765,0.866-4.178-2.637-5.599
			c-6.005-2.441-16.677,1.498-16.677,1.498s0,0,0.001-0.001c2.895-2.533,4.694-6.078,4.695-10.002
			c0.055,0.133,2.256,5.456,10.072,5.222C77.811,97.691,81.249,104.417,77.632,108.15z"/>
		<path fill="#E4C021" d="M56.231,102.679l4.669-10.824c0.017,0.271,0.026,0.544,0.026,0.819c0,0.001,0,0.001,0,0.002
			C60.925,96.601,59.126,100.146,56.231,102.679z"/>
		<path fill="#E4C021" d="M60.901,91.855l-4.669,10.824c-0.001,0.001-0.001,0.001-0.001,0.001
			c-2.786,2.437-6.585,3.937-10.774,3.937c-8.545,0-15.473-6.242-15.473-13.942c0-7.703,6.928-13.947,15.473-13.947
			C53.696,78.727,60.43,84.532,60.901,91.855z M57.287,92.674c0-5.893-5.295-10.666-11.831-10.666
			c-6.535,0-11.834,4.773-11.834,10.666c0,5.89,5.3,10.666,11.834,10.666C51.992,103.34,57.287,98.563,57.287,92.674z"/>
		<path fill="#EC1463" d="M57.287,92.674c0,5.89-5.295,10.666-11.831,10.666c-6.535,0-11.834-4.776-11.834-10.666
			c0-5.893,5.3-10.666,11.834-10.666C51.992,82.008,57.287,86.781,57.287,92.674z M41.208,92.674c0,3.919,3.528,7.099,7.875,7.099
			c4.351,0,7.879-3.179,7.879-7.099s-3.528-7.099-7.879-7.099C44.736,85.575,41.208,88.754,41.208,92.674z"/>
		<ellipse fill="#72113C" cx="49.083" cy="92.674" rx="7.875" ry="7.099"/>
	</g>
	<g>
	</g>
</g>
<rect x="23.048" y="41.204" fill="#F4F5F5" width="30.374" height="1.199"/>
<g id="XMLID_3_">
	<g>
		<path fill="#610C36" d="M23.313,54.934c0,0-1.189-2.771,2.771-2.771c0,0,2.374,0.395,2.374,2.969v14.645h-5.145V54.934z"/>
		<rect x="9.351" y="104.613" fill="#2F1132" width="12.179" height="10.887"/>
		<path fill="#72113C" d="M18.065,91.649c0.521,0,1.016-0.024,1.486-0.071c0.715-0.069,1.373-0.19,1.978-0.354v13.389H9.351V90.779
			C11.657,91.387,14.552,91.649,18.065,91.649z"/>
		<path fill="#610C36" d="M16.583,64.236c0,0-0.743-2.697,2.696-2.697c3.44,0,2.671,2.672,2.671,2.672v5.566h-5.367V64.236z"/>
		<path fill="#610C36" d="M9.656,63.246c0,0-0.546-2.301,2.299-2.301c2.847,0,2.772,2.773,2.772,2.773v6.06H9.656V63.246z"/>
		<path fill="#610C36" d="M2.331,55.526c0,0-0.198-2.474,2.474-2.474s2.87,2.872,2.87,2.872v13.854c0,0-4.749,5.345,1.981,7.521
			h9.896v14.279c-0.471,0.047-0.965,0.071-1.486,0.071c-3.514,0-6.408-0.263-8.715-0.87v0c-4.772-1.256-7.023-3.99-7.023-8.927
			C2.328,74.528,2.331,55.526,2.331,55.526z"/>
		<path fill="#72113C" d="M28.458,81.257c0,0,0.305,8.015-6.928,9.967c-0.605,0.164-1.263,0.285-1.978,0.354V77.299H9.656
			c-6.73-2.177-1.981-7.521-1.981-7.521h1.981h5.072h1.855h5.367h1.363h5.145V81.257z"/>
	</g>
	<g>
	</g>
</g>
<path fill="#2F1132" d="M122.232,7.488c0,1.07-0.868,1.938-1.938,1.938H68.356c-1.069,0-1.938-0.868-1.938-1.938l0,0
	c0-1.07,0.868-1.938,1.938-1.938h51.938C121.364,5.55,122.232,6.418,122.232,7.488L122.232,7.488z"/>
</svg>
