<?xml version="1.0" encoding="utf-8"?>
<!-- Generator: Adobe Illustrator 16.0.3, SVG Export Plug-In . SVG Version: 6.00 Build 0)  -->
<!DOCTYPE svg PUBLIC "-//W3C//DTD SVG 1.1//EN" "http://www.w3.org/Graphics/SVG/1.1/DTD/svg11.dtd">
<svg version="1.1" id="Layer_1" xmlns="http://www.w3.org/2000/svg" xmlns:xlink="http://www.w3.org/1999/xlink" x="0px" y="0px"
	 width="64px" height="64px" viewBox="0 0 64 64" enable-background="new 0 0 64 64" xml:space="preserve">
<circle fill="#2F1132" cx="32.204" cy="31.797" r="31.171"/>
<circle fill="#F4F5F5" cx="32.554" cy="31.797" r="28.011"/>
<circle fill="#2F1132" cx="32.555" cy="31.797" r="6.902"/>
<path fill="#F4F5F5" d="M35,5.125c0,1.104-0.896,2-2,2l0,0c-1.104,0-2-0.896-2-2v-1.75c0-1.104,0.896-2,2-2l0,0c1.104,0,2,0.896,2,2
	V5.125z"/>
<path fill="#F4F5F5" d="M35,60.25c0,1.104-0.896,2-2,2l0,0c-1.104,0-2-0.896-2-2V58.5c0-1.104,0.896-2,2-2l0,0c1.104,0,2,0.896,2,2
	V60.25z"/>
<path fill="#F4F5F5" d="M58.813,34.688c-1.104,0-2-0.896-2-2l0,0c0-1.104,0.896-2,2-2h1.75c1.104,0,2,0.896,2,2l0,0
	c0,1.104-0.896,2-2,2H58.813z"/>
<path fill="#F4F5F5" d="M3.688,34.688c-1.104,0-2-0.896-2-2l0,0c0-1.104,0.896-2,2-2h1.75c1.104,0,2,0.896,2,2l0,0
	c0,1.104-0.896,2-2,2H3.688z"/>
<path fill="#E3C021" d="M52.114,46.699c0.499,0.433,0.584,1.154,0.188,1.609l-0.358,0.415c-0.394,0.456-1.119,0.478-1.62,0.046
	L17.77,20.62c-0.5-0.431-0.584-1.152-0.188-1.609l0.358-0.414c0.396-0.458,1.122-0.478,1.62-0.046L52.114,46.699z"/>
<ellipse transform="matrix(0.6541 -0.7565 0.7565 0.6541 -7.9519 19.5026)" fill="#E3C021" cx="17.346" cy="18.445" rx="2.463" ry="4.809"/>
<path fill="#E3C021" d="M20.106,59.207c-0.373,0.457-1.054,0.519-1.521,0.135l-0.425-0.345c-0.47-0.382-0.549-1.061-0.178-1.518
	l24.209-29.765c0.373-0.458,1.054-0.518,1.522-0.137l0.425,0.346c0.468,0.382,0.548,1.061,0.177,1.518L20.106,59.207z"/>
<path fill="#E3C021" d="M46.183,28.88c-1.677,2.062-3.891,3.035-4.946,2.177c-1.055-0.858-0.551-3.224,1.126-5.285
	c1.674-2.06,3.888-3.034,4.943-2.176C48.36,24.453,47.859,26.82,46.183,28.88z"/>
</svg>
