<?xml version="1.0" encoding="utf-8"?>
<!-- Generator: Adobe Illustrator 16.0.3, SVG Export Plug-In . SVG Version: 6.00 Build 0)  -->
<!DOCTYPE svg PUBLIC "-//W3C//DTD SVG 1.1//EN" "http://www.w3.org/Graphics/SVG/1.1/DTD/svg11.dtd">
<svg version="1.1" id="Layer_1" xmlns="http://www.w3.org/2000/svg" xmlns:xlink="http://www.w3.org/1999/xlink" x="0px" y="0px"
	 width="60px" height="30px" viewBox="0 0 60 30" enable-background="new 0 0 60 30" xml:space="preserve">
<path fill="#F5F5F5" d="M7.486,19.953c0,0-5.088-2.954-5.909,3.119c-0.82,6.073,10.013,2.462,10.013,2.462V12.238l4.104,4.269
	l4.104-4.925v7.551c0,0-3.939-0.82-3.939,2.298c0,3.119,7.55,4.432,7.55-1.148c0-5.581,0-12.804,0-12.804s-0.164-3.775-3.446-2.298
	l-4.597,6.894L10.77,4.688c0,0-2.462-0.657-2.462,2.462c0,3.118,0,14.116,0,14.116"/>
<g>
	<path fill="#F5F5F5" d="M29.787,24.685h-3.144V10.37h3.144V24.685z"/>
	<path fill="#F5F5F5" d="M41.354,24.685H37.98l-1.438-4.602l-1.348,4.602h-3.004l2.476-8.136L32.83,10.37h3.024l1.118,4.152
		l1.247-4.152h2.825l-2.146,6.628L41.354,24.685z"/>
	<path fill="#F5F5F5" d="M46.902,24.685h-3.145V10.37h3.145V24.685z"/>
	<path fill="#F5F5F5" d="M56.453,15.371h-2.854v-2.835c0-0.232-0.146-0.35-0.435-0.35c-0.303,0-0.454,0.117-0.454,0.35v9.933
		c0,0.232,0.151,0.349,0.454,0.349c0.289,0,0.435-0.116,0.435-0.349v-3.534h2.854v3.634c0,0.679-0.333,1.223-0.998,1.632
		c-0.666,0.409-1.418,0.614-2.256,0.614c-2.423,0-3.634-0.858-3.634-2.575v-9.214c0-1.856,1.211-2.785,3.634-2.785
		c2.169,0,3.254,0.846,3.254,2.536V15.371z"/>
</g>
<path fill="#F5F5F5" d="M48.672,3.726c-0.788-1.256-2.846-1.519-4.595-0.586c-1.75,0.933-2.529,2.707-1.741,3.964
	s2.846,1.52,4.595,0.586C48.681,6.757,49.46,4.982,48.672,3.726z M45.556,7.467c-0.827,0-1.497-0.978-1.497-2.185
	c0-1.206,0.67-2.184,1.497-2.184c0.826,0,1.496,0.978,1.496,2.184C47.052,6.489,46.382,7.467,45.556,7.467z"/>
<path fill="#F5F5F5" d="M15.365,12.074l-4.359-7.43c0,0-1.35-0.256-2.152,0.584"/>
</svg>
