<?xml version="1.0" encoding="utf-8"?>
<!-- Generator: Adobe Illustrator 16.0.3, SVG Export Plug-In . SVG Version: 6.00 Build 0)  -->
<!DOCTYPE svg PUBLIC "-//W3C//DTD SVG 1.1//EN" "http://www.w3.org/Graphics/SVG/1.1/DTD/svg11.dtd">
<svg version="1.1" id="Layer_1" xmlns="http://www.w3.org/2000/svg" xmlns:xlink="http://www.w3.org/1999/xlink" x="0px" y="0px"
	 width="60px" height="30px" viewBox="0 0 60 30" enable-background="new 0 0 60 30" xml:space="preserve">
<g>
	<path d="M13.778,23.916h-3.471v-9.93l-2.023,9.93H5.612l-2.323-9.93v9.93H0.254V6.227H5.25l1.776,9.178l1.546-9.178h5.206V23.916z"
		/>
	<path d="M20.991,19.706h-3.886V6.227h3.886V19.706z"/>
	<path d="M47.94,23.916h-3.886V10.438h3.886V23.916z"/>
	<path d="M59.746,12.407h-3.528V8.904c0-0.288-0.181-0.432-0.534-0.432c-0.374,0-0.563,0.144-0.563,0.432v12.274
		c0,0.288,0.189,0.432,0.563,0.432c0.354,0,0.534-0.144,0.534-0.432v-4.367h3.528v4.49c0,0.839-0.411,1.514-1.233,2.016
		c-0.822,0.51-1.752,0.761-2.788,0.761c-2.993,0-4.49-1.062-4.49-3.183V9.508c0-2.294,1.497-3.441,4.49-3.441
		c2.681,0,4.021,1.044,4.021,3.133V12.407z"/>
</g>
<rect x="22.079" y="13.543" transform="matrix(-0.7071 -0.7071 0.7071 -0.7071 44.2107 49.3186)" width="20.481" height="3.919"/>
<path d="M23.141,23.406c0-1.76-1.834-2.857-4.095-2.459c-2.262,0.396-4.096,2.146-4.096,3.906c0,1.761,1.834,2.858,4.096,2.459
	C21.307,26.918,23.141,25.166,23.141,23.406z"/>
<path fill="#FFFFFF" d="M20.728,23.596c0-1.287-0.749-2.097-1.682-1.805c-0.934,0.291-1.682,1.578-1.682,2.865
	c0,1.296,0.749,2.105,1.682,1.813C19.979,26.178,20.728,24.891,20.728,23.596z"/>
<rect x="22.079" y="13.543" transform="matrix(-0.7071 0.7071 -0.7071 -0.7071 66.1352 3.6129)" width="20.481" height="3.919"/>
<path d="M50.091,5.343c0-1.758-1.834-2.858-4.095-2.459C43.734,3.28,41.9,5.03,41.9,6.788c0,1.76,1.834,2.86,4.096,2.463
	C48.257,8.852,50.091,7.103,50.091,5.343z"/>
<path fill="#FFFFFF" d="M47.678,5.534c0-1.289-0.749-2.099-1.682-1.807c-0.934,0.294-1.683,1.579-1.683,2.868
	c0,1.293,0.749,2.103,1.683,1.812C46.929,8.112,47.678,6.827,47.678,5.534z"/>
</svg>
