<?xml version="1.0" encoding="utf-8"?>
<!-- Generator: Adobe Illustrator 16.0.3, SVG Export Plug-In . SVG Version: 6.00 Build 0)  -->
<!DOCTYPE svg PUBLIC "-//W3C//DTD SVG 1.1//EN" "http://www.w3.org/Graphics/SVG/1.1/DTD/svg11.dtd">
<svg version="1.1" id="Layer_1" xmlns="http://www.w3.org/2000/svg" xmlns:xlink="http://www.w3.org/1999/xlink" x="0px" y="0px"
	 width="300px" height="300px" viewBox="0 0 300 300" enable-background="new 0 0 300 300" xml:space="preserve">
<g>
	<circle fill="#610C36" cx="149.798" cy="150.381" r="147.4"/>
	<g>
		<defs>
			<circle id="SVGID_1_" cx="149.798" cy="149.147" r="148.633"/>
		</defs>
		<clipPath id="SVGID_2_">
			<use xlink:href="#SVGID_1_"  overflow="visible"/>
		</clipPath>
		<g clip-path="url(#SVGID_2_)">
			<rect x="-7.873" y="0.818" fill="#F4F5F5" width="94.8" height="269.506"/>
			<rect x="101.141" y="0.818" fill="#F4F5F5" width="94.799" height="269.506"/>
			<rect x="212.671" y="0.818" fill="#F4F5F5" width="94.799" height="269.506"/>
			<path fill="#1B1026" d="M128.449,168.737c0,3.355-2.72,6.074-6.076,6.074h-56.64c-3.355,0-6.075-2.719-6.075-6.074V6.894
				c0-3.354,2.72-6.076,6.075-6.076h56.64c3.355,0,6.076,2.722,6.076,6.076V168.737z"/>
			<path fill="#1B1026" d="M247.066,168.737c0,3.355-2.721,6.074-6.076,6.074H184.35c-3.354,0-6.074-2.719-6.074-6.074V6.894
				c0-3.354,2.72-6.076,6.074-6.076h56.641c3.355,0,6.076,2.722,6.076,6.076V168.737z"/>
		</g>
	</g>
	<path fill="#F4F5F5" d="M101.141,270.324c0,0,12.39,14.434,49.398,14.434c37.01,0,45.4-14.434,45.4-14.434l-33.063-18.874
		L101.141,270.324z"/>
</g>
</svg>
