<?xml version="1.0" encoding="utf-8"?>
<!-- Generator: Adobe Illustrator 16.0.3, SVG Export Plug-In . SVG Version: 6.00 Build 0)  -->
<!DOCTYPE svg PUBLIC "-//W3C//DTD SVG 1.1//EN" "http://www.w3.org/Graphics/SVG/1.1/DTD/svg11.dtd">
<svg version="1.1" id="Layer_1" xmlns="http://www.w3.org/2000/svg" xmlns:xlink="http://www.w3.org/1999/xlink" x="0px" y="0px"
	 width="300px" height="300px" viewBox="-118 -118 300 300" enable-background="new -118 -118 300 300" xml:space="preserve">
<path fill="#1B1026" d="M32-118c82.841,0,150,67.156,150,150c0,82.847-67.159,150-150,150c-82.844,0-150-67.153-150-150
	C-118-50.844-50.844-118,32-118z"/>
<ellipse fill="none" stroke="#E4C021" stroke-miterlimit="10" cx="31.025" cy="33.258" rx="134.791" ry="134.791"/>
<g>
	<path fill="#FFFFFF" d="M-37.54-4.814c4.25-0.884,10.34-1.372,16.138-1.372c8.985,0,14.782,1.667,18.842,5.392
		C0.732,2.15,2.563,6.657,2.563,11.756c0,8.726-5.409,14.508-12.27,16.863v0.29c5.023,1.77,8.015,6.472,9.566,13.34
		c2.129,9.215,3.673,15.587,5.028,18.141h-8.699c-1.064-1.872-2.517-7.556-4.348-15.791c-1.937-9.12-5.416-12.553-13.046-12.842
		h-7.921V60.39h-8.409V-4.814H-37.54z M-29.13,25.285h8.596c8.985,0,14.689-5.002,14.689-12.548c0-8.534-6.088-12.261-14.979-12.356
		c-4.06,0-6.955,0.395-8.305,0.785V25.285z"/>
	<path fill="#FFFFFF" d="M48.204,29.404H22.889v23.825H51.11v7.161H14.478V-5.698h35.181V1.46H22.889v20.887h25.315V29.404z"/>
	<path fill="#FFFFFF" d="M107.563,58.234c-3.09,1.57-9.274,3.135-17.197,3.135c-18.36,0-32.184-11.769-32.184-33.435
		c0-20.691,13.823-34.705,34.019-34.705c8.111,0,13.238,1.762,15.462,2.942l-2.032,6.959c-3.186-1.565-7.735-2.745-13.146-2.745
		c-15.269,0-25.413,9.906-25.413,27.254c0,16.18,9.183,26.574,25.03,26.574c5.121,0,10.344-1.087,13.723-2.749L107.563,58.234z"/>
</g>
</svg>
