<?xml version="1.0" encoding="utf-8"?>
<!-- Generator: Adobe Illustrator 16.0.3, SVG Export Plug-In . SVG Version: 6.00 Build 0)  -->
<!DOCTYPE svg PUBLIC "-//W3C//DTD SVG 1.1//EN" "http://www.w3.org/Graphics/SVG/1.1/DTD/svg11.dtd">
<svg version="1.1" id="Layer_1" xmlns="http://www.w3.org/2000/svg" xmlns:xlink="http://www.w3.org/1999/xlink" x="0px" y="0px"
	 width="500px" height="80px" viewBox="0 0 500 80" enable-background="new 0 0 500 80" xml:space="preserve">
<g>
	<path fill-rule="evenodd" clip-rule="evenodd" fill="#ABABAB" d="M333.346,26.184c0.102-0.17,0.204-0.341,0.306-0.512
		c0.185-0.31,0.37-0.705,0.8-0.566c0.399,0.129,0.601,0.486,0.614,0.939c0.025,0.864,0.294,1.665,0.615,2.589
		c0.491-0.607,0.126-1.218,0.538-1.953c-0.201,1.336,0.613,0.971,1.154,1.028c0.683,0.072,0.753-0.419,0.773-0.916
		c0.013-0.315,0.09-0.567,0.459-0.564c0.429,0.003,0.489,0.306,0.518,0.655c0.061,0.753,0.141,1.504,0.224,2.255
		c0.039,0.354,0.225,0.613,0.603,0.629c0.434,0.019,0.291-0.372,0.396-0.599c0.331-0.714-0.116-1.405-0.027-2.109
		c0.03-0.242,0.014-0.522,0.319-0.557c0.31-0.035,0.422,0.219,0.39,0.472c-0.077,0.614,0.408,0.902,0.751,1.417
		c0.268-0.429,0.511-0.803,0.738-1.186c0.208-0.352,0.576-0.456,0.774-0.157c0.859,1.294,1.282,0.495,1.734-0.308
		c0.154-0.274,0.279-0.675,0.645-0.618c0.384,0.06,0.038,0.568,0.369,0.857c0.177-1.637-0.254-3.273,0.495-4.762
		c0.296,2.748,1.136,5.357,1.506,8.094c0.087-0.054,0.247-0.119,0.241-0.154c-0.189-1.029,0.974-1.726,0.68-2.784
		c-0.055-0.2,0.07-0.402,0.317-0.413c0.33-0.015,0.378,0.225,0.378,0.481c0.001,0.32-0.007,0.64-0.012,0.959
		c-0.011,0.754,0.262,1.073,1.023,0.685c0.31-0.159,0.651-0.418,0.915,0.069c0.453,0.84,0.742,0.332,1.113-0.097
		c0.871-1.003,0.534-2.253,0.721-3.537c0.617,0.399,0.424,0.95,0.551,1.394c0.175,0.61-0.608,1.558,0.609,1.835
		c0.054,0.012,0.073,0.377,0.031,0.56c-0.105,0.455-0.176,1.016,0.35,1.092c0.586,0.084,0.717-0.491,0.748-1
		c0.004-0.074,0.057-0.146,0.087-0.22c0.426-0.026,0.323,0.38,0.472,0.579c0.201,0.27,0.224,0.808,0.675,0.708
		c0.446-0.099,0.699-0.494,0.684-1c-0.024-0.822,0.17-1.634-0.019-2.474c-0.109-0.488,0.068-1.176,0.654-1.203
		c0.525-0.023,0.503,0.629,0.516,1.059c0.019,0.64,0.04,1.27,0.409,1.89c0.043-0.157,0.092-0.264,0.1-0.374
		c0.022-0.3-0.099-0.745,0.421-0.635c0.383,0.081,0.225,0.42,0.146,0.691c-0.193,0.666-0.212,1.297,0.588,1.967
		c0-1.292,0-2.378,0-3.465c0.335,0.965,0.144,1.984,0.637,3.013c0.499-1.043,1.577-1.725,1.443-3.08
		c0.509,1.32,0.211,2.854,1.141,4.102c0.867-1.237,0.013-2.754,0.822-3.915c0.406,0.023,0.267,0.333,0.308,0.532
		c0.116,0.563,0.365,1.155,0.854,1.35c0.569,0.226,0.537-0.569,0.759-0.856c0.374-0.483,1.347-0.465,1.225-1.372
		c0.077,1.082,0.154,2.164,0.236,3.313c0.532-0.162,0.772-0.506,0.833-1.016c0.043-0.367-0.08-1.039,0.347-0.964
		c0.448,0.079,0.831,0.636,1.193,1.029c0.108,0.117,0.051,0.385,0.075,0.583c0.027,0.225-0.03,0.562,0.293,0.539
		c0.149-0.011,0.278-0.322,0.452-0.542c0.07,0.107,0.153,0.187,0.179,0.28c0.294,1.119,0.954,1.28,1.938,0.651
		c1.281-0.817,0.914-2.132,0.947-3.197c0.054-1.733,0.215-3.443,0.527-5.177c0.904,3.084,0.593,6.346,1.411,9.583
		c0.325-0.659,1.112-0.971,0.588-1.873c-0.251-0.432,0.196-0.566,0.592-0.636c0.386-0.068,0.819-0.33,0.92,0.303
		c0.121,0.752,0.684,1.368,0.544,2.314c0.44-0.602,0.78-1.063,1.138-1.551c0.584,0.495,0.051,1.248,0.575,1.716
		c1.099-0.82,1.017-1.956,0.871-3.123c-0.194-1.562-0.11-3.122,0.182-4.689c0.149,2.137,0.299,4.274,0.456,6.535
		c1.008-1.218,1.363-1.207,2.617-0.057c0.258,0.237,0.198,0.899,0.797,0.668c0.505-0.194,0.286-0.756,0.43-1.191
		c0.12,0.274,0.169,0.621,0.313,0.667c0.366,0.117,0.261-0.266,0.338-0.457c0.078-0.194,0.196-0.365,0.439-0.292
		c0.239,0.07,0.27,0.292,0.238,0.489c-0.141,0.891,0.44,1.574,0.633,2.41c0.264-1.43,0.981-2.727,0.733-4.189
		c0.107,0.008,0.214,0.016,0.321,0.023c0.446,0.656,0.235,1.397,0.24,2.1c0.006,0.683,0.185,1.295,0.424,2.088
		c0.58-1.243,1.31-1.229,2.162-0.615c0.554,0.399,1.398-0.018,1.888,0.829c0.188,0.322,0.541-0.377,0.559-0.733
		c0.042-0.875,0.014-1.754,0.074-2.646c0.136,0.51,0.363,0.974,0.551,1.451c0.189,0.483,0.194,1.012,0.888,1.088
		c0.702,0.076,0.27-0.788,0.765-0.86c0.507,0.232,0.212,0.841,0.518,1.133c0.21,0.202,0.254,0.591,0.637,0.606
		c0.014-0.447,0.778-0.28,0.674-0.812c-0.233-1.191,0.791-2.176,0.542-3.368c0.131-0.005,0.262-0.011,0.394-0.017
		c0.006,0.439,0.099,0.898,0.003,1.314c-0.381,1.664,1.075,2.218,1.945,2.968c0.522,0.45,0.708-0.418,0.708-0.921
		c0.001-1.957-0.02-3.913-0.025-5.869c-0.005-1.947-0.001-3.894-0.001-5.918c0.449,0.31,0.134,0.732,0.342,1.01
		c0.334-0.01,0.041-0.45,0.25-0.483c0.817,2.295,0.395,4.699,0.69,7.025c0.191,1.498,0.221,3.083,0.874,4.516
		c0.084,0.182,0.291,0.457,0.335,0.323c0.293-0.904,0.764-0.101,1.128-0.164c0.578-0.101,1.374,0.292,1.586-0.674
		c0.352,0.08,0.825-1.058,1.071,0.111c0.058,0.277,0.313,0.461,0.523,0.302c0.331-0.248,0.684-0.514,0.67-1.045
		c-0.04-1.556-0.037-3.114-0.05-4.67c0.099,0.001,0.197,0.001,0.296,0.002c0.388,0.672,0.186,1.407,0.191,2.11
		c0.014,1.395-0.011,2.788,0.281,4.164c0.06,0.285,0.085,0.597,0.463,0.558c0.332-0.034,0.281-0.352,0.268-0.569
		c-0.057-0.962,0.385-1.871,0.34-2.865c-0.039,0.977,0.557,1.732,0.779,2.606c0.075,0.297-0.024,0.694,0.44,0.709
		c0.465,0.016,0.347-0.461,0.523-0.692c0.195-0.255-0.001-0.649,0.41-0.944c0.081,0.865,1.34,0.855,1.222,1.888
		c-0.018,0.158,0.291,0.255,0.5,0.208c0.305-0.069,0.309-0.328,0.303-0.57c-0.01-0.481-0.379-0.971,0.047-1.512
		c0.452,0.445,0.038,1.036,0.45,1.614c0.589-2.396,0.065-4.718,0.397-6.985c0.126,2.371,0.757,4.675,0.712,7.139
		c0.493-0.149,0.452-0.467,0.564-0.691c0.625,0.145,0.402,1.228,1.128,1.131c0.578-0.078,0.765-0.73,1.148-1.415
		c0.514,1.675,2.075,1.258,3.116,1.857c0.346,0.199,0.363-0.292,0.37-0.544c0.02-0.798,0.016-1.598,0.021-2.397
		c0.075-0.002,0.15,0.001,0.226,0.009c-0.063,0.92,0.42,1.688,0.755,2.479c0.281,0.666,0.723,1.548,1.15-0.123
		c0.388,0.588,0.812,0.88,1.272,1.101c0.49,0.234,0.965,0.419,1.174-0.396c0.16-0.624,0.616-0.485,1.022-0.208
		c0.219,0.149,0.357,0.519,0.678,0.378c0.382-0.167,0.201-0.568,0.201-0.857c0.014-4.426,0.01-8.853,0.01-13.279
		c0-0.354,0-0.707,0-1.06c0.063-0.001,0.126-0.002,0.188-0.002c0,1.517,0,3.033,0,4.621c0.749-0.381,0.327-1.081,0.787-1.791
		c0,1.271-0.001,2.271,0,3.271c0.003,2.152,0.539,4.271,0.651,6.371c0.115,2.148,1.372,2.696,2.779,3.446
		c0.271,0.144,0.572,0.188,0.781-0.02c0.338-0.336,0.549-0.444,1.086-0.208c0.403,0.177,0.933-0.281,0.901-0.956
		c-0.09-1.992,0.156-3.992-0.15-5.982c-0.075-0.485-0.19-1.009,0.255-1.488c0.189,1.377,0.169,2.775,0.327,4.153
		c0.132,1.147,0.05,2.317,0.142,3.47c0.088,1.1,0.639,1.487,1.741,1.312c0.968-0.154,1.894-0.347,2.862,0.166
		c0.644,0.341,1.548-0.385,1.673-1.169c0.203-1.277-0.104-2.539-0.084-3.815c0.055-3.632,0.02-7.266,0.138-10.901
		c0.105,2.864,0.208,5.729,0.317,8.592c0.074,1.946,0.152,3.891,0.241,5.836c0.026,0.579,1.536,1.725,2.172,1.563
		c0.474-0.12,0.959-0.073,1.41-0.215c0.81-0.257,1.606-0.834,2.394,0.035c0.902-0.946,2.17,1.207,3-0.354
		c0.341,0.371,0.927,0.224,1.246,0.533c0.28,0.271,0.657,0.409,0.835,0.227c0.634-0.648,1.6-0.102,2.217-0.696
		c0.035-0.034,0.188-0.021,0.2,0.007c0.527,1.191,1.407,0.189,2.101,0.339c1.095,0.238,2.188,0.447,3.325,0.426
		c2.184-0.042,4.399-0.262,6.549,0.009c6.969,0.876,13.961,0.678,20.949,0.731c0.563,0.004,0.563,0.007,1.319,0.383
		c-3.778,0.041-7.536,0.25-11.297,0.45c-3.647,0.194-7.294,0.312-10.898,0.958c-0.154,0.027-0.319,0.046-0.473,0.023
		c-1.101-0.164-2.24-0.108-3.226,0.287c-0.962,0.387-1.789-0.058-2.564-0.205c-1.451-0.276-2.797,0.939-4.195,0.106
		c-1.197,0.886-2.552,0.287-3.829,0.42c-0.937,0.098-0.658,1.065-1.025,1.578c-0.088,0-0.176,0-0.264,0
		c-0.049-0.474-0.098-0.946-0.151-1.461c-0.411-0.057-0.772,0.151-1.233,0.071c-0.856-0.149-1.828-0.165-2.74-0.092
		c-0.309,0.025-0.58,0.499-0.857,0.756c-0.297-0.572-2.345-1.022-3.173-0.568c-0.94,0.516-1.545,0.989-1.479,2.462
		c0.144,3.205-0.001,6.448-0.345,9.661c-0.056,0.005-0.112,0.009-0.168,0.012c-0.088-3.631-0.183-7.262-0.262-10.894
		c-0.035-1.568-0.05-1.529-1.428-0.912c-0.465,0.209-1.471,0.197-1.666,0.092c-1.122-0.605-2.031,0.094-2.99,0.263
		c-0.604,0.106-0.462,0.83-0.353,1.24c0.453,1.709,0.05,3.421,0.05,5.124c-0.001,0.714-0.021,1.5-0.357,2.227
		c0-1.629,0.025-3.258-0.01-4.885c-0.021-0.953-0.112-1.907-0.229-2.854c-0.036-0.29-0.188-0.676-0.411-0.807
		c-0.35-0.206-0.491,0.293-0.757,0.433c-0.701,0.371-1.371,1.099-2.173,0.154c-0.306-0.36-0.787-0.228-0.95,0.01
		c-0.412,0.599-0.979,1.1-1.025,1.949c-0.216,3.886-0.494,7.77-0.75,11.653c-0.024,0.38-0.051,0.759-0.091,1.338
		c-0.406-0.634-0.247-1.155-0.272-1.632c-0.196-3.831-0.777-7.644-0.554-11.498c0.025-0.441,0.253-1.086-0.176-1.322
		c-0.494-0.272-0.811,0.403-1.17,0.664c-0.387-0.28-0.264-0.632-0.317-0.932c-0.049-0.272-0.202-0.507-0.471-0.378
		c-1.189,0.567-2.494,0.745-3.726,1.162c-0.3,0.102-0.125,0.495-0.127,0.748c-0.019,2.144,0.067,4.291-0.497,6.414
		c0-2.22,0.005-4.439-0.004-6.658c-0.002-0.645-0.407-0.305-0.585-0.508c-0.732-0.83-1.185,0.772-1.91,0.053
		c-0.34-0.336-0.511,0.518-0.77,0.816c-0.922-0.841-1.139-0.768-2.151,0.691c-0.555-0.215-0.104-0.943-0.65-1.213
		c-0.367,0.718-0.349,1.494-0.396,2.256c-0.14-0.004-0.278-0.009-0.417-0.014c-0.419-0.704-0.114-1.646-0.778-2.29
		c-0.146-0.141-0.157-0.462-0.44-0.476c-0.364-0.018-0.41,0.269-0.499,0.551c-0.231,0.736-0.225,1.606-1.133,2.058
		c-0.192-0.617-0.413-1.247-1.158-1.602c-0.267,1.049,0.023,2.201-0.621,3.27c-0.854-1.096-0.235-2.707-1.654-3.639
		c-0.202,2.527-0.396,4.951-0.591,7.376c-0.044-0.001-0.088-0.002-0.132-0.004c0-1.554,0.005-3.108-0.003-4.663
		c-0.002-0.431,0.089-0.89-0.264-1.251c-0.209-0.213-0.093-0.678-0.541-0.705c-0.48-0.029-0.416,0.398-0.535,0.661
		c-0.126,0.279-0.292,0.474-0.626,0.454c-0.234-0.015-0.363-0.147-0.397-0.368c-0.059-0.383-0.04-1.031-0.503-0.915
		c-0.78,0.195-1.789-0.253-2.324,0.574c-0.306,0.472-0.588,1.035-0.563,1.676c0.115,3.069-0.773,6.089-0.472,9.169
		c0.101,1.019-0.603,1.888-0.722,2.928c-0.084-0.992-0.161-1.984-0.255-2.977c-0.279-2.988-0.178-5.985-0.193-8.979
		c-0.003-0.646-0.104-1.167-0.774-1.505c-0.491,0.401-0.004,1.141-0.513,1.498c-0.56-0.346-0.243-1.051-0.822-1.682
		c-0.525,1.904-0.324,3.724-0.713,5.483c-0.32-1.812-0.169-3.655-0.682-5.701c-0.637,0.969-1.171,1.622-1.448,2.461
		c-0.554-0.302-0.313-0.755-0.36-1.11c-0.061-0.466-0.221-0.75-0.736-0.744c-0.579,0.008-0.47,0.437-0.473,0.772
		c-0.011,1.295-0.004,2.591-0.004,4.179c-0.619-0.906-0.605-0.907-0.725-2.447c-0.081-1.044-0.175-2.101-1.366-2.567
		c-0.24,0.337,0.106,0.905-0.412,1.159c-0.46-0.071-0.267-0.628-0.703-0.895c-0.076,1.067-1.456,1.028-1.422,2.172
		c-0.495-0.302-0.376-0.662-0.39-0.95c-0.02-0.426-0.084-0.562-0.604-0.578c-0.58-0.019-0.597,0.262-0.617,0.619
		c-0.037,0.639-0.045,1.278-0.047,1.918c-0.006,1.615-0.002,3.23-0.161,4.848c-0.402-2.41-0.234-4.844-0.321-7.383
		c-0.385,0.551,0.023,1.591-1.188,1.429c-0.414-0.055-0.175,0.743-0.241,1.148c-0.058,0.352-0.015,0.82-0.504,0.787
		c-0.383-0.026-0.393-0.461-0.37-0.775c0.059-0.821-0.095-1.563-0.61-2.233c-0.167-0.217-0.218-0.555-0.584-0.45
		c-0.333,0.097-0.328,0.41-0.343,0.692c-0.048,0.9,0.144,1.828-0.305,2.745c-0.185-0.54-0.327-1.031-0.524-1.5
		c-0.111-0.265,0.077-0.883-0.553-0.647c-0.377,0.141-1.033,0.053-0.868,0.85c0.213,1.027-1.065,1.581-0.803,2.663
		c-0.421-1.148-0.036-2.324-0.437-3.421c-0.087-0.236,0.05-0.654-0.367-0.624c-0.33,0.024-0.369,0.367-0.388,0.654
		c-0.021,0.321-0.012,0.733-0.404,0.775c-1.294,0.139-1.573,1.002-1.622,2.087c-0.006,0.128-0.157,0.25-0.284,0.438
		c-0.516-0.745-0.284-1.523-0.381-2.246c-0.072-0.538,0.231-1.429-0.585-1.432c-0.818-0.002-1.458,0.65-1.5,1.563
		c-0.071,1.556-0.168,3.121-0.071,4.672c0.129,2.051-0.845,3.916-0.791,5.938c-0.329-3.225-0.516-6.452-0.362-9.675
		c0.047-0.993-0.645-1.291-1.02-1.896c-0.02-0.031-0.057-0.09-0.063-0.086c-0.491,0.224-0.897,0.949-1.54,0.252
		c-0.217,0.583-0.95,0.753-1.029,1.529c-0.074,0.725-0.513,1.413-0.779,2.09c-0.371-0.044-0.369-0.254-0.405-0.448
		c-0.074-0.401,0.162-0.959-0.426-1.12c-0.586-0.161-0.801,0.376-1.138,0.702c-0.262,0.254-0.168,1.124-0.853,0.675
		c-0.618-0.405-0.556,0.841-1.224,0.355c-0.454-0.331-0.573-0.821-0.916-1.186c-0.229-0.243-0.241-0.825-0.64-0.766
		c-0.552,0.081-0.271,0.641-0.32,0.996c-0.046,0.325-0.033,0.695-0.506,0.621c-0.354-0.057-0.87,0.084-0.906-0.53
		c-0.019-0.324-0.039-0.64-0.306-0.874c-0.178-0.156-0.527-0.386-0.563-0.104c-0.145,1.155-0.835,0.528-1.312,0.438
		c-0.587-0.11-0.502,0.261-0.388,0.525c0.419,0.971-0.442,1.734-0.387,2.646c0.013,0.21-0.246,0.311-0.461,0.235
		c-0.403-0.141-0.687-0.386-0.679-0.868c0.017-0.998-0.002-1.992-0.221-2.977c-0.072-0.326-0.054-0.65-0.519-0.632
		c-0.57,0.024-0.191,0.395-0.265,0.609c-0.197,0.573-1.293,0.594-0.807,1.768c-0.521-0.429-0.77-0.718-0.817-1.101
		c-0.066-0.535,0.031-1.11-0.851-0.972c-0.87,0.137-0.01,0.849-0.521,1.053c-0.443-0.528-0.792-0.104-1.034,0.329
		c-0.341,0.609-0.538,1.163-0.965,0.031c-0.172-0.453-0.862-1.01-1.17-0.772c-0.44,0.34-1.413,0.635-0.935,1.609
		c0.068,0.14,0.117,0.309,0.112,0.462c-0.021,0.539,0.086,1.36-0.536,1.395c-0.629,0.035-0.228-0.761-0.351-1.171
		c-0.09-0.3-0.047-0.65-0.178-0.923c-0.194-0.402,0.069-1.317-0.729-1.08c-0.61,0.182-0.716,1.087-0.461,1.556
		c0.559,1.03,0.128,1.42-0.76,1.725c-0.745,0.256-0.42,0.939-0.545,1.443c-0.064,0.002-0.129,0.002-0.192-0.003
		c-0.603-0.283-0.47-0.83-0.512-1.338c-0.078-0.965,0.075-2.022-1.093-2.561c-0.42-0.193-0.275-0.705-0.307-1.095
		c-0.016-0.195-0.015-0.414-0.274-0.463c-0.236-0.045-0.333,0.083-0.43,0.294c-0.804,1.744-2.329,2.034-3.771,0.732
		c-0.325,0.171,0.086,0.89-0.337,0.75c-0.939-0.312-2.398-0.069-2.189-1.79c-0.493-0.043-0.916,1.719-1.191-0.006
		c-0.279,0.106-0.477,0.324-0.871,0.249c-0.345-0.064-0.099,0.249-0.02,0.386c0.257,0.443,0.206,0.788-0.196,1.151
		c-0.295,0.268-0.436,0.664-0.26,1.098c0.15,0.37,0.168,0.757-0.306,0.863c-0.482,0.109-0.919-0.105-0.985-0.618
		c-0.121-0.937-0.139-1.886-0.223-2.828c-0.036-0.4,0.071-0.85-0.375-1.41c-0.296,1.462-0.146,2.718-0.13,3.956
		c0.016,1.279-0.418,2.51-0.464,3.795c0-1.829,0-3.658,0-5.595c-1.067,0.833-1.358,0.084-1.662-0.559
		c-0.097-0.204-0.036-0.499-0.367-0.518c-0.257-0.015-0.328,0.17-0.357,0.382c-0.037,0.272-0.024,0.626-0.445,0.531
		c-0.369-0.083-0.272-0.439-0.288-0.702c-0.018-0.316-0.004-0.634-0.004-1.019c-0.528,0.45-0.836,0.896-0.739,1.553
		c0.053,0.363,0.036,0.803-0.403,0.886c-0.646,0.122-0.538,0.568-0.568,0.997c-0.021,0.29,0.079,0.727-0.433,0.661
		c-0.35-0.045-0.536-0.314-0.531-0.689c0.005-0.359,0.006-0.719-0.006-1.077c-0.01-0.316,0.005-0.722-0.421-0.728
		c-0.423-0.005-0.435,0.429-0.456,0.724c-0.032,0.432-0.074,0.903,0.062,1.298c0.211,0.614-0.096,0.859-0.563,0.944
		c-0.621,0.113-0.707-0.343-0.712-0.83c-0.007-0.825-0.043-1.646-0.522-2.545c-0.472,0.702-0.234,1.291-0.093,1.879
		c0.213,0.883,0.155,1.527-1.012,1.674c-0.604,0.075-1.43-0.122-1.699,0.892c-0.547-0.748-0.545-1.424-0.492-2.081
		c0.068-0.856-0.099-1.494-1.276-1.594c0.319,2.734-0.587,5.355-0.704,8.072c-0.383-0.97-0.154-1.986-0.262-2.973
		c-0.108-0.998,0.5-2.604-0.246-2.874c-1.331-0.481-0.161-2.135-1.497-2.284c-0.275,0.218-0.029,0.472-0.022,0.724
		c0.02,0.652,0.056,1.319-0.955,1.283c-0.123-0.004-0.378-0.239-0.662,0.066c-0.472,0.508-0.746,0.403-0.823-0.274
		c-0.109-0.955-0.584-1.832-0.544-2.812c0.01-0.236-0.011-0.517-0.329-0.544c-0.441-0.037-0.383,0.313-0.382,0.578
		c0.002,0.719,0.005,1.438,0.043,2.156c0.015,0.279,0.154,0.645-0.192,0.714c-0.474,0.095-0.429-0.394-0.475-0.663
		c-0.091-0.544-0.105-1.101-0.161-1.776c-0.443,0.481-0.107,0.996-0.311,1.399c-0.63-0.137-0.163-0.883-0.771-1.244
		c0,0.882,0,1.646,0,2.461c-0.405-0.135-0.314-0.354-0.332-0.521c-0.036-0.348,0.05-0.79-0.514-0.741
		c-0.44,0.038-0.419,0.408-0.433,0.728c-0.009,0.2-0.002,0.4-0.01,0.6c-0.025,0.72-0.153,1.47-1.032,1.478
		c-0.904,0.009-1.23-0.826-1.218-1.511c0.024-1.403-0.449-2.749-0.358-4.148c0.018-0.265,0.049-0.631-0.341-0.645
		c-0.279-0.01-0.394,0.285-0.362,0.528c0.181,1.396-0.556,2.437-1.195,3.576c-0.37,0.659-0.269,1.582-0.38,2.387
		c-0.116-0.002-0.232-0.003-0.349-0.005c0-1.197,0.024-2.395-0.018-3.589c-0.01-0.281,0.294-0.806-0.289-0.843
		c-0.498-0.032-0.499,0.414-0.484,0.78c0.016,0.361-0.024,0.36-0.424,0.287c-0.615-0.112-0.469,0.519-0.459,0.862
		c0.018,0.597-0.157,1.08-0.765,1.153c-0.705,0.086-0.694-0.507-0.698-0.99c-0.004-0.453-0.172-0.592-0.648-0.609
		c-0.655-0.024-0.593,0.367-0.595,0.77c-0.002,0.953,0,1.906-0.146,2.879c-0.362-1.302-0.271-2.679-0.717-3.996
		c0.066,0.924-0.78,1.561-0.866,2.258c-0.117,0.946-0.254,1.967-0.111,2.969c0.118,0.826,0.111,1.672,0.137,2.51
		c0.008,0.256,0.121,0.666-0.252,0.696c-0.488,0.041-0.372-0.421-0.376-0.704c-0.027-2.2-0.037-4.399-0.052-6.599
		c-0.002-0.274-0.001-0.55-0.001-1.115c-0.382,0.738-0.205,1.263-0.328,1.734c-0.111,0.43-0.034,1.02-0.771,0.989
		c-0.677-0.028-0.789-0.536-0.767-1.004c0.058-1.166-0.199-2.268-0.501-3.374c-0.133-0.489-0.249-0.893-0.884-0.93
		c-0.74-0.043-0.523,0.504-0.65,0.878c-0.265,0.782,0.068,1.838-1.01,2.266c-0.048,0.02-0.081,0.271-0.033,0.314
		c1.298,1.135-0.565,1.581-0.487,2.475c-0.463-1.246-1.391-2.262-1.322-3.678c-0.661,0.292-0.383,0.797-0.428,1.192
		c-0.078,0.685-0.574,1.081-1.123,1.091c-0.681,0.013-0.502-0.679-0.537-1.123c-0.096-1.216,0.209-2.478-0.363-3.634
		c-0.118-0.237-0.089-0.812-0.517-0.641c-0.396,0.159-0.968,0.111-1.154,0.721c-0.121,0.395-0.151,0.774-0.167,1.174
		c-0.023,0.573,0.114,1.143-0.729,1.422c-0.542,0.179-0.484,0.96-0.438,1.495c0.064,0.741-0.256,1.177-0.913,1.324
		c-0.725,0.162-1.236-0.079-1.655-0.81c-0.395-0.688-0.067-1.544-0.793-2.271c-0.384,0.898-0.472,1.775-0.475,2.626
		c-0.004,0.914-0.434,1.402-1.255,1.392c-0.787-0.01-1.552-0.223-1.604-1.307c-0.029-0.606,0.077-1.263-0.253-1.854
		c-0.378,0.134-0.24,0.414-0.292,0.614c-0.136,0.524-0.081,1.104-0.46,1.557c-0.441-0.528-1.303-0.5-1.634-1.112
		c-0.671-1.242-1.681-1.331-2.948-1.249c-0.663,0.044-1.132-0.048-1.291,0.729c-0.243-0.15-0.009-0.614-0.35-0.623
		c-0.436-0.011-0.325,0.391-0.318,0.63c0.062,1.878-0.592,3.684-0.485,5.564c-0.502-2.749-0.036-5.6-1.005-8.29
		c-1.492,1.402-0.888,3.389-1.502,5.118c-2.019-1.188-1.438-3.751-2.973-5.078c-0.021,0.237,0.013,0.551-0.092,0.81
		c-0.103,0.256-0.375,0.429-0.686,0.365c-0.261-0.054-0.411-0.258-0.396-0.524c0.027-0.49-0.169-0.935-0.24-1.398
		c-0.079-0.52-0.099-0.986-0.792-0.891c-0.602,0.084-0.912,0.479-0.944,1.063c-0.03,0.569-0.007,1.142-0.007,1.766
		c-0.575-0.314-0.169-0.785-0.351-1.123c-0.107-0.2-0.077-0.498-0.418-0.469c-0.322,0.026-0.356,0.281-0.357,0.522
		c-0.005,0.72,0.003,1.439,0.012,2.159c0.008,0.556,0.045,1.117-0.563,1.596c-0.298-0.863-0.782-1.592-0.684-2.544
		c0.035-0.342,0.302-0.986-0.455-0.985c-0.725,0.002-0.466,0.585-0.498,0.982c-0.01,0.117-0.02,0.235-0.031,0.369
		c-0.342-0.075-0.075-0.589-0.407-0.578c-0.316,0.01-0.295,0.32-0.294,0.552c0.001,0.72,0.009,1.439,0.026,2.159
		c0.009,0.38-0.142,0.974-0.396,0.888c-1.02-0.343-1.678,0.48-2.526,0.613c-0.606,0.096-0.876-0.093-0.987-0.806
		c-0.173-1.104,0.033-2.289-0.545-3.521c-0.341,1.062,0.164,2.025-0.544,3.102c-0.049-1.39-0.04-2.565-0.609-3.907
		c-0.36,1.271-0.032,2.344-0.43,3.37c-0.369-1.313-0.341-2.687-0.754-4.06c-0.521,0.985-1.166,1.86-0.697,3.058
		c0.151,0.387-0.041,0.741-0.439,1.006c-0.667,0.442-1.219,1.01-2.134,1.038c-0.387,0.012-0.204-0.182-0.288-0.273
		c-0.63-0.685-0.779-1.567-0.783-2.414c-0.006-1.32-1.124-1.189-1.759-1.237c-0.744-0.055-0.492,0.827-0.527,1.346
		c-0.047,0.714,0.07,1.449-0.285,2.116c-0.148,0.278-0.315,0.598-0.681,0.602c-0.34,0.003-0.345-0.426-0.521-0.55
		c-1.322-0.936-1.12-2.71-2.271-4.091c0.141,1.512-0.148,2.679-0.416,3.895c-0.402-0.151-0.372-0.463-0.302-0.753
		c0.246-1.028,0.073-2.071,0.128-3.105c0.018-0.34,0.076-0.59-0.501-0.669c-0.552-0.075-0.571-0.851-0.86-1.371
		c0.229,1.439-0.132,2.794-0.486,4.281c-0.591-0.854-0.783-1.766-1.054-2.979c-0.4,1.378-0.941,2.375-0.571,3.562
		c0.104,0.331-0.023,0.802-0.454,0.848c-0.503,0.055-0.381-0.429-0.372-0.705c0.028-0.836-1.018-0.77-1.223-1.489
		c-0.059-0.206-0.522,0.284-0.615,0.629c-0.172,0.643-0.143,1.3-0.443,1.955c-0.336,0.732-0.836,0.729-1.338,0.585
		c-0.714-0.205-0.253-0.651-0.087-1.033c0.114-0.264,0.113-0.552-0.258-0.692c-0.271,0.269-0.332,0.632-0.335,0.967
		c-0.009,0.898-0.57,1.023-1.282,1.028c-0.743,0.006-0.871-0.419-0.976-1.064c-0.208-1.268,0.005-2.61-0.735-3.796
		c-0.601-0.963-0.815-1.001-1.599-0.033c-0.41-0.089-0.031-0.637-0.482-0.747c-0.594,1.138,0.091,2.468-0.397,3.641
		c-0.433-0.157-0.227-0.439-0.279-0.645c-0.062-0.239,0.072-0.657-0.371-0.594c-0.419,0.06-0.32,0.331-0.156,0.621
		c0.147,0.261-0.172,0.394-0.289,0.397c-0.598,0.021-0.772,0.464-0.981,0.887c-0.228,0.46-0.546,0.602-1.076,0.464
		c-0.53-0.138-0.55-0.47-0.562-0.893c-0.039-1.371,0.146-2.764-0.308-4.061c-1.589,0.637-2.837,1.508-2.746,3.455
		c-0.042-0.576-0.085-1.153-0.128-1.73c-0.269,0.659-0.329,1.365-1.068,1.646c-0.021-0.986,0.191-2.06-0.721-2.853
		c-0.92,1.261-0.43,2.856-0.907,4.341c-0.862-0.863-1.042-0.304-1.215,0.522c-0.381,1.821,0.06,3.705-0.561,5.854
		c0.061-3.646-0.45-6.93-0.263-10.235c0.057-1.002-0.14-1.569-1.276-1.092c-0.715,0.302-0.649-0.275-0.627-0.612
		c0.044-0.675-0.282-1.012-0.928-1.279c0.273,2.664-0.075,5.238-0.145,7.832c-0.558-0.874-0.205-1.956-0.686-2.835
		c-0.211-0.386-0.106-1.089-0.983-0.776c-0.491,0.176-0.279-0.56-0.654-0.813c-0.795,0.835-1.296,0.53-1.77-0.459
		c-0.338-0.705-0.53-1.607-1.487-1.877c-0.247,0.525-0.362,1.063-0.15,1.686c0.158,0.463,0.154,1.013-0.454,1.189
		c-0.688,0.198-0.819-0.379-0.891-0.838c-0.115-0.737-0.567-1.354-0.603-2.137c-0.029-0.636-1.777-1.781-2.447-1.892
		c-0.876-0.145-0.964,0.37-1.05,1.011c-0.054,0.4,0.17,1.026-0.396,1.123c-0.477,0.082-0.16-0.69-0.611-0.884
		c-0.202-0.087-0.257-0.516-0.429-0.9c-0.467,0.979-0.798,1.867-0.699,2.876c0.026,0.262,0.074,0.623-0.302,0.68
		c-0.345,0.053-0.463-0.274-0.549-0.532c-0.074-0.223-0.017-0.493-0.109-0.702c-0.297-0.68-0.522-1.448-1.531-1.366
		c-0.995,0.081-0.745,0.934-0.83,1.455c-0.094,0.579-0.154,1.091-0.665,1.439c-0.303-0.179,0.125-0.794-0.439-0.798
		c-0.486-0.004-0.59,0.32-0.674,0.78c-0.175,0.948-0.358,1.883-0.119,2.838c0.078,0.312,0.069,0.647-0.261,0.668
		c-0.418,0.026-0.274-0.396-0.295-0.643c-0.053-0.62-0.197-1.105-0.847-1.439c-0.545-0.281-0.304-1.156-0.91-1.719
		c-0.234,0.876-0.443,1.618-0.627,2.367c-0.069,0.28-0.096,0.599-0.476,0.542c-0.309-0.046-0.273-0.351-0.277-0.581
		c-0.01-0.49-0.003-0.98-0.003-1.516c-0.541,0.152-0.428,0.469-0.571,0.702c-0.249-0.437,0.058-0.952-0.375-1.421
		c-0.71,2.407-1.057,4.777-1.147,7.239c-0.979-2.13-0.042-4.627-1.298-6.703c-0.188,4.312-0.556,8.598-0.512,12.906
		c-0.202-4.138-0.169-8.279-0.646-12.407c-0.382,4.288-0.12,8.586-0.199,12.881c-0.612-4.439-0.882-8.893-1.047-13.354
		c-0.112-0.001-0.225-0.002-0.337-0.004c-0.06,1.146-0.126,2.292-0.176,3.438c-0.025,0.584,0.221,1.19-0.159,1.741
		c-0.14-0.006-0.279-0.013-0.419-0.019c-0.129-1.239-0.258-2.478-0.387-3.717c-0.1-0.002-0.2-0.004-0.3-0.006
		c-0.146,2.254-0.292,4.507-0.438,6.761c-1.046-3.07-0.272-6.269-0.987-9.663c-0.648,1.448,0.432,2.823-0.44,3.945
		c-0.581-0.24-0.203-0.838-0.711-1.342c0,1.37,0,2.543,0,3.717c-0.105,0.003-0.211,0.007-0.316,0.01
		c-0.733-1.671-0.322-3.58-1.028-5.632c-0.297,2.805-0.276,5.275-0.27,7.745c-0.151,0-0.302-0.001-0.453-0.001
		c0-0.841,0.003-1.682-0.001-2.522c-0.004-0.799-0.1-1.607-0.01-2.395c0.229-1.997-0.385-3.713-1.682-5.386
		c0,1.235,0.003,2.361-0.002,3.487c-0.001,0.271,0.049,0.635-0.33,0.657c-0.368,0.021-0.572-0.263-0.582-0.626
		c-0.016-0.588-0.004-1.176-0.129-1.768c-0.268,1.64,0.002,3.315-0.288,5.19c-0.837-1.448-0.695-2.948-1.55-4.355
		c-0.303,1.363-0.283,2.528-0.037,3.633c0.172,0.77-0.411,1.164-0.541,1.762c-0.033,0.151,0.117-0.717-0.376-0.343
		c-0.229,0.175-0.377,0.483-0.502,0.759c-0.091,0.2-0.203,0.331-0.403,0.397c-0.121-0.013-0.241-0.025-0.361-0.038
		c-0.045-0.645-0.089-1.289-0.134-1.934c0.167-0.136,0.225-0.313,0.139-0.507c-0.075-0.168-0.213-0.203-0.371-0.086
		c-0.462,0.311-0.326,0.796-0.298,1.207c0.114,1.672-0.447,3.285-0.385,4.964c-0.638-2.175,0.183-4.52-0.802-6.834
		c-0.509,0.857-1.313,1.479-0.882,2.33c0.181,0.357,0.491,0.636,0.407,1.076c-0.027,0.144,0.177,0.529-0.292,0.396
		c-0.229-0.065-0.432-0.052-0.441-0.405c-0.017-0.685,0.158-1.396-0.188-2.282c-0.641,1.095,0.025,2.205-0.78,3.087
		c0-0.787,0.003-1.573-0.001-2.36c-0.002-0.324-0.018-0.744-0.41-0.748c-0.497-0.004-0.293,0.464-0.306,0.743
		c-0.024,0.491-0.007,0.984-0.007,1.603c-0.924-0.532,0.161-1.688-0.933-1.932c-0.15-0.007-0.301-0.014-0.451-0.021
		c-0.056-1.083,0.158-2.185-0.183-3.513c-0.774,1.345,0.43,3.153-1.446,3.869c0.079-1.635-0.94-3.117-0.462-4.769
		c0.081-0.281-0.005-0.513-0.307-0.505c-0.329,0.009-0.297,0.32-0.297,0.549c-0.001,0.8-0.034,1.603,0.027,2.397
		c0.121,1.561-0.252,3.079-0.323,4.63c-0.375-0.881,0.085-1.887-0.355-2.785c-0.141,0.075-0.241,0.095-0.257,0.143
		c-0.17,0.503-0.116,1.415-0.679,1.344c-0.657-0.083-0.264-0.941-0.292-1.444c-0.067-1.196-0.019-2.398-0.037-3.598
		c-0.005-0.37,0.152-0.948-0.408-0.949c-0.478-0.001-0.323,0.556-0.333,0.879c-0.094,2.978-0.451,5.953-0.039,8.934
		c0.03,0.22,0.055,0.483-0.409,0.734c0.272-3.839-0.844-7.42-1.258-11.105c-0.202,7.594,0.427,15.188,0.086,22.982
		c-0.636-0.464-0.472-0.921-0.476-1.299c-0.03-2.918,0.049-5.841-0.074-8.755c-0.192-4.579-0.415-9.155-0.438-13.739
		c-0.001-0.218,0.071-0.487-0.514-0.741c0.157,10.158,0.312,20.186,0.466,30.214c-0.123,0-0.245,0-0.368,0
		c-0.155-1.816-0.054-3.641-0.215-5.464c-0.36-4.092-0.371-8.2-0.339-12.309c0.012-1.554-0.118-3.108-0.182-4.662
		c-0.012-0.285-0.032-0.561-0.505-0.706c-0.135,5.702,0.312,11.366-0.398,16.998c0.08-2.959-0.609-5.861-0.608-8.826
		c-0.488,2.516,0.163,5.127-0.73,7.587c-0.141,0.156-0.282,0.313-0.423,0.47c-0.081-4.112-0.157-8.225-0.253-12.337
		c-0.008-0.349,0.24-0.971-0.306-0.972c-0.384,0-0.96,0.448-0.854,0.983c0.426,2.152-0.524,4.252-0.224,6.363
		c0.182,1.281-0.106,2.55,0.131,3.812c0.041,0.214,0.107,0.544-0.229,0.574c-0.38,0.033-0.425-0.3-0.418-0.585
		c0.042-1.835-0.389-3.643-0.271-5.485c0.085-1.342-0.419-2.639-0.455-4.001c-0.528,1.688,0.031,3.485-0.68,5.148
		c-0.339-0.289-0.241-0.752-0.252-1.176c-0.092-3.55-0.177-7.099-0.28-10.648c-0.009-0.31,0.184-0.879-0.376-0.81
		c-0.611,0.075-0.075,0.57-0.146,0.868c-0.088,0.369,0.172,0.786-0.16,1.169c-0.64-0.256-0.031-1-0.8-1.477
		c-0.129,3.149,0.188,6.155-0.281,9.137c-0.542-4.315-0.288-8.665-0.449-13.074c-0.672,0.286-0.358,0.774-0.549,1.173
		c-0.736-0.609-1.016-1.439-1.289-2.355c-0.002,0.958-1.392,0.782-1.316,1.901c0.056,0.824-0.319,1.678-0.714,2.528
		c-0.127-0.668-0.333-1.333-0.359-2.004c-0.025-0.661-0.088-1.197-0.66-1.663c-0.233-0.19-0.247-0.691-0.721-0.563
		c-0.392,0.106-0.529,0.484-0.59,0.831c-0.445,2.541-1.035,5.063-1.007,7.667c0.003,0.284,0.166,0.749-0.293,0.777
		c-0.455,0.028-0.348-0.474-0.402-0.744c-0.16-0.796-0.257-1.604-0.488-2.418c0.036,1.197-1.514,1.612-1.327,2.882
		c-0.397-0.751-0.498-1.54-0.555-2.329c-0.049-0.677-0.024-1.358-0.038-2.038c-0.005-0.278,0.008-0.625-0.318-0.693
		c-0.27-0.057-0.604,0.1-0.69,0.376c-0.233,0.743-0.747,1.365-0.703,2.236c0.085,1.676,0.045,3.358,0.036,5.038
		c-0.002,0.38,0.138,0.799-0.336,1.312c-0.112-1.536-0.29-2.911-0.292-4.287c-0.003-1.76-0.108-3.503-0.314-5.249
		c-0.064-0.548-0.45-0.822-0.682-1.226c-0.144-0.25-0.359-0.307-0.607-0.175c-0.234,0.124-0.37,0.351-0.281,0.598
		c0.366,1.015,0.034,1.921-0.36,2.836c-0.097,0.224-0.135,0.498-0.396,0.533c-0.377,0.051-0.386-0.301-0.501-0.548
		c-0.469-1.01-0.562-2.139-1.092-3.146c-0.35-0.664-0.977-0.756-1.474-0.979c-0.405-0.182-0.825,0.257-0.788,0.893
		c0.095,1.659,0.135,3.323,0.197,4.985c0.009,0.232,0.047,0.473-0.131,0.67c-0.466,0.003-0.36-0.358-0.384-0.599
		c-0.167-1.666-0.296-3.336-0.483-4.999c-0.142-1.255-0.453-2.454-1.373-3.411c-0.173-0.181-0.305-0.218-0.505-0.119
		c-0.424,0.21-0.619,0.505-0.657,1.025c-0.12,1.651,0.064,3.317-0.222,4.979c-0.542-0.084-0.109-0.795-0.764-0.904
		c-0.064,1.073-0.046,2.134,0.065,3.205c0.057,0.551,0.056,1.113,0.026,1.667c-0.015,0.265-0.088,0.603-0.429,0.647
		c-0.38,0.051-0.414-0.289-0.492-0.553c-0.195-0.649-0.409-1.292-0.417-1.983c-0.021-1.662-0.419-3.274-0.647-4.909
		c-0.182-1.303-1.339-1.916-1.821-2.988c-0.16-0.356-0.5-0.241-0.815-0.036c-0.442,0.286-0.792,0.49-0.792,1.17
		c-0.001,1.715,0.348,3.431,0.125,5.501c-0.552-1.021-0.69-1.789-0.593-2.548c0.128-1.008-0.435-1.837-0.564-2.771
		c-0.019-0.136-0.153-0.344-0.263-0.365c-1.016-0.202-2.036-0.449-3.078-0.35c-0.416,0.039-0.2,0.446-0.202,0.686
		c-0.017,2.512-0.013,5.024,0.201,7.53c0.037,0.439,0.005,0.857-0.141,1.225c-1.165-1.514-1.554-3.276-1.481-5.172
		c0.009-0.228,0.046-0.504-0.264-0.591c-0.165-0.047-0.304,0.021-0.403,0.171c-0.788,1.191-1.051,0.065-1.148-0.366
		c-0.135-0.598-0.484-1.08-0.651-1.65c-0.095-0.324-0.451-0.642-0.826-0.561c-0.464,0.101-0.193,0.494-0.188,0.792
		c0.007,0.393-0.091,0.786-0.107,1.18c-0.015,0.359-0.081,0.651-0.52,0.633c-0.457-0.018-0.475-0.366-0.454-0.69
		c0.065-1.023,0.004-1.986-1.148-2.652c0.263,0.931-0.183,1.775,0.133,2.627c0.061,0.164,0.038,0.478-0.071,0.566
		c-0.866,0.699-0.569,1.655-0.615,2.538c-0.014,0.27,0.055,0.64-0.316,0.679c-0.514,0.054-0.347-0.394-0.41-0.678
		c-0.313-1.411-0.196-2.851-0.349-4.284c0.092,1.604-0.497,3.178-0.171,4.774c0.211,1.038-0.452,2.03-0.064,3.063
		c0.071,0.19-0.146,0.264-0.308,0.242c-0.253-0.033-0.47-0.174-0.51-0.436c-0.072-0.471-0.019-0.976-0.161-1.42
		c-0.632-1.979-0.654-4.034-0.845-6.07c-0.062-0.662-0.121-1.346-0.787-1.77c-0.225-0.143-0.153-0.713-0.64-0.496
		c-0.38,0.17-0.217,0.549-0.244,0.852c-0.057,0.647,0.261,1.719-0.389,1.792c-0.535,0.062-0.437-1.081-0.473-1.698
		c-0.034-0.585-0.363-0.911-0.802-1.516c-0.041,2.681,0.371,5.094,0.203,7.518c-0.024,0.358,0.015,0.722-0.017,1.079
		c-0.031,0.349-0.26,0.618-0.582,0.688c-0.364,0.079-0.62-0.21-0.717-0.51c-0.158-0.489-0.328-1.009-0.315-1.512
		c0.049-1.933-0.476-3.782-0.716-5.672c-0.089-0.697-0.477-1.121-0.884-1.615c0.172,2.174-0.092,4.304-0.113,6.444
		c-0.114,0.008-0.228,0.016-0.342,0.024c-0.101-0.899-0.225-1.798-0.298-2.699c-0.102-1.259-0.142-2.524-0.265-3.781
		c-0.029-0.294,0.129-0.874-0.416-0.832c-0.586,0.045-0.586,0.644-0.516,1.04c0.232,1.313,0.134,2.63,0.135,3.945
		c0,0.413,0.135,1.029-0.451,1.085c-0.701,0.065-0.593-0.665-0.661-1.065c-0.212-1.267,0-2.57-0.461-3.838
		c-0.209-0.576-0.596-0.688-0.958-0.656c-0.538,0.049-0.279,0.569-0.249,0.873c0.15,1.492,0.043,2.981,0.011,4.473
		c-0.014,0.633,0.105,1.268,0.136,1.902c0.02,0.396,0.062,0.898-0.433,0.996c-0.59,0.115-0.556-0.487-0.646-0.82
		c-0.436-1.611-0.146-3.325-0.669-4.931c-0.264,0.007-0.357,0.202-0.313,0.4c0.4,1.834-0.185,3.656-0.063,5.487
		c0.02,0.309,0.118,0.862-0.399,0.832c-0.471-0.027-0.526-0.535-0.51-0.939c0.106-2.713-0.311-5.376-0.778-8.031
		c-0.083-0.471-0.221-1.161-0.929-1.009c-0.721,0.156-0.298,0.766-0.295,1.2c0.01,1.252,0.131,2.517-0.354,3.733
		c-0.649-1.456-0.297-3.091-0.967-4.542c-0.03,3.901,0.081,7.798-0.369,11.695c-0.155-1.752-1.223-3.249-1.163-5.094
		c0.043-1.323-0.379-2.663-0.613-3.993c-0.055-0.312-0.159-0.72-0.535-0.702c-0.512,0.024-0.252,0.484-0.262,0.749
		c-0.021,0.594,0.1,1.2-0.371,1.703c-0.09,0.097-0.147,0.367-0.083,0.443c0.946,1.122,0.143,2.078-0.297,3.379
		c-0.72-2.826-0.108-5.52-0.872-8.037c-0.109-0.003-0.218-0.006-0.327-0.009c0,0.715,0.006,1.43-0.001,2.144
		c-0.022,2.123,0.077,4.25-0.214,6.364c-0.026,0.191,0.015,0.398,0.057,0.591c0.079,0.368,0.387,0.815-0.303,0.9
		c-0.542,0.066-0.891-0.262-0.88-0.754c0.039-1.729-0.433-3.395-0.574-5.1c-0.091-1.105-0.243-2.211-0.47-3.296
		c-0.139-0.666-0.638-1.119-1.274-1.429c-0.885-0.432-1.127-0.299-1.191,0.657c-0.206,3.057-0.166,6.111,0.023,9.167
		c0.022,0.366,0.152,0.79-0.222,1.155c-0.085-0.093-0.211-0.165-0.212-0.239c-0.024-2.425-1.182-4.694-0.985-7.145
		c0.091-1.142-0.558-2.163-0.483-3.302c0.015-0.235-0.176-0.466-0.46-0.451c-0.297,0.015-0.336,0.299-0.415,0.515
		c-0.159,0.441,0.14,0.896,0.059,1.29c-0.441,2.145,0.021,4.338-0.397,6.478c-0.071,0.363,0.046,0.698,0.251,1.025
		c-0.92,0.226-0.952-0.315-0.952-0.908c-0.001-2.47-0.639-4.876-0.742-7.336c-0.007-0.165-0.072-0.308-0.453-0.332
		c0.049,1.752-0.347,3.481-0.128,5.239c0.044,0.357,0.233,0.692-0.116,0.985c-0.143,0.121-0.301,0.099-0.434-0.01
		c-0.374-0.303-0.145-0.636-0.062-0.98c0.063-0.263,0.095-0.568,0.022-0.821c-0.43-1.498-0.796-3.001-0.764-4.578
		c0.006-0.295-0.048-0.758-0.424-0.739c-0.457,0.023-0.279,0.496-0.279,0.779c0.003,2.557,0.031,5.113,0.034,7.669
		c0,0.372,0.134,0.785-0.391,1.354c-0.008-2.532-1.403-4.587-1.073-6.987c0.096-0.694,0.143-1.449-0.389-2.058
		c-0.091-0.157,0.087-0.546-0.23-0.456c-0.194,0.055-0.068,0.395,0.085,0.58c0,3.862,0,7.724,0,11.586
		c-0.892-1.145-1.342-2.446-1.376-3.836c-0.054-2.179-0.67-4.235-1.184-6.318c-0.047-0.192-0.131-0.377-0.212-0.559
		c-0.123-0.273-0.333-0.501-0.64-0.44c-0.436,0.087-0.203,0.417-0.184,0.675c0.025,0.337,0.224,0.854-0.234,0.919
		c-0.467,0.066-0.336-0.502-0.458-0.804c-0.214-0.537-0.018-1.173-0.419-1.783c-0.387,0.438-0.266,0.88-0.278,1.281
		c-0.086,2.887,0.043,5.777-0.233,8.658c-0.031,0.328,0.123,0.838-0.421,0.808c-0.438-0.024-0.269-0.493-0.318-0.784
		c-0.007-0.039,0.008-0.084-0.005-0.119c-1.08-2.656-0.619-5.572-1.392-8.281c-0.128-0.447-0.298-0.813-0.902-0.991
		c0,1.346,0,2.628,0,4.23c-0.555-0.655-0.801-1.068-0.653-1.649c0.274-1.086-0.144-2.137-0.168-3.209
		c-0.007-0.295-0.11-0.599-0.475-0.555c-0.431,0.051-0.432,0.4-0.38,0.736c0.31,2.024,0.064,4.063,0.151,6.095
		c0.018,0.424,0.222,1.12-0.503,1.117c-0.572-0.003-0.637-0.573-0.674-1.091c-0.119-1.663-0.271-3.324-0.434-4.984
		c-0.059-0.592-0.201-1.383-0.877-1.318c-0.58,0.056-0.626,0.839-0.579,1.417c0.162,1.985-0.146,3.965-0.077,5.948
		c0.025,0.74,0.405,1.511-0.247,2.285c-0.825-2.681-0.863-5.371-1.314-8.006c-0.332,2.703,0.03,5.446-0.485,8.483
		c-0.647-0.949-0.801-1.66-0.748-2.408c0.172-2.409-0.715-4.733-0.553-7.141c0.02-0.286-0.065-0.575-0.387-0.673
		c-0.4-0.12-0.541,0.188-0.739,0.451c-0.288,0.379-0.329,0.78-0.316,1.236c0.035,1.238,0.038,2.479,0.029,3.718
		c-0.001,0.244,0.115,0.661-0.29,0.657c-0.329-0.004-0.356-0.379-0.364-0.659c-0.032-1.199-0.039-2.398-0.088-3.597
		c-0.023-0.553-0.126-1.102-0.188-1.653c-0.029-0.255-0.089-0.495-0.412-0.455c-0.319,0.04-0.321,0.28-0.292,0.54
		c0.41,3.693,0.118,7.412,0.416,11.109c0.022,0.276,0.002,0.561-0.033,0.836c-0.026,0.209-0.157,0.381-0.388,0.378
		c-0.274-0.004-0.243-0.246-0.296-0.431c-0.631-2.187-0.651-4.461-1.004-6.684c-0.167-1.053-0.368-2.179-0.977-3.31
		c-0.55,2.103,0.524,4.335-1.089,6.113c-0.164-2.49-0.69-4.9-0.796-7.491c-0.552,0.972-0.472,1.943-0.343,2.778
		c0.339,2.202-0.369,4.373-0.032,6.554c0.044,0.285,0.135,0.583-0.305,0.611c-0.379,0.024-0.368-0.278-0.494-0.532
		c-0.796-1.606-0.883-3.349-0.896-5.068c-0.012-1.425-0.81-2.646-0.817-4.056c-0.002-0.434-1.612-1.246-2.03-1.139
		c-0.292,0.075-0.333,0.29-0.373,0.538c-0.13,0.83-0.102,1.642-0.025,2.487c0.244,2.696-0.223,5.405,0.048,8.109
		c0.009,0.094-0.082,0.197-0.18,0.417c-0.351-0.403-0.463-0.844-0.447-1.223c0.127-2.933-1.085-5.713-0.961-8.641
		c0.008-0.194-0.01-0.413-0.094-0.583c-0.162-0.328-0.406-0.647-0.818-0.586c-0.449,0.066-0.34,0.478-0.34,0.776
		c-0.002,2.079,0.007,4.158,0.013,6.238c0.001,0.626,0,1.253,0,2.074c-1.81-2.436-0.698-5.312-1.934-7.682
		c0,1.009,0.01,2.019-0.005,3.027c-0.005,0.35,0.017,0.791-0.502,0.794c-0.542,0.003-0.434-0.451-0.477-0.793
		c-0.242-1.886-0.48-3.772-0.746-5.655c-0.048-0.338-0.151-0.713-0.712-0.821c0.179,4.013,0.686,7.989,0.059,11.992
		c-0.605-1.431-0.701-2.987-1.045-4.47c-0.353-1.517-0.35-3.115-0.634-4.679c-0.702,4.02,1.158,8.169-0.589,12.158
		c-1.022-1.825-1.11-3.842-1.33-5.818c-0.179-1.613-0.761-3.154-0.802-4.794c-0.008-0.32-0.167-0.825-0.588-0.797
		c-0.531,0.035-0.248,0.561-0.33,0.87c-0.122,0.459,0.292,1.311-0.34,1.307c-0.569-0.003-0.253-0.866-0.313-1.346
		c-0.087-0.695-0.214-1.367-0.626-2.256c-0.564,2.865-0.413,5.47-0.25,8.071c0.032,0.518,0.163,1.029-0.011,1.539
		c-0.09,0.263-0.183,0.56-0.552,0.521c-0.352-0.037-0.378-0.317-0.456-0.602c-0.809-2.941-0.295-6.066-1.256-8.991
		c-0.135-0.411-0.249-0.865-0.669-0.862c-0.543,0.005-0.311,0.547-0.325,0.855c-0.034,0.759,0.002,1.52-0.008,2.279
		c-0.004,0.26,0.049,0.631-0.381,0.581c-0.305-0.035-0.296-0.341-0.289-0.575c0.045-1.359-0.1-2.704-0.264-4.051
		c-0.04-0.326-0.028-0.733-0.407-0.762c-0.489-0.037-0.377,0.44-0.371,0.716c0.034,1.416-0.266,2.828-0.018,4.246
		c0.203,1.157-0.213,2.276-0.205,3.438c-1.163-2.301-0.875-4.802-1.184-7.21c-0.08-0.626,0.064-1.635-0.765-1.613
		c-0.898,0.022-0.661,1.013-0.663,1.66c-0.005,2.8,0.02,5.6,0.004,8.398c-0.001,0.354,0.227,0.979-0.297,1.009
		c-0.589,0.033-0.244-0.618-0.376-0.942c-1.031-2.524,0.066-5.357-1.236-8.103c0,2.786,0.018,5.323-0.016,7.859
		c-0.006,0.471,0.296,1.311-0.301,1.341c-0.585,0.029-0.628-0.89-0.591-1.372c0.156-2.027-0.161-4.021-0.296-6.026
		c-0.063-0.944-0.28-1.878-0.435-2.814c-0.086-0.52-0.394-0.755-0.928-0.696c-0.59,0.064-0.425,0.434-0.467,0.853
		c-0.132,1.32,0.216,2.617,0.101,3.928c-0.026,0.294,0.1,0.731-0.369,0.74c-0.422,0.008-0.458-0.438-0.47-0.722
		c-0.059-1.397-0.069-2.797-0.095-4.196c-0.023-1.212-0.099-1.259-1.162-0.712c-0.68,0.351-1.222-0.015-1.146-0.871
		c0.032-0.355,0.05-0.632-0.22-0.843c-0.141-0.11-0.372-0.197-0.537-0.165c-0.229,0.044-0.2,0.286-0.196,0.494
		c0.061,3.38,0.127,6.76,0.147,10.141c0.002,0.395,0.364,1.102-0.378,1.167c-0.705,0.063-0.875-0.571-0.898-1.158
		c-0.066-1.635-0.091-3.271-0.169-4.905C5.92,44.8,5.886,43.592,5.486,42.432c-0.466,4.273,0.185,8.6-0.722,12.833
		c-0.611-1.995-1.015-3.971-1.052-6.065c-0.029-1.659-0.798-3.283-0.864-4.997c-0.011-0.293-0.305-0.42-0.571-0.55
		c-1.185-0.573-1.82-3.059-1.082-4.141c0.142-0.207,0.327-0.459,0.555-0.223c0.739,0.77,0.819,0.026,0.957-0.419
		c0.127-0.411,0.204-0.858,0.199-1.288c-0.036-2.861,0.806-5.68,0.399-8.561c-0.046-0.33,0.089-0.686,0.271-1.039
		c1.199,3.273,1.132,6.747,1.583,10.139c0.12-0.024,0.252-0.034,0.253-0.055c0.145-1.699,0.374-3.389,0.342-5.104
		c-0.032-1.664,0.032-3.33,0.061-4.995c0.004-0.237,0.025-0.521,0.356-0.502c0.25,0.014,0.263,0.255,0.276,0.456
		c0.005,0.08,0.014,0.161,0.004,0.24c-0.29,2.245,0.438,4.413,0.5,6.632c0.041,1.429,0.156,2.854,0.203,4.283
		c0.026,0.795,0.295,1.068,1,0.563c0.29-0.207,0.406-0.431,0.843-0.054c0.615,0.53,1.229,0.118,1.356-0.711
		c0.286-1.864,0.09-3.747,0.249-5.614c0.019-0.226,0.051-0.449,0.101-0.878c0.438,0.485,0.544,0.911,0.488,1.3
		c-0.227,1.558,0.202,3.096,0.098,4.651c-0.023,0.344-0.297,1.015,0.413,0.996c0.505-0.013,1.014-0.34,1.025-0.967
		c0.025-1.504,0.174-3.002,0.208-4.507c0.039-1.681,0.209-3.393,0.439-5.109c0.738,0.78,0.428,1.744,0.513,2.627
		c0.091,0.95,0.204,1.898,0.247,2.851c0.042,0.934,0.009,1.872,0.009,2.86c0.539-0.165,0.447-0.485,0.464-0.745
		c0.175-2.659,0.344-5.318,0.518-7.977c0.022-0.342-0.051-0.855,0.415-0.837c0.399,0.016,0.25,0.507,0.265,0.806
		c0.154,3.185,0.301,6.369,0.454,9.553c0.038,0.786-0.172,1.572,0.064,2.361c0.121,0.402,0.309,0.648,0.738,0.622
		c0.496-0.03,0.295-0.357,0.337-0.672c0.34-2.543,0.105-5.147,0.864-7.807c0.591,1.912,0.607,3.75,0.71,5.577
		c0.011,0.199-0.039,0.406-0.001,0.598c0.07,0.359-0.176,0.99,0.339,1.002c0.56,0.014,0.287-0.618,0.355-0.97
		c0.385-1.99,0.195-4.02,0.506-6.042c0.742,2.32,0.209,4.753,0.598,7.345c0.447-0.996,0.758-1.755,0.892-2.673
		c0.376-2.579,0.289-5.186,0.629-7.761c0.048-0.366,0.067-0.827,0.509-0.822c0.647,0.007,0.664,0.604,0.69,1.067
		c0.165,2.811,0.305,5.622,0.458,8.434c0.015,0.274,0.066,0.547,0.286,0.834c0.205-1.801,0.409-3.602,0.614-5.402
		c0.358,1.509,0.621,2.995,0.612,4.527c-0.003,0.584-0.407,1.689,0.459,1.696c0.912,0.007,0.412-1.068,0.455-1.651
		c0.182-2.464,0.458-4.931,0.114-7.406c-0.039-0.281-0.004-0.621,0.359-0.636c0.33-0.013,0.233,0.339,0.309,0.546
		c0.952,2.605,1.187,5.333,1.402,8.067c0.025,0.319-0.201,0.868,0.317,0.873c0.627,0.006,0.366-0.59,0.372-0.935
		c0.028-1.912,0.032-3.824,0.3-5.722c0.036-0.253,0.183-0.491,0.371-0.972c0.189,2.408,0.357,4.543,0.523,6.68
		c0.027,0.345-0.077,0.779,0.476,0.78c0.524,0,0.562-0.435,0.516-0.773c-0.145-1.081,0.533-2.061,0.318-3.164
		c-0.084-0.431,0.216-0.899,0.526-1.271c0.919,0.687,0.311,1.844,0.961,2.851c0.131-1.095,0.134-1.999,0.29-2.816
		c0.465-2.445,0.038-4.936,0.574-7.355c0.045-0.206,0.088-0.431,0.333-0.401c0.284,0.036,0.323,0.302,0.365,0.547
		c0.249,1.425,0.205,2.864,0.234,4.301c0.05,2.473,0.124,4.946,0.199,7.418c0.01,0.336-0.119,0.855,0.358,0.888
		c0.583,0.04,0.638-0.506,0.654-0.951c0.082-2.338,0.145-4.677,0.231-7.015c0.011-0.286-0.16-0.775,0.264-0.798
		c0.477-0.025,0.4,0.48,0.444,0.822c0.31,2.444,0.697,4.881,0.713,7.353c0.002,0.375,0.11,0.618,0.545,0.592
		c1.136-0.071,1.899-1.052,1.976-2.284c0.184-2.957,0.434-5.91,0.697-8.86c0.03-0.339-0.054-0.957,0.487-0.946
		c0.5,0.009,0.612,0.5,0.661,0.984c0.288,2.849,0.573,5.696,0.547,8.565c-0.004,0.453,0.132,0.907,0.316,1.35
		c-0.17-2.385,0.584-4.73,0.181-7.109c-0.067-0.395-0.072-0.96,0.387-0.979c0.514-0.021,0.213,0.532,0.289,0.839
		c0.626,2.515,1.01,5.054,0.916,7.654c-0.004,0.13,0.123,0.265,0.392,0.379c0.095-1.383,0.347-2.778,0.24-4.146
		c-0.099-1.271,0.471-2.492,0.107-3.766c-0.076-0.266,0.117-0.801,0.576-0.753c0.499,0.052,0.565,0.556,0.529,0.939
		c-0.211,2.257,0.54,4.432,0.542,6.67c0,0.337-0.19,0.947,0.421,0.913c0.476-0.026,0.254-0.577,0.324-0.9
		c0.374-1.728-0.161-3.493,0.209-5.223c0.079-0.372-0.11-0.817,0.479-1.182c0.52,2.357-0.053,4.712,0.454,7.029
		c1.212,0,1.169-1.058,1.125-1.766c-0.095-1.537,0.365-3.079-0.121-4.617c-0.194-0.614,0.266-1.172,0.825-1.281
		c0.675-0.133,0.667,0.613,0.715,1.009c0.193,1.61-0.118,3.246,0.226,5.071c0.792-3.641,0.063-7.256,1.246-10.833
		c0.806,3.638,0.486,7.147,0.571,10.635c0.01,0.399-0.009,0.801,0.018,1.199c0.022,0.328-0.084,0.828,0.46,0.765
		c0.462-0.054,1.128-0.053,0.989-0.85c-0.263-1.513-0.067-3.003,0.159-4.498c0.067-0.441,0.155-0.842,0.597-1.192
		c0.623,0.94,0.542,1.988,0.623,2.982c0.071,0.875,0.02,1.759,0.032,2.638c0.003,0.232-0.016,0.518,0.306,0.558
		c0.418,0.053,0.384-0.277,0.437-0.552c0.279-1.456,0.236-2.928,0.257-4.397c0.008-0.554,0.014-1.114,0.509-1.896
		c0.456,2.337-0.092,4.514,0.515,6.571c0.583-1.096,0.628-2.262,0.664-3.43c0.071-2.294-0.026-4.603,0.655-6.843
		c0.09-0.297-0.021-0.683,0.45-0.682c0.535,0.001,0.449,0.423,0.506,0.774c0.537,3.257,0.591,6.552,0.849,9.855
		c1.047-1.429,0.194-3.255,1.028-4.752c0.482,1.793,0.119,3.647,0.348,5.473c0.825-0.087,1.115-0.413,1.212-1.288
		c0.269-2.418-0.114-4.846,0.231-7.254c0.051-0.357-0.017-0.8,0.497-0.783c0.479,0.016,0.595,0.383,0.657,0.836
		c0.333,2.414,0.447,4.84,0.498,7.272c0.009,0.415-0.163,0.882,0.311,1.292c0.908-2.532,0.445-5.155,0.732-7.788
		c0.503,0.744,0.603,1.204,0.543,2.125c-0.107,1.673,0.506,3.293,0.375,4.973c-0.012,0.154,0.157,0.422,0.297,0.469
		c0.339,0.113,0.293-0.254,0.422-0.425c0.695-0.921,0.173-2.077,0.618-3.056c0.153-0.338,0.015-0.924,0.522-0.925
		c0.521-0.001,0.421,0.548,0.484,0.927c0.044,0.264,0.169,0.514,0.415,0.771c0.744-3.152,0.697-6.381,1.033-9.594
		c0.196,1.168,0.578,2.29,0.668,3.425c0.198,2.46,0.204,4.936,0.303,7.404c0.015,0.37-0.126,0.95,0.412,0.969
		c0.486,0.017,0.498-0.558,0.519-0.93c0.056-0.982,0.428-1.939,0.081-2.96c-0.229-0.673,0.376-1.279,0.434-1.958
		c0.015-0.178,0.189-0.287,0.349-0.245c0.343,0.089,0.337,0.404,0.361,0.681c0.139,1.588,0.267,3.177,0.42,4.764
		c0.03,0.312-0.044,1.022,0.313,0.819c0.585-0.333,1.364,0.65,1.752-0.404c0.663-1.798,1.136-3.551,0.959-5.554
		c-0.125-1.419,0.161-2.922,0.149-4.395c-0.002-0.312,0.152-0.551,0.513-0.521c0.463,0.039,0.388,0.413,0.429,0.721
		c0.334,2.482,0.825,4.947,0.75,7.472c-0.01,0.327,0.172,0.659,0.333,1.232c0.71-2.997-0.025-5.842,0.849-8.57
		c0.346,1.382,0.495,2.797,0.456,4.224c-0.038,1.388,0.562,2.692,0.473,4.082c-0.014,0.213,0.101,0.394,0.348,0.398
		c0.335,0.005,0.39-0.254,0.368-0.494c-0.091-0.986,0.05-1.979-0.015-2.95c-0.083-1.247,0.023-2.442,0.294-3.644
		c0.065-0.289-0.103-0.732,0.369-0.745c0.499-0.015,0.474,0.428,0.516,0.787c0.243,2.091,0.495,4.182,0.741,6.272
		c0.022,0.19,0.007,0.394,0.31,0.56c0.483-1.05,0.463-2.135,0.475-3.215c0.005-0.399-0.001-0.8,0.028-1.198
		c0.018-0.24,0.107-0.515,0.395-0.513c0.339,0.002,0.274,0.317,0.302,0.541c0.175,1.377-0.121,2.776,0.187,4.149
		c0.058,0.261-0.042,0.593,0.334,0.679c0.408,0.093,0.42-0.277,0.54-0.502c0.662-1.246,0.635-2.635,0.486-3.934
		c-0.114-0.988,0.091-1.892,0.133-2.833c0.013-0.283,0.047-0.602,0.44-0.573c0.349,0.026,0.431,0.319,0.452,0.609
		c0.088,1.233,0.165,2.467,0.251,3.701c0.016,0.223-0.064,0.486,0.515,0.773c0.282-2.678,0.553-5.247,0.826-7.839
		c0.554,0.133,0.368,0.531,0.39,0.799c0.176,2.182,0.544,4.351,0.449,6.552c-0.014,0.318-0.057,0.666,0.045,0.953
		c0.199,0.559,0.67,1.243,1.104,1.239c0.544-0.004,0.213-0.773,0.27-1.202c0.063-0.473,0.036-0.958,0.052-1.437
		c0.01-0.301,0.081-0.569,0.452-0.582c0.362-0.011,0.422,0.245,0.508,0.538c0.342,1.17,0.07,2.379,0.234,3.633
		c0.489-0.202,0.826-0.285,0.856-0.966c0.056-1.261,0.4-2.505,0.334-3.787c-0.012-0.223-0.047-0.536,0.274-0.574
		c0.402-0.046,0.414,0.291,0.427,0.568c0.054,1.104-0.113,2.218,0.105,3.37c0.706-0.179,0.829-0.633,0.905-1.236
		c0.268-2.123,0.199-4.282,0.681-6.383c0.061-0.264-0.017-0.651,0.366-0.623c0.354,0.025,0.323,0.404,0.318,0.678
		c-0.042,2.12,0.365,4.195,0.578,6.476c0.866-1.039,0.949-2.069,0.922-3.19c-0.014-0.592-0.38-1.608,0.419-1.704
		c0.425-0.051,0.267,1.092,0.282,1.696c0.015,0.573,0.099,1.115,0.337,1.625c0.15,0.322,0.343,0.683,0.798,0.568
		c0.402-0.102,0.557-0.413,0.551-0.819c-0.016-1.039-0.031-2.078-0.033-3.117c0-0.265-0.084-0.652,0.28-0.697
		c0.458-0.057,0.433,0.364,0.455,0.67c0.034,0.463-0.114,0.939,0.105,1.407c0.543-0.53,0.196-1.297,0.498-1.914
		c0.517,0.294,0.235,0.743,0.312,1.095c0.052,0.239,0.073,0.514,0.386,0.504c0.31-0.01,0.355-0.286,0.354-0.528
		c-0.003-1.192-0.012-2.384-0.032-3.575c-0.005-0.263-0.194-0.606,0.25-0.646c0.304-0.028,0.373,0.289,0.411,0.506
		c0.069,0.39,0.097,0.791,0.097,1.187c0.003,2.476-0.022,4.951,0.219,7.42c0.031,0.318,0,0.652,0.5,0.92
		c0.304-0.934,1.201-1.629,0.847-2.776c-0.154-0.499,0.116-0.94,0.143-1.415c0.023-0.403-0.238-1.114,0.259-1.151
		c0.695-0.053,0.549,0.767,0.632,1.208c0.131,0.696,0.042,1.432,0.359,2.103c0.133,0.282,0.205,0.657,0.642,0.554
		c0.355-0.084,0.495-0.37,0.528-0.717c0.058-0.611-0.231-1.319,0.799-1.547c0.374-0.083,0.123-0.875,0.177-1.341
		c0.034-0.296-0.132-0.763,0.296-0.797c0.46-0.037,0.325,0.435,0.369,0.728c0.051,0.331-0.13,0.72,0.316,1.054
		c0.375-0.52,0.49-1.095,0.347-1.654c-0.202-0.795-0.144-1.588-0.143-2.383c0-0.321-0.208-0.835,0.302-0.896
		c0.543-0.064,0.575,0.436,0.595,0.844c0.074,1.474,0.207,2.95,0.197,4.423c-0.011,1.485,0.482,2.919,0.343,4.415
		c-0.052,0.562,0.254,0.741,0.728,0.322c0.724-0.64,1.469-1.096,2.403-0.367c0.302,0.236,0.425-0.004,0.51-0.233
		c0.067-0.182,0.138-0.389,0.115-0.573c-0.063-0.505-0.237-1.235,0.334-1.309c0.63-0.081,0.224,0.801,0.546,1.156
		c0.271-0.232,0.61-0.416,0.666-0.799c0.072-0.5-0.086-1.095,0.839-0.849c0.38,0.101,0.2-0.514,0.361-0.753
		c0.473-0.7-0.083-2.138,1.523-2.053c0.405,0.021,0.138-0.526,0.256-0.803c0.164-0.382,0.116-0.854,0.169-1.396
		c0.524,0.512,0.317,1.093,0.411,1.601c0.071,0.382-0.256,0.951,0.414,1.076c0.252,0.047,0.638,0.092,0.702-0.265
		c0.087-0.488,0.234-1.019-0.103-1.471c-0.064-0.086-0.542-0.036-0.302-0.234c0.878-0.729,0.273-1.827,0.697-2.735
		c0.587,0.327,0.446,0.795,0.467,1.192c0.118,2.232-0.035,4.471,0.199,6.705c0.065,0.62,0.336,1.002,0.791,1.156
		c0.596,0.2,0.479-0.544,0.756-0.773c0.849-0.7,1.325-1.533,1.573-2.636c0.165-0.734,0.942-0.346,1.43-0.132
		c0.877,0.385,1.473,0.071,1.562-0.884c0.088-0.953,0.268-1.897,0.192-2.863c-0.021-0.26-0.048-0.625,0.376-0.597
		c0.294,0.02,0.326,0.293,0.348,0.543c0.166,1.819,0.336,3.637,0.503,5.456c0.021,0.238-0.021,0.497,0.056,0.713
		c0.188,0.522,0.382,1.195,1.054,1.125c0.697-0.072,0.574-0.753,0.562-1.261c-0.048-2.033-0.107-4.065-0.162-6.098
		c0.12-0.005,0.24-0.01,0.36-0.015c0.118,0.428-0.104,0.936,0.314,1.416c0.378-3.037,0.083-5.976,0.213-9.001
		c0.58,0.331,0.392,0.8,0.412,1.184c0.1,1.983-0.218,3.996,0.463,5.938c0.122,0.347-0.049,0.707,0.672,0.486
		c0.557-0.17,0.381,0.759,0.603,1.163c0.132,0.241-0.09,0.752,0.413,0.688c0.421-0.054,0.302-0.494,0.313-0.796
		c0.012-0.319-0.013-0.639-0.018-0.958c-0.015-0.919,0.875-2.098,1.741-2.226c0.532-0.079,0.373,0.383,0.41,0.666
		c0.233,1.758,0.412,3.527,1.228,5.15c0.125,0.249,0.125,0.587,0.495,0.558c0.534-0.042,0.181-0.456,0.253-0.694
		c0.275-0.909,0.55-1.818,0.835-2.759c0.435,0.161,0.311,0.486,0.334,0.727c0.092,0.96,1.155,1.449,1.178,2.444
		c0.001,0.074,0.154,0.21,0.231,0.206c0.435-0.022,0.173-0.555,0.552-0.772c0.114,0.793-0.309,1.633,0.499,2.362
		c0.567-2.086,0.326-4.219,1.124-6.461c0.359,1.159,0.804,1.993,1.52,2.754c0.245,0.016,0.225-0.269,0.215-0.493
		c-0.09-1.954,0.033-3.912-0.196-5.865c-0.086-0.736-0.4-1.607,0.448-2.189c0.141-0.007,0.282-0.015,0.423-0.022
		c0.12,1.9-0.084,3.815,0.244,5.706c0.05,0.285-0.081,0.746,0.405,0.716c0.432-0.026,0.557-0.459,0.56-0.806
		c0.009-1.118-0.126-2.242-0.048-3.353c0.167-2.377,0.025-4.76,0.204-7.145c0.522,0.674,0.298,1.458,0.306,2.187
		c0.019,1.908,1.121,3.669,0.733,5.627c-0.03,0.153,0.067,0.321,0.258,0.339c0.243,0.023,0.402-0.149,0.396-0.35
		c-0.024-0.725,0.361-1.366,0.329-2.109c-0.118-2.752-0.165-5.507-0.238-8.261c-0.005-0.2-0.021-0.399-0.019-0.599
		c0.002-0.247,0.033-0.524,0.335-0.543c0.31-0.02,0.365,0.246,0.374,0.499c0.008,0.24-0.001,0.48,0.015,0.719
		c0.016,0.221,0.132,0.386,0.368,0.383c0.243-0.002,0.315-0.19,0.361-0.398c0.118-0.53-0.183-1.127,0.317-1.689
		c0.561,0.713,0.275,1.557,0.276,2.234c0.002,2.3,0.982,4.492,0.658,6.829c0.267-0.689,0.375-1.441,0.356-2.099
		c-0.065-2.23,0.567-4.445,0.115-6.676c-0.047-0.231-0.035-0.479-0.021-0.718c0.016-0.263-0.107-0.65,0.239-0.727
		c0.53-0.118,0.352,0.386,0.452,0.642c0.058,0.148,0.117,0.298,0.458,0.31c0.093-1.901-0.097-3.838,0.495-5.718
		c0.961,4.017,0.42,8.132,0.738,12.188c0.319,4.087-0.004,8.189,0.384,12.279c0.463-4.812,0.259-9.638,0.305-14.573
		c0.597,0.33,0.424,0.811,0.43,1.192c0.036,2.359,0.043,4.718,0.074,7.077c0.003,0.25-0.163,0.625,0.193,0.72
		c0.317,0.083,0.543-0.187,0.524-0.498c-0.041-0.678,1.148-0.414,0.785-1.289c0.42,1.106-0.181,2.291,0.671,3.444
		c0.405-1.041-0.033-2.031,0.399-2.979c1.466,1.323,1.396,3.014,1.456,4.662c0.01,0.28-0.038,0.565,0.006,0.838
		c0.061,0.382-0.269,0.991,0.421,1.058c0.703,0.067,0.516-0.534,0.573-0.938c0.036-0.256-0.073-0.627,0.302-0.693
		c0.487-0.085,0.417,0.37,0.52,0.641c0.069,0.182,0.09,0.392,0.474,0.455c0.344-0.924-0.238-1.915,0.099-2.828
		c0.099-0.002,0.197-0.005,0.296-0.008c0.708-0.173,0.708-0.173,0.869-1.325c0.034,0.705-0.072,1.457,0.141,2.104
		c0.221,0.675,0.034,1.403,0.417,2.388c0.952-2.353,0.095-4.494,0.59-6.568c0.137,0.602,0.274,1.203,0.458,2.011
		c0.732-2.469,0.663-4.778,0.439-7.101c0.116,0.003,0.232,0.007,0.349,0.011c0,1.313,0,2.625,0,4.162
		c0.463-0.571,0.821-0.894,0.975-1.374c-0.088,0.848,0.583,1.962-0.824,2.325c0.158,0.612-0.616,1.479,0.505,1.828
		c0.403,0.125,0.336,0.479,0.381,0.79c0.09,0.618-0.118,1.266,0.293,2.155c0.585-2.126-0.236-4.142,0.716-6.271
		c0,2.436,0,4.561,0,6.687c0.672-0.974,0.191-2.337,1.321-3.078c0.095,0.027,0.188,0.055,0.283,0.082
		c-0.587,1.75,0.234,3.538-0.131,5.306c-0.063,0.303,0.308,0.696,0.492,1.075c0.604-0.367,0.403-0.908,0.341-1.314
		c-0.397-2.621,0.017-5.273-0.346-7.892c-0.077-0.554,0.52-0.714,0.576-1.19c0.102,0.015,0.203,0.031,0.304,0.046
		c0,1.649,0,3.298,0,4.947c0,0.44,0.003,0.879,0.009,1.319c0.002,0.119,0.045,0.241,0.032,0.356
		c-0.088,0.757,1.145-0.285,0.949,0.723c-0.098,0.508-0.175,1.144,0.455,1.491c0.031,0.017,0.079,0.002,0.194,0.002
		c-0.054-1.52,0.891-2.923,0.383-4.513c0.114,0.001,0.228,0.002,0.342,0.003c0,1.235-0.045,2.473,0.019,3.704
		c0.032,0.617-0.369,1.705,0.433,1.72c0.583,0.011,0.292-1.15,0.296-1.779c0.007-1.205-0.098-2.409-0.163-3.74
		c0.625,0.372,0.186,0.942,0.556,1.229c0.535-0.153,0.174-0.715,0.55-1.102c0,1.211-0.004,2.303,0.003,3.395
		c0.002,0.354-0.074,0.729,0.192,1.033c0.153,0.175,0.29,0.417,0.577,0.331c0.236-0.071,0.186-0.313,0.24-0.497
		c0.301-1.015,0.216-2.056,0.236-3.091c0.008-0.413-0.102-0.854,0.288-1.251c-0.081,1.46,0.645,2.73,0.936,4.15
		c0.815-1.589-0.167-3.589,1.225-5.089c-0.125-0.006-0.039-0.026,0.023,0.005c0.364,0.182-0.002,1.021,0.706,0.854
		c0.7-0.165,0.349-0.787,0.395-1.213c0.05-0.471,0.011-0.951,0.135-1.441c0.38,2.09,0.105,4.275,1.049,6.28
		c0.925-1.853,0.103-4.045,0.807-6.104c0.67,2.229,0.28,4.401,0.433,6.54c0.023,0.323-0.177,0.888,0.309,0.89
		c0.585,0.003,0.375-0.6,0.37-0.946c-0.062-3.595-0.151-7.189-0.22-10.784c-0.008-0.418-0.1-0.864,0.287-1.263
		c0.559,4.048,0.254,8.186,0.943,12.212c0.112-0.008,0.225-0.016,0.337-0.024c0.034-0.103,0.116-0.216,0.094-0.306
		c-0.366-1.533,0.128-2.966,0.59-4.37c0.512-1.557,0.262-3.115,0.245-4.678c-0.001-0.145,0.039-0.291,0.094-0.668
		c0.49,0.849,0.267,1.557,0.307,2.219c0.068,1.144,0.774,2.134,0.717,3.322c-0.021,0.443,0.328,0.696,0.8,0.207
		c0.26-0.27,0.485-0.502,0.417-0.946c0.664,0.329,0.241,0.956,0.554,1.313c0.195,0.222,0.09,0.741,0.531,0.688
		c0.537-0.064,0.305-0.556,0.35-0.875c0.034-0.234,0.007-0.477,0.007-0.721c0.863,0.187,0.638,0.91,0.716,1.524
		c0.455-0.389,0.013-0.918,0.39-1.226c1,1.394,1.626,2.941,1.964,4.613c0.243,0.012,0.35-0.167,0.427-0.343
		c0.076-0.171,0.104-0.362,0.171-0.614c0.316,1.001,0.184,2.238,1.684,2.241c0.216,0,0.128,0.242,0.157,0.378
		c0.067,0.314-0.136,0.826,0.451,0.781c0.517-0.04,0.642-0.418,0.72-0.922c0.31-2.002,0.824-3.976,0.722-6.028
		c-0.005-0.093,0.067-0.189,0.166-0.447c0.25,1.942,0.305,3.728,0.313,5.514c0.005,0.983,0.331,1.583,1.434,1.527
		c0.375-0.019,0.489,0.197,0.875,1.276c0.074-0.013,0.207-0.013,0.214-0.043c0.346-1.395,1.118-1.975,2.6-1.549
		c0.543,0.156,0.649-0.356,0.686-0.856c0.112-1.547,0.274-3.09,0.438-4.632c0.031-0.288-0.042-0.716,0.43-0.726
		c0.481-0.01,0.623,0.433,0.607,0.753c-0.062,1.255,0.517,2.499,0.04,3.759c-0.15,0.398-0.078,0.924,0.26,1.079
		c0.513,0.235,0.738-0.265,0.902-0.695c0.319,0.228,0.031,0.752,0.477,0.887c0.453-0.204,0.262-0.817,0.729-1.097
		c0.354,1.465,1.705-0.492,2.118,1.026c0.251-0.949,0.188-1.533,0.037-2.119c-0.142-0.546,0.045-1.081,0.581-1.105
		c0.455-0.021,0.297,0.587,0.277,0.892c-0.062,0.927,0.387,1.662,0.822,2.686c0.618-1.443,0.462-2.808,0.782-4.069
		c0.052-0.206-0.14-0.522,0.214-0.57c0.333-0.045,0.36,0.264,0.372,0.492c0.024,0.482,0.168,0.738,0.732,0.646
		c0.55-0.09,0.424-0.473,0.453-0.811c0.16-1.861,0.092-3.725,0.039-5.736c0.514,1.281,0.907,2.43,0.56,4.009
		c0.557-0.63,0.318-1.078,0.445-1.442c0.832,0.354,0.832,0.354,1.112,1.847c0.042,0.219-0.09,0.525,0.194,0.627
		c0.395,0.143,0.242-0.455,0.6-0.472c0.38,0.639,0.277,1.425,0.527,2.116c0.48,0.087,0.299-1.456,1.091-0.415
		c0.109,0.143,0.16,0.023,0.229-0.071c0.686-0.946,1.121-0.717,1.553,0.254c0.19,0.427,0.834,0.45,1.216,0.806
		c0.22,0.205,0.355-0.295,0.355-0.564c0-0.959-0.035-1.919-0.019-2.878c0.006-0.372-0.147-0.935,0.356-1.017
		c0.398-0.065,0.854,0.186,1.084,0.612c0.133,0.245,0.216,0.52,0.513,0.627c0.472,0.008,0.041-0.936,0.653-0.677
		c0.705,0.298,0.582,1.039,0.65,1.803c0.57-0.445,0.186-1.051,0.537-1.589c0.163,1.36,0.028,2.631,0.643,3.851
		c0.309-0.485,0.344-1.151,1.034-1.21c0.544,0.792,0.067,1.733,0.378,2.618c0.634-0.133,0.64-0.611,0.624-1.079
		c-0.04-1.076-0.19-2.156-0.125-3.224c0.089-1.465,0.703-1.759,2.003-1.106c0.617,0.31,1.316,0.217,1.983,0.474
		c0.767,0.295,1.03,0.592,0.949,1.338c-0.026,0.236-0.011,0.483,0.031,0.717c0.053,0.292,0.028,0.71,0.452,0.707
		c0.355-0.003,0.545-0.273,0.547-0.657c0-0.18,0.067-0.359,0.099-0.516c0.453-0.041,0.214,0.545,0.671,0.483
		c0.277-0.662-0.073-1.459,0.309-2.26c0.661,0.555,0.805,1.46,0.882,1.96c0.214,1.382,1.604,1.901,1.894,3.139
		c0.061,0.26,0.398,0.169,0.612,0.021c0.34-0.235,0.68-0.472,1.1-0.764c0.148,0.885,0.146,1.686,0.452,2.449
		c0.538-0.375,0.397-0.92,0.401-1.405c0.013-1.679-0.002-3.358,0.008-5.038c0.002-0.261-0.125-0.601,0.171-0.764
		c0.39-0.214,0.508,0.232,0.81,0.573c-0.016-1.453,0.022-2.716,0.442-3.959c0,0.401,0.007,0.802-0.001,1.204
		c-0.037,1.735,0.636,3.276,1.326,4.81c0.097,0.216,0.108,0.745,0.565,0.252c0.12-0.129,0.346-0.11,0.394,0.07
		c0.208,0.774,1.23,1.209,0.875,2.241c-0.098,0.285-0.224,0.922,0.396,0.923c0.589,0,0.585-0.542,0.587-0.992
		c0.004-0.759,0.152-1.556-0.024-2.271c-0.33-1.336,0.742-2.161,0.992-3.271c0.055-0.242,0.262-0.303,0.566-0.228
		c1.223,0.304,2.226,0.508,2.141,2.306c-0.042,0.908,0.291,1.992,0.35,3.016c0.012,0.221-0.174,0.58,0.315,0.619
		c0.558,0.044,0.326-0.379,0.448-0.619c0.407-0.798,0.497-1.667,0.593-2.908c0.435,0.906,0.706,1.473,1.095,2.284
		c0-0.843-0.033-1.428,0.01-2.007c0.041-0.563-0.229-1.4,0.877-1.231c0.055,0.008,0.168-0.068,0.181-0.122
		c0.372-1.589,1.409-0.764,2.267-0.641c1.102,0.159,1.114,1.041,1.14,1.811c0.03,0.939,0.909,1.362,1.146,2.157
		c0.043,0.145,0.325,0.176,0.396,0.022c0.195-0.419,0.832-0.601,0.701-1.171c-0.183-0.792,0.321-1.554,0.041-2.358
		c-0.095-0.272,0.095-0.593,0.501-0.855c0.35,1.623-0.021,3.208,0.271,4.915c0.537-0.489,0.361-0.958,0.438-1.346
		c0.136-0.682,0.664-1.1,1.21-1.055c0.451,0.036,0.604,0.647,0.447,1.184c-0.13,0.443-0.038,0.893,0.243,1.247
		c0.129,0.162,0.423,0.288,0.629,0.271c0.295-0.023,0.05-0.319,0.121-0.479c0.323-0.727,0.9-1.353,0.65-2.346
		c0.567,0.282,0.427,0.596,0.446,0.842c0.029,0.37,0.067,0.902,0.499,0.733c0.327-0.128,0.99,0,1.015-0.696
		c0.023-0.636,0.128-1.268,0.168-1.903c0.027-0.443,0.153-0.816,0.64-0.868c0.575-0.062,0.567,0.45,0.683,0.811
		c0.048,0.148,0.083,0.323,0.055,0.472c-0.403,2.061,0.819,3.765,1.23,5.645c0.033,0.148,0.045,0.382,0.238,0.318
		c0.191-0.063,0.31-0.208,0.353-0.505c0.259-1.832,0.221-3.663,0.171-5.502c-0.051-1.87,0.466-3.713,0.285-5.605
		c0.203,1.458,0.941,2.763,1.103,4.203c0.052,0.458,0.305,0.896,0.533,0.983c0.913,0.345,0.954,1.36,1.626,1.886
		c0.563,0.441,1.564,0.438,1.616-0.212c0.075-0.962,0.994-1.554,0.919-2.541c-0.013-0.178,0.034-0.683,0.456-0.433
		c0.329,0.195,0.815-0.77,1.052,0.248c0.116,0.495,0.428,1.19,1.521,0.773c1.098-0.419,1.965,0.526,2.136,1.834
		c0.045,0.349-0.02,0.86,0.438,0.845c0.511-0.017,0.308-0.562,0.335-0.876c0.085-0.981,0.794-1.708,1.014-2.652
		c0.138-0.59,1.344-0.546,1.537,0.06c0.392,1.227,1.086,2.251,1.858,3.245c0.047,0.059,0.071,0.146,0.079,0.224
		c0.123,1.223,0.479,2.363,1.399,3.613c-0.146-2.208,1.172-3.955,0.862-6.031c-0.07-0.473-0.321-1.355,0.345-1.397
		c0.49-0.031,0.311,0.866,0.31,1.34c-0.004,0.987,0.642,1.464,1.297,2.034c0.447-0.647-0.192-1.445,0.508-1.99
		c0.095,0.13,0.261,0.252,0.252,0.361c-0.084,1.114,0.476,1.603,1.527,1.772c0.538,0.087,0.722,0.712,1.108,1.043
		c0.212,0.181,0.568,0.358,0.803,0.301c0.213-0.052,0.283-0.44,0.28-0.737c-0.01-0.8,0.005-1.6-0.006-2.399
		c-0.005-0.365,0.031-0.707,0.187-1.048c0.145-0.321,0.312-0.571,0.696-0.525c0.38,0.046,0.528,0.32,0.565,0.669
		c0.076,0.708,0.157,1.415,0.219,2.124c0.028,0.323,0.11,0.603,0.559,1.074c-0.094-3.516,0.056-6.745,0.3-9.974
		c0.128,2.021,0.508,4.022,0.387,6.058c-0.021,0.358-0.022,0.723,0.021,1.079c0.04,0.337,0.021,0.806,0.527,0.787
		c0.534-0.02,0.358-0.522,0.455-0.896c0.267,0.607,0.514,1.167,0.82,1.864c0.069-0.772,0.086-1.398,0.2-2.006
		c0.052-0.278,0.044-0.743,0.443-0.766c0.491-0.027,0.28,0.468,0.401,0.725c0.047,0.1,0.135,0.181,0.23,0.305
		c0.504-0.307,0.002-0.944,0.435-1.229c0.927,1.148,1.273,2.533,1.638,3.916c0.067,0.256-0.066,0.779,0.443,0.661
		c0.327-0.076,0.644-0.377,0.64-0.787c-0.008-0.798,0.226-1.573,0.126-2.387c-0.116-0.946-0.105-1.907-0.154-2.961
		c0.838,2.247-0.28,4.907,2.03,6.831c0.229-1.152,0.228-2.238,0.518-3.274c0.265-0.946,1.118-1.176,1.486-1.899
		c0.114-0.224,0.569-0.108,0.601,0.097c0.129,0.853,1.285,1.399,0.723,2.443c-0.124,0.231,0.008,0.393,0.194,0.479
		c0.23,0.107,0.384-0.012,0.418-0.254c0.039-0.272,0.058-0.547,0.088-0.859c0.631,0.795,0.181,1.763,0.775,2.578
		c0-1.961,0-3.923,0-5.885c0.108-0.002,0.216-0.005,0.323-0.008c0.153,1.77,0.299,3.541,0.468,5.309
		c0.026,0.276-0.189,0.729,0.263,0.788c0.424,0.055,0.841-0.2,0.82-0.676c-0.051-1.184,1.186-2.09,0.678-3.379
		c-0.103-0.262,0.18-0.576,0.536-0.799c0.504,1.028,0.318,2.147,0.447,3.327c0.703-0.374,0.615-0.937,0.736-1.375
		c0.309,0.849,1.281,1.475,0.749,2.818c0.97-0.804,0.848-1.635,0.881-2.432c0.502,0.203,0.248,0.737,0.539,1.037
		c0.67-3.099,0.232-6.256,0.808-9.355c0,1.106,0,2.212,0,3.445c0.523-0.435,0.132-0.939,0.512-1.419
		c0.084,1.992-0.023,3.872,0.457,5.933c0.205-1.011,0.941-1.39,1.462-1.898c0.735-0.72,0.904,0.102,0.962,0.65
		c0.084,0.789,0.112,1.417,1.217,1.524c0.751,0.074,1.081,0.128,1.438-0.669c0.256-0.574,1.054-0.903,0.809-1.764
		c0.178,1.036,0.534,2.02,0.425,3.087c0.903-0.966,0.615-2.266,1.282-3.367c0.346,1.927,0.661,3.851,1.821,5.301
		c0.079-0.669,1.131-1.197,0.976-2.263c-0.021-0.146,0.052-0.432,0.187-0.376c1.408,0.588,1.018-0.775,1.401-1.27
		c0.239,0.786-0.285,1.79,0.821,2.495c0-0.73,0.01-1.35-0.004-1.969c-0.008-0.31,0.017-0.566,0.408-0.583
		C333.227,26.408,333.315,26.333,333.346,26.184z M146.657,30.427c-0.203-0.012-0.229,0.107-0.226,0.221
		c0.002,0.071,0.053,0.142,0.083,0.212c0.088-0.057,0.226-0.097,0.251-0.174C146.789,30.614,146.692,30.503,146.657,30.427z
		 M407.41,32.49l-0.047,0.082l0.079,0.006L407.41,32.49z M5.175,38.734L5.13,38.813l0.074,0.008L5.175,38.734z M155.648,52.912
		l-0.05,0.08l0.08,0.01L155.648,52.912z"/>
	<path fill-rule="evenodd" clip-rule="evenodd" fill="#C7C7C7" d="M388.784,30.853c-0.107-0.008-0.214-0.015-0.321-0.023
		c-0.334-1.459-0.084-2.938-0.14-4.408c-0.042-1.089-0.34-2.197,0.231-3.522C388.579,25.719,388.542,28.292,388.784,30.853z"/>
	<path fill-rule="evenodd" clip-rule="evenodd" fill="#C7C7C7" d="M171.809,28.698c-0.094-0.027-0.188-0.054-0.283-0.082
		c-0.339-1.746-0.099-3.494-0.026-5.246C171.968,25.128,171.814,26.917,171.809,28.698z"/>
	<path fill-rule="evenodd" clip-rule="evenodd" fill="#C7C7C7" d="M171.29,57.011c0.12,0.013,0.24,0.025,0.361,0.038
		c-0.258,1.205,0.423,2.474-0.343,3.908C170.878,59.484,171.104,58.247,171.29,57.011z"/>
	<path fill-rule="evenodd" clip-rule="evenodd" fill="#C7C7C7" d="M347.063,56.271c0.063,0.005,0.128,0.005,0.192,0.003
		c0.527,1.382,0.138,2.775,0.253,4.163c-0.148,0.005-0.297,0.009-0.445,0.014C347.063,59.058,347.063,57.665,347.063,56.271z"/>
	<path fill-rule="evenodd" clip-rule="evenodd" fill="#C7C7C7" d="M423.118,32.764c-0.668-1.277,0.034-2.591-0.278-3.877
		c0.165-0.01,0.33-0.02,0.494-0.03c0,1.306,0,2.613,0.001,3.919C423.263,32.768,423.19,32.764,423.118,32.764z"/>
	<path fill-rule="evenodd" clip-rule="evenodd" fill="#C7C7C7" d="M399.098,31.096c-0.132,0.005-0.263,0.011-0.394,0.017
		c0.001-1.85,0.001-3.7,0.001-5.551C398.655,27.42,399.297,29.232,399.098,31.096z"/>
	<path fill-rule="evenodd" clip-rule="evenodd" fill="#C7C7C7" d="M148.316,24.126c-0.141,0.007-0.282,0.015-0.423,0.022
		c0-1.245,0-2.489,0-3.733c0.141-0.007,0.282-0.014,0.422-0.021C148.316,21.638,148.316,22.882,148.316,24.126z"/>
	<path fill-rule="evenodd" clip-rule="evenodd" fill="#C7C7C7" d="M164.895,29.873c-0.099,0.003-0.197,0.006-0.296,0.008
		c-0.425-1.241-0.093-2.512-0.093-3.776C165.146,27.302,164.779,28.616,164.895,29.873z"/>
	<path fill-rule="evenodd" clip-rule="evenodd" fill="#C7C7C7" d="M454.188,43.279c0.088,0,0.176,0,0.264,0
		c0.169,1.085,0.148,2.168-0.104,3.255C454.035,45.463,454.009,44.378,454.188,43.279z"/>
	<path fill-rule="evenodd" clip-rule="evenodd" fill="#C7C7C7" d="M416.447,46.901c0.139,0.005,0.277,0.01,0.417,0.014
		c-0.052,0.995,0.133,2.004-0.241,2.992C416.34,48.92,416.411,47.909,416.447,46.901z"/>
	<path fill-rule="evenodd" clip-rule="evenodd" fill="#C7C7C7" d="M153.379,71.867c0.141-0.156,0.283-0.313,0.423-0.47
		c0.059,1.003,0.13,2.005-0.104,3.337C153.158,73.598,153.395,72.718,153.379,71.867z"/>
	<path fill-rule="evenodd" clip-rule="evenodd" fill="#C7C7C7" d="M133.642,30.624c-0.12,0.005-0.241,0.01-0.36,0.015
		c0-1.53,0-3.061,0-4.592C133.459,27.571,133.378,29.109,133.642,30.624z"/>
	<path fill-rule="evenodd" clip-rule="evenodd" fill="#C7C7C7" d="M454.074,31.596c-0.329-0.834-0.237-1.686-0.022-2.544
		C454.375,29.887,454.372,30.735,454.074,31.596z"/>
	<path fill-rule="evenodd" clip-rule="evenodd" fill="#C7C7C7" d="M444.042,54.12c0.056-0.003,0.112-0.007,0.168-0.012
		c0,1.501,0,3.001,0,4.501c-0.057,0.001-0.112,0.003-0.168,0.004C444.042,57.116,444.042,55.618,444.042,54.12z"/>
	<path fill-rule="evenodd" clip-rule="evenodd" fill="#C7C7C7" d="M409.443,28.921c-0.099,0-0.197-0.001-0.296-0.002
		c-0.383-0.895-0.187-1.744,0.296-2.579C409.443,27.201,409.443,28.061,409.443,28.921z"/>
	<path fill-rule="evenodd" clip-rule="evenodd" fill="#C7C7C7" d="M183.413,56.74c0.14,0.006,0.279,0.013,0.419,0.019
		c-0.061,0.755,0.125,1.532-0.21,2.529C183.214,58.295,183.342,57.515,183.413,56.74z"/>
	<path fill-rule="evenodd" clip-rule="evenodd" fill="#C7C7C7" d="M165.155,55.307c0.15,0.008,0.3,0.015,0.451,0.021
		c-0.054,0.671,0.113,1.37-0.248,2.013C165.005,56.678,165.125,55.988,165.155,55.307z"/>
	<path fill-rule="evenodd" clip-rule="evenodd" fill="#C7C7C7" d="M88.755,30.797c-0.359,0-0.435-0.223-0.425-0.465
		c0.013-0.323-0.154-0.782,0.315-0.877c0.377-0.076,0.367,0.31,0.38,0.57C89.041,30.323,89.101,30.656,88.755,30.797z"/>
	<path fill-rule="evenodd" clip-rule="evenodd" fill="#C7C7C7" d="M106.54,54.675c-0.267-0.532-0.263-1.061-0.072-1.777
		C106.917,53.596,106.828,54.134,106.54,54.675z"/>
	<path fill-rule="evenodd" clip-rule="evenodd" fill="#C7C7C7" d="M332.826,24.655c0,1.031,0,2.062,0,3.093
		c-0.047,0-0.093-0.001-0.14-0.001c0-1.043,0-2.087,0-3.13C332.733,24.63,332.779,24.643,332.826,24.655z"/>
	<path fill-rule="evenodd" clip-rule="evenodd" fill="#C7C7C7" d="M170.923,54.484c0.158-0.117,0.296-0.082,0.371,0.086
		c0.086,0.193,0.028,0.371-0.139,0.507C170.922,54.94,170.906,54.719,170.923,54.484z"/>
	<path fill-rule="evenodd" clip-rule="evenodd" fill="#ABABAB" d="M423.118,32.764c0.072,0,0.145,0.003,0.217,0.012
		c0.002,0.233,0.004,0.465,0.006,0.699c-0.072,0.008-0.146,0.011-0.221,0.008C423.119,33.244,423.119,33.004,423.118,32.764z"/>
	<path fill-rule="evenodd" clip-rule="evenodd" fill="#C7C7C7" d="M333.346,28.184c-0.03,0.148-0.119,0.224-0.273,0.218
		C333.163,28.329,333.255,28.256,333.346,28.184z"/>
	<path fill-rule="evenodd" clip-rule="evenodd" fill="#C7C7C7" d="M423.12,33.483c0.074,0.002,0.148,0,0.221-0.008
		c0.001,0.085,0.003,0.171,0.004,0.257c-0.076-0.008-0.151-0.011-0.227-0.009C423.118,33.643,423.119,33.563,423.12,33.483z"/>
	<path fill-rule="evenodd" clip-rule="evenodd" fill="#FEFEFE" d="M146.657,32.427c0.035,0.076,0.131,0.187,0.108,0.259
		c-0.025,0.077-0.163,0.118-0.251,0.174c-0.029-0.071-0.081-0.141-0.083-0.212C146.429,32.534,146.455,32.416,146.657,32.427z"/>
	<path fill-rule="evenodd" clip-rule="evenodd" fill="#FEFEFE" d="M66.884,46.51c-0.153-0.186-0.279-0.525-0.085-0.58
		c0.318-0.09,0.14,0.299,0.23,0.456C66.98,46.426,66.932,46.468,66.884,46.51z"/>
	<polygon fill-rule="evenodd" clip-rule="evenodd" fill="#FEFEFE" points="407.41,34.49 407.442,34.578 407.363,34.571 	"/>
	<polygon fill-rule="evenodd" clip-rule="evenodd" fill="#FEFEFE" points="5.175,40.734 5.204,40.821 5.13,40.813 	"/>
	<polygon fill-rule="evenodd" clip-rule="evenodd" fill="#FEFEFE" points="155.648,54.912 155.679,55.002 155.599,54.992 	"/>
</g>
</svg>
