<?xml version="1.0" encoding="utf-8"?>
<!-- Generator: Adobe Illustrator 16.0.3, SVG Export Plug-In . SVG Version: 6.00 Build 0)  -->
<!DOCTYPE svg PUBLIC "-//W3C//DTD SVG 1.1//EN" "http://www.w3.org/Graphics/SVG/1.1/DTD/svg11.dtd">
<svg version="1.1" id="Layer_1" xmlns="http://www.w3.org/2000/svg" xmlns:xlink="http://www.w3.org/1999/xlink" x="0px" y="0px"
	 width="300px" height="300px" viewBox="0 0 300 300" enable-background="new 0 0 300 300" xml:space="preserve">
<g>
	<circle fill="#483C6B" cx="151.833" cy="151.297" r="148.167"/>
	<g>
		<path fill="#FBF2F6" d="M116.932,153.845h80.479c0,0,8.252,49.944-33.019,49.944S116.932,176.399,116.932,153.845z"/>
		<path fill="none" stroke="#F6F5F5" stroke-width="17" stroke-linecap="round" stroke-miterlimit="10" d="M90.99,107.455
			c0,0-16.509,114.056,63.086,114.056c90.795,0,66.033-117.61,66.033-117.61"/>
		<path fill="#FBF2F6" d="M116.672,140.395l-1.805-63.884c0,0-4.127-27.389,39.208-27.389c43.335,0,41.271,32.222,41.271,32.222
			v59.612L116.672,140.395z"/>
		<path fill="#F6F5F5" d="M210.648,257.853c0,4.053-4.209,7.341-9.401,7.341h-87.296c-5.194,0-9.403-3.288-9.403-7.341l0,0
			c0-4.053,4.209-7.341,9.403-7.341h87.296C206.439,250.512,210.648,253.8,210.648,257.853L210.648,257.853z"/>
		<path fill="#F6F5F5" d="M165.739,253.714c0,3.855-4.004,6.982-8.942,6.982l0,0c-4.939,0-8.941-3.127-8.941-6.982V226.86
			c0-3.854,4.002-6.982,8.941-6.982l0,0c4.938,0,8.942,3.128,8.942,6.982V253.714z"/>
	</g>
	<rect x="129.678" y="43.828" fill="#483C6B" width="11.448" height="108.752"/>
	<rect x="150.665" y="43.828" fill="#483C6B" width="11.447" height="108.752"/>
	<rect x="171.651" y="43.828" fill="#483C6B" width="11.447" height="108.752"/>
	<rect x="103.92" y="65.769" fill="#483C6B" width="108.753" height="11.447"/>
	<rect x="103.92" y="98.203" fill="#483C6B" width="100.167" height="11.448"/>
</g>
</svg>
